<?xml version="1.0" encoding="utf-8"?>
<!-- Generator: Adobe Illustrator 21.1.0, SVG Export Plug-In . SVG Version: 6.00 Build 0)  -->
<svg version="1.1" id="Warstwa_1" xmlns="http://www.w3.org/2000/svg" xmlns:xlink="http://www.w3.org/1999/xlink" x="0px" y="0px"
	 viewBox="0 0 407.8 362.7" style="enable-background:new 0 0 407.8 362.7;" xml:space="preserve">
<style type="text/css">
	.st0{fill:#FFFFFF;stroke:#000000;stroke-width:11;stroke-miterlimit:10;}
	.st1{fill:none;stroke:#000000;stroke-width:11.0274;stroke-miterlimit:10;}
	.st2{stroke:#000000;stroke-width:37;stroke-linecap:round;stroke-miterlimit:10;}
	.st3{stroke:#000000;stroke-width:33.1243;stroke-linecap:round;stroke-miterlimit:10;}
	.st4{fill:#FFFFFF;stroke:#000000;stroke-width:17.8146;stroke-miterlimit:10;}
	.st5{fill:none;stroke:#000000;stroke-width:15;stroke-miterlimit:10;}
	.st6{fill:#FFFFFF;}
	.st7{stroke:#000000;stroke-width:12;stroke-miterlimit:10;}
	.st8{fill:none;stroke:#000000;stroke-width:17;stroke-linecap:round;stroke-linejoin:round;stroke-miterlimit:10;}
</style>
<path id="XMLID_382_" class="st0" d="M232.4,166.4c0,0,27.4-35,63.6,0c0,0-13.1,17.9-31.8,18C254.7,184.5,243.7,180.1,232.4,166.4z"
	/>
<path id="XMLID_779_" class="st1" d="M265.5,157.7c4.7,0,8.6,3.8,8.6,8.6s-3.8,8.6-8.6,8.6s-8.6-3.8-8.6-8.6
	S260.8,157.7,265.5,157.7"/>
<line id="XMLID_651_" class="st2" x1="229" y1="319" x2="133.9" y2="319"/>
<path id="XMLID_650_" class="st2" d="M158.9,267.1c-26,0-52,0-77.9,0"/>
<path id="XMLID_649_" class="st3" d="M101.6,163.2c-22.7,0-45.4,0-68,0"/>
<line id="XMLID_648_" class="st2" x1="143.6" y1="59.3" x2="52.9" y2="59.3"/>
<line id="XMLID_647_" class="st2" x1="113.6" y1="215.1" x2="18.5" y2="215.1"/>
<path id="XMLID_646_" class="st2" d="M113.6,111.2c-30.4,0-60.8,0-91.1,0"/>
<path id="XMLID_770_" class="st4" d="M390.5,242.5c0,0-22.5-107.6-37.1-154.2c-7.3-23.2-43.3-57.2-94.5-66.2
	C185,9.2,153.1,40.5,135,67.4c-21.1,31.4-25.4,55.4-18,145.4s93.6,140.9,137.6,140.9l113.4-0.1l0.1-89.6c0,0,15.2-0.3,20.9-0.6
	C392.5,263.2,394.8,255.1,390.5,242.5z"/>
<path id="XMLID_769_" class="st5" d="M114.3,122.2"/>
<g id="XMLID_759_">
	<g id="XMLID_767_">
		<path class="st6" d="M238.7,37.3c17.1-17.3,40.9-28,67.1-28c52.1,0,94.4,42.3,94.4,94.4S358,198,305.8,198
			c-26.8,0-49.1-10.5-68.6-28.5l0,0c-17.1,17-40.6,27.6-66.6,27.6c-52.1,0-94.4-42.3-94.4-94.4s42.3-94.4,94.4-94.4
			C197.4,8.2,221.5,19.4,238.7,37.3L238.7,37.3z"/>
	</g>
	<g id="XMLID_764_">
		<path class="st5" d="M238.7,37.3L238.7,37.3c17.1-17.3,40.9-28,67.1-28c52.1,0,94.4,42.3,94.4,94.4S358,198,305.8,198
			c-26.8,0-49.1-10.5-68.6-28.5l0,0c-31-28.1-62-70.3-62-70.3"/>
		<path class="st5" d="M301.2,107c0,0-32.1-41.8-62.4-69.8h0c-17.2-17.9-41.4-29-68.1-29c-52.1,0-94.4,42.3-94.4,94.4
			s42.3,94.4,94.4,94.4c26,0,49.6-10.5,66.6-27.6c0.2-0.2,0.3-0.3,0.5-0.5"/>
	</g>
</g>
<path id="XMLID_758_" class="st7" d="M177.9,102.1c0,3.7-2.9,6.7-6.5,6.7s-6.5-3-6.5-6.7s2.9-7.5,6.5-7.5S177.9,98.4,177.9,102.1z"
	/>
<path id="XMLID_757_" class="st5" d="M265.2,153.8c-27.3-22.7-51.5-61.7-74.6-81.3c-5.9-5-12-7.4-18.9-7.4
	c-20.2,0-36.6,16.4-36.6,36.6s16.4,36.6,36.6,36.6c9.6,0,18.3-3.7,24.8-9.6"/>
<path id="XMLID_756_" class="st5" d="M277.1,162.4c-4-2.5-8-5.4-11.9-8.6"/>
<path id="XMLID_755_" class="st5" d="M341.3,159.6c-10.3,6.5-22.5,10.2-35.5,10.2c-9.9,0-16.8,0.1-27.2-6.4l-1.6-0.9"/>
<path id="XMLID_754_" class="st5" d="M352.5,150.8c-3.4,3.3-7.1,6.2-11.2,8.8"/>
<path id="XMLID_753_" class="st5" d="M260.9,53.4c11.9-10.8,27.7-17.4,45-17.4c36.9,0,66.9,29.9,66.9,66.9
	c0,18.8-7.7,35.8-20.2,47.9"/>
<path id="XMLID_752_" class="st5" d="M279.9,76.1c6.5-6,15.2-9.6,24.8-9.6c20.2,0,36.6,16.4,36.6,36.6s-16.4,36.6-36.6,36.6
	c-6.9,0-15.2-5.2-21.1-10.2c-26.4-22.4-48.2-61.2-83.1-85.6l-1.7-1.3c-9.1-5.4-16.6-7.5-28.3-7.5c-36.9,0-66.9,29.9-66.9,66.9
	s29.9,66.9,66.9,66.9c17.3,0,33.1-6.6,45-17.4"/>
<path id="XMLID_751_" class="st5" d="M266,188.5c-10.3-4.8-19.8-11.5-28.8-19.8c-31-28.1-62-70.3-62-70.3"/>
<path id="XMLID_750_" class="st5" d="M345.7,188.5c-12.1,5.6-25.6,8.8-39.8,8.8c-14.5,0-27.7-3.1-39.9-8.8"/>
<path id="XMLID_749_" class="st5" d="M238.7,36.5c17.1-17.3,40.9-28,67.1-28c52.1,0,94.4,42.3,94.4,94.4c0,37.9-22.4,70.6-54.6,85.6
	"/>
<path id="XMLID_683_" class="st5" d="M301.2,106.3c0,0-32.1-41.8-62.5-69.8c-17.2-17.9-41.3-29-68.1-29c-52.1,0-94.4,42.3-94.4,94.4
	s42.3,94.4,94.4,94.4c26.3,0,50-10.7,67.1-28"/>
<path id="XMLID_682_" class="st7" d="M298.5,102.7c0-3.7,2.9-6.7,6.5-6.7s6.5,3,6.5,6.7s-2.9,7.5-6.5,7.5S298.5,106.4,298.5,102.7z"
	/>
<path id="XMLID_140_" class="st8" d="M299.6,279.4c0,0,23.5,24.5,66.5,21.3"/>
</svg>
