<?xml version="1.0" encoding="utf-8"?>
<!-- Generator: Adobe Illustrator 21.1.0, SVG Export Plug-In . SVG Version: 6.00 Build 0)  -->
<svg version="1.1" id="Warstwa_1" xmlns="http://www.w3.org/2000/svg" xmlns:xlink="http://www.w3.org/1999/xlink" x="0px" y="0px"
	 viewBox="0 0 166.8 147.1" style="enable-background:new 0 0 166.8 147.1;" xml:space="preserve">
<style type="text/css">
	.st0{fill:#FFFFFF;stroke:#000000;stroke-width:4.3245;stroke-miterlimit:10;}
	.st1{fill:#FFFFFF;stroke:#000000;stroke-width:3.524;stroke-miterlimit:10;}
	.st2{fill:#FFFFFF;stroke:#000000;stroke-width:4.0156;stroke-miterlimit:10;}
	.st3{fill:#FFFFFF;stroke:#000000;stroke-width:5.0452;stroke-miterlimit:10;}
</style>
<g>
	<rect x="120.1" y="2.2" class="st0" width="44.6" height="67.7"/>
	<rect x="109.3" y="13" class="st0" width="44.6" height="67.7"/>
	<path class="st0" d="M47,143l-8.8-5.2l-9.9-6.6c-5.1-3.4-7.2-9.9-4.8-15.6c0.1-0.2,0.1-0.3,0.2-0.5c3-6.3,10.6-7.3,10.6-7.3
		s26.3,11.3,29.9,17.6c3.7,6.3,4.2,11.3-1.2,16.1S47,143,47,143z"/>
	<rect x="2.2" y="97.9" class="st0" width="36.3" height="20"/>
	<path class="st0" d="M54.2,137.9l-2.5-1.6c-4.3-2.7-5.8-8.2-3.5-12.7l0,0l-8.6-5.3c-3.6-2.2-5.6-6.3-5.3-10.3
		c0-0.5,0.1-0.9,0.2-1.4c0.1-0.7,0.4-1.4,0.7-2.1l0,0L61,118.9c6.7,3.8,9.1,12.4,5.2,19.1l0,0c-3.9,6.7-12.5,9-19.1,5l-2.7-1.6"/>
	<circle class="st1" cx="32.5" cy="129.6" r="3.3"/>
	<circle class="st1" cx="24.4" cy="124.9" r="3.3"/>
	<circle class="st1" cx="18.2" cy="119.5" r="3.3"/>
	<polygon class="st0" points="41.4,19.1 36.8,31.7 36.8,83.6 46.4,83.6 46.4,31.4 	"/>
	<rect x="35.9" y="31.5" width="11.6" height="3"/>
	<path class="st0" d="M103.5,123.3h8.6v0c0-4.4,3.6-8,8-8h12.6v7.3h9.6v10.6h-38.9V123.3z"/>
	<path id="XMLID_347_" d="M113.9,138.6L113.9,138.6c-2.8,0-5.2-2.3-5.2-5.2v0c0-2.8,2.3-5.2,5.2-5.2h0c2.8,0,5.2,2.3,5.2,5.2v0
		C119.1,136.3,116.8,138.6,113.9,138.6z"/>
	<path id="XMLID_339_" d="M132.9,138.6L132.9,138.6c-2.8,0-5.2-2.3-5.2-5.2v0c0-2.8,2.3-5.2,5.2-5.2h0c2.8,0,5.2,2.3,5.2,5.2v0
		C138.1,136.3,135.7,138.6,132.9,138.6z"/>
	<rect x="98.1" y="24.1" class="st0" width="44.6" height="67.7"/>
	<rect x="63.7" y="52.1" class="st0" width="55.6" height="50.7"/>
	<rect x="73" y="91.9" class="st0" width="36.3" height="10.6"/>
	<rect x="69.7" y="59" class="st2" width="8.6" height="8.6"/>
	<rect x="87.2" y="59.1" class="st2" width="8.6" height="8.6"/>
	<rect x="104.6" y="59.3" class="st2" width="8.6" height="8.6"/>
	<rect x="69.7" y="78.3" class="st2" width="8.6" height="8.6"/>
	<rect x="87.2" y="78.4" class="st2" width="8.6" height="8.6"/>
	<rect x="104.6" y="78.6" class="st2" width="8.6" height="8.6"/>
	<polygon points="117.4,48.4 106.6,39.1 92.3,39.1 91,39.1 76.5,39.1 65.6,48.4 61.5,48.4 61.5,52.8 91,52.8 92.3,52.8 121.4,52.8 
		121.4,48.4 	"/>
	<circle class="st3" cx="91.6" cy="41.7" r="7"/>
	<rect x="84.7" y="91.9" class="st2" width="12.6" height="10.6"/>
</g>
</svg>
