<?xml version="1.0" encoding="utf-8"?>
<!-- Generator: Adobe Illustrator 21.1.0, SVG Export Plug-In . SVG Version: 6.00 Build 0)  -->
<svg version="1.1" id="Warstwa_1" xmlns="http://www.w3.org/2000/svg" xmlns:xlink="http://www.w3.org/1999/xlink" x="0px" y="0px"
	 viewBox="0 0 514.1 411" style="enable-background:new 0 0 514.1 411;" xml:space="preserve">
<style type="text/css">
	.st0{fill:none;stroke:#000000;stroke-width:14.8235;stroke-miterlimit:10;}
	.st1{fill:none;stroke:#000000;stroke-width:18;stroke-miterlimit:10;}
	.st2{fill:none;stroke:#000000;stroke-width:19;stroke-miterlimit:10;}
	.st3{fill:none;stroke:#000000;stroke-width:19.1202;stroke-miterlimit:10;}
	.st4{fill:#FFFFFF;stroke:#000000;stroke-width:19.1202;stroke-miterlimit:10;}
</style>
<g>
	<g>
		<path class="st0" d="M276.6,360.1c-12.9,0.1-25.9-2.7-37.8-8.6l-18.2-8.9l15.6-8.3c12.3-6.5,25.8-9.8,39.3-9.9"/>
		<path class="st1" d="M96.6,234"/>
		<path class="st1" d="M25.6,402V218.8C25.6,150,80.8,93.2,149.6,93c69-0.2,124.9,55.6,124.9,124.5l32.7,67.9
			c5.4,8.5-0.8,19.6-10.9,19.6h-21.8v97h-78c-54.7,0-96-44-99-99v0l-18.4-8c-7.1-3.1-11.7-10-11.8-17.6l-0.5-29.5c0-0.4,0-0.8,0-1.2
			"/>
		<line id="XMLID_610_" class="st2" x1="229.1" y1="176" x2="229.1" y2="119"/>
		<line id="XMLID_608_" class="st2" x1="196.5" y1="175" x2="196.5" y2="102"/>
		<line id="XMLID_596_" class="st2" x1="163.9" y1="187" x2="163.9" y2="102"/>
		<line id="XMLID_595_" class="st2" x1="131.3" y1="248.5" x2="131.3" y2="102"/>
		<line id="XMLID_594_" class="st2" x1="98.7" y1="207.5" x2="98.7" y2="102"/>
		<line id="XMLID_591_" class="st2" x1="66.1" y1="264.5" x2="66.1" y2="128"/>
		<circle class="st1" cx="226.6" cy="237" r="11"/>
		<line id="XMLID_139_" class="st2" x1="66.1" y1="264.5" x2="28.8" y2="264.5"/>
		<line id="XMLID_206_" class="st2" x1="66.1" y1="225.5" x2="28.8" y2="225.5"/>
		<line id="XMLID_220_" class="st2" x1="66.1" y1="186.5" x2="28.8" y2="186.5"/>
	</g>
</g>
<path class="st1" d="M267.7,176.5h-78.4c-23.6,0-42.7,19.1-42.7,42.7V248h-30v-15.5c0-14.1-11.4-25.5-25.5-25.5h0
	c-14.1,0-25.5,11.4-25.5,25.5V277l-37,37"/>
<g>
	<path class="st3" d="M402.8,402.3c61.1-38.8,101.8-107.2,101.8-184.8c0-97.5-64.1-180.2-152.3-208.4"/>
	<path class="st3" d="M381.4,364.2c47.8-31.3,79.5-85.3,79.5-146.6c0-77.4-50.5-143.2-120.3-166.3"/>
	<path class="st3" d="M359.9,326c34.5-23.7,57.3-63.5,57.3-108.4c0-57.3-36.9-106.2-88.2-124.1"/>
	<path class="st3" d="M337.9,288.1c21.6-16,35.6-41.6,35.6-70.5c0-37.3-23.4-69.2-56.2-81.8"/>
	<path id="XMLID_590_" class="st4" d="M9.6,262.7h270.8h-2.2c24,0,43.5-19.5,43.5-43.5s-19.5-43.5-43.5-43.5h2.2H35.9
		c-14.5,0-26.3,11.8-26.3,26.3V262.7z"/>
</g>
</svg>
