<?xml version="1.0" encoding="utf-8"?>
<!-- Generator: Adobe Illustrator 21.1.0, SVG Export Plug-In . SVG Version: 6.00 Build 0)  -->
<svg version="1.1" id="Warstwa_1" xmlns="http://www.w3.org/2000/svg" xmlns:xlink="http://www.w3.org/1999/xlink" x="0px" y="0px"
	 viewBox="0 0 486.7 437" style="enable-background:new 0 0 486.7 437;" xml:space="preserve">
<style type="text/css">
	.st0{fill:none;stroke:#000000;stroke-width:20.6576;stroke-linecap:round;stroke-miterlimit:10;}
	.st1{fill:#FFFFFF;}
	.st2{fill:none;stroke:#000000;stroke-width:18;stroke-linecap:round;stroke-miterlimit:10;}
	.st3{fill:none;stroke:#000000;stroke-width:17.0002;stroke-linecap:round;stroke-miterlimit:10;}
	.st4{fill:#FFFFFF;stroke:#000000;stroke-width:21;stroke-linecap:round;stroke-miterlimit:10;}
	.st5{fill:none;stroke:#000000;stroke-width:15;stroke-linejoin:round;stroke-miterlimit:10;}
	.st6{fill:none;stroke:#000000;stroke-width:15.2524;stroke-linejoin:round;stroke-miterlimit:10;}
	.st7{fill:#FFFFFF;stroke:#000000;stroke-width:18;stroke-linecap:round;stroke-miterlimit:10;}
</style>
<polygon id="XMLID_237_" class="st0" points="385.7,306 86.9,306 86.9,298.5 86.9,291.5 86.9,282.7 86.9,145 385.7,145 "/>
<g id="XMLID_241_">
	<rect x="114.6" y="174.6" class="st1" width="14.5" height="14.4"/>
	<polygon points="136.7,167.1 107.1,167.1 107.1,196.5 136.7,196.5 136.7,167.1 	"/>
</g>
<line id="XMLID_240_" class="st2" x1="9" y1="158.3" x2="82.2" y2="231.5"/>
<line id="XMLID_252_" class="st2" x1="54.2" y1="149.7" x2="83.2" y2="178.5"/>
<line id="XMLID_267_" class="st2" x1="31.2" y1="64.5" x2="110.2" y2="144"/>
<line id="XMLID_268_" class="st2" x1="82.4" y1="63.5" x2="159.9" y2="141.5"/>
<line id="XMLID_269_" class="st2" x1="156.2" y1="86.3" x2="207.4" y2="138"/>
<line id="XMLID_270_" class="st2" x1="144.7" y1="18.5" x2="210.8" y2="85"/>
<line id="XMLID_271_" class="st2" x1="189.9" y1="9" x2="239.7" y2="60.5"/>
<line id="XMLID_272_" class="st2" x1="237.7" y1="9.3" x2="285.9" y2="58"/>
<line id="XMLID_273_" class="st3" x1="304.3" y1="26.3" x2="343.9" y2="68.3"/>
<line id="XMLID_274_" class="st2" x1="44.6" y1="236.1" x2="85.9" y2="277.5"/>
<line id="XMLID_275_" class="st2" x1="53.7" y1="288.8" x2="85.9" y2="321.2"/>
<path id="XMLID_280_" class="st4" d="M209.2,237.8c0,12.8,12.4,25.7,25.1,25.7h92.2c12.7,0,20.6-13.1,20.6-25.9V84.9
	c0-12.8-8-21.4-20.6-21.4h-92.2c-12.7,0-25.1,8.7-25.1,21.5V237.8z"/>
<g id="XMLID_276_">
	<path d="M283.8,228c-5.3,0-9.6,4.3-9.6,9.6s4.3,9.6,9.6,9.6s9.6-4.3,9.6-9.6S289.1,228,283.8,228L283.8,228z"/>
</g>
<g id="XMLID_239_">
	<rect x="240.9" y="93.6" class="st1" width="14.5" height="14.4"/>
	<polygon points="262.9,86.1 233.4,86.1 233.4,115.5 262.9,115.5 262.9,86.1 	"/>
</g>
<polygon id="XMLID_277_" class="st5" points="86.2,311.8 175.2,399.3 174.8,429 86.2,339.7 "/>
<polyline id="XMLID_1_" class="st5" points="174.7,429.5 479.2,429.5 479.2,402.5 174.7,402.5 "/>
<line id="XMLID_3_" class="st6" x1="479.2" y1="402.5" x2="385.7" y2="306"/>
<g id="XMLID_2_">
	<polygon points="189.2,370.7 203.1,384.4 418.1,384.9 405.8,371.2 189.2,370.7 	"/>
</g>
<path id="XMLID_7_" class="st7" d="M420.7,229.6c0-8.7-7.1-15.6-15.6-15.6h-51.3c-8.5,0-15.1,6.9-15.1,15.6v109.3
	c0,8.7,6.6,16.1,15.1,16.1h51.3c8.5,0,15.6-7.2,15.6-15.9V229.6z"/>
<g id="XMLID_245_">
	<rect x="370.9" y="239.4" class="st1" width="14.5" height="14.4"/>
	<polygon points="392.9,231.9 363.4,231.9 363.4,261.3 392.9,261.3 392.9,231.9 	"/>
</g>
</svg>
