<?xml version="1.0" encoding="utf-8"?>
<!-- Generator: Adobe Illustrator 21.1.0, SVG Export Plug-In . SVG Version: 6.00 Build 0)  -->
<svg version="1.1" id="Warstwa_1" xmlns="http://www.w3.org/2000/svg" xmlns:xlink="http://www.w3.org/1999/xlink" x="0px" y="0px"
	 viewBox="0 0 397.2 509.8" style="enable-background:new 0 0 397.2 509.8;" xml:space="preserve">
<style type="text/css">
	.st0{fill:#FFFFFF;stroke:#000000;stroke-width:16;stroke-miterlimit:10;}
	.st1{fill:none;stroke:#1D1D1B;stroke-width:40.2903;stroke-linecap:round;stroke-miterlimit:10;}
	.st2{fill:none;stroke:#000000;stroke-width:16;stroke-miterlimit:10;}
	.st3{fill:none;stroke:#000000;stroke-width:12;stroke-miterlimit:10;}
	.st4{fill:#FFFFFF;}
	.st5{fill:#FFFFFF;stroke:#000000;stroke-width:27;stroke-miterlimit:10;}
	.st6{fill:#FFFFFF;stroke:#000000;stroke-width:18;stroke-miterlimit:10;}
	.st7{fill:#FFFFFF;stroke:#000000;stroke-width:19;stroke-miterlimit:10;}
	.st8{fill:none;stroke:#000000;stroke-width:19;stroke-miterlimit:10;}
</style>
<g id="XMLID_84_">
	<rect id="XMLID_48_" x="62.7" y="228" class="st0" width="84" height="151.7"/>
	<rect id="XMLID_49_" x="77.4" y="240.7" width="12.3" height="12.3"/>
	<rect id="XMLID_51_" x="98.2" y="240.7" width="12.3" height="12.3"/>
	<rect id="XMLID_52_" x="118.9" y="240.7" width="12.3" height="12.3"/>
	<rect id="XMLID_55_" x="77.4" y="261.5" width="12.3" height="12.3"/>
	<rect id="XMLID_54_" x="98.2" y="261.5" width="12.3" height="12.3"/>
	<rect id="XMLID_53_" x="118.9" y="261.5" width="12.3" height="12.3"/>
	<rect id="XMLID_58_" x="77.4" y="282.3" width="12.3" height="12.3"/>
	<rect id="XMLID_57_" x="98.2" y="282.3" width="12.3" height="12.3"/>
	<rect id="XMLID_56_" x="118.9" y="282.3" width="12.3" height="12.3"/>
	<rect id="XMLID_75_" x="77.4" y="303.1" width="12.3" height="12.3"/>
	<rect id="XMLID_74_" x="98.2" y="303.1" width="12.3" height="12.3"/>
	<rect id="XMLID_59_" x="118.9" y="303.1" width="12.3" height="12.3"/>
	<rect id="XMLID_78_" x="77.4" y="324" width="12.3" height="12.3"/>
	<rect id="XMLID_77_" x="98.2" y="324" width="12.3" height="12.3"/>
	<rect id="XMLID_76_" x="118.9" y="324" width="12.3" height="12.3"/>
	<rect id="XMLID_81_" x="77.4" y="345.1" width="12.3" height="12.3"/>
	<rect id="XMLID_82_" x="77.4" y="363.8" width="6.1" height="7.9"/>
	<rect id="XMLID_83_" x="98.2" y="363.8" width="33" height="7.9"/>
	<rect id="XMLID_80_" x="98.2" y="345.1" width="12.3" height="12.3"/>
	<rect id="XMLID_79_" x="118.9" y="345.1" width="12.3" height="12.3"/>
</g>
<path id="XMLID_61_" class="st1" d="M370,343.4"/>
<polyline id="XMLID_28_" class="st2" points="9,501.8 386,501.8 386,394.8 "/>
<line id="XMLID_30_" class="st3" x1="368" y1="394.8" x2="368" y2="501.8"/>
<line id="XMLID_31_" class="st3" x1="352" y1="394.8" x2="352" y2="501.8"/>
<line id="XMLID_32_" class="st3" x1="336" y1="394.8" x2="336" y2="501.8"/>
<g id="XMLID_86_">
	<line id="XMLID_73_" class="st3" x1="112.7" y1="90.2" x2="168.1" y2="90.2"/>
	<line id="XMLID_72_" class="st3" x1="117.4" y1="61.5" x2="169.9" y2="79.1"/>
	<line id="XMLID_71_" class="st3" x1="130.4" y1="36.5" x2="174.9" y2="69.5"/>
	<line id="XMLID_70_" class="st3" x1="150.6" y1="16.7" x2="182.5" y2="62"/>
	<line id="XMLID_69_" class="st3" x1="175.6" y1="4.2" x2="192.5" y2="57"/>
	<line id="XMLID_68_" class="st3" x1="203.1" y1="0" x2="203.1" y2="55.4"/>
	<line id="XMLID_67_" class="st3" x1="293.3" y1="90.2" x2="237.9" y2="90.2"/>
	<line id="XMLID_66_" class="st3" x1="288.6" y1="61.5" x2="236.1" y2="79.1"/>
	<line id="XMLID_64_" class="st3" x1="275.6" y1="36.5" x2="231.1" y2="69.5"/>
	<line id="XMLID_33_" class="st3" x1="255.4" y1="16.7" x2="223.5" y2="62"/>
	<line id="XMLID_29_" class="st3" x1="230.4" y1="4.2" x2="213.5" y2="57"/>
</g>
<g id="XMLID_62_">
	<path class="st4" d="M260.3,471c-61.2,0-110.9-49.8-110.9-110.9s49.8-110.9,110.9-110.9S371.2,299,371.2,360.1S321.5,471,260.3,471
		z"/>
	<path d="M260.3,275.2c46.8,0,84.9,38.1,84.9,84.9S307.1,445,260.3,445c-46.8,0-84.9-38.1-84.9-84.9S213.5,275.2,260.3,275.2
		 M260.3,223.2c-75.6,0-136.9,61.3-136.9,136.9S184.7,497,260.3,497c75.6,0,136.9-61.3,136.9-136.9S335.9,223.2,260.3,223.2
		L260.3,223.2z"/>
</g>
<circle id="XMLID_63_" class="st5" cx="260.3" cy="360.1" r="43"/>
<g id="XMLID_85_">
	<polygon id="XMLID_65_" class="st6" points="9,499.8 9,374.8 92.9,285.7 177,374.8 177,499.8 	"/>
	<g id="XMLID_5_">
		<rect x="39.3" y="380.1" width="24.6" height="24.6"/>
	</g>
	<g id="XMLID_8_">
		<rect x="80.7" y="380.1" width="24.6" height="24.6"/>
	</g>
	<g id="XMLID_12_">
		<rect x="122.1" y="380.1" width="24.6" height="24.6"/>
	</g>
	<g id="XMLID_24_">
		<rect x="39.3" y="422.5" width="24.6" height="24.6"/>
	</g>
	<g id="XMLID_20_">
		<rect x="80.7" y="422.5" width="24.6" height="24.6"/>
	</g>
	<g id="XMLID_17_">
		<rect x="122.1" y="422.5" width="24.6" height="24.6"/>
	</g>
	<rect id="XMLID_6_" x="80.7" y="459.8" width="66" height="32.7"/>
	<rect id="XMLID_27_" x="39.3" y="459.8" width="12.3" height="31.8"/>
</g>
<g id="XMLID_60_">
	<polygon id="XMLID_816_" class="st7" points="143.5,254.8 143.5,499.3 264.5,499.3 264.5,257.8 202.9,101.8 	"/>
	<polyline id="XMLID_698_" class="st8" points="146,246.3 183.3,246.3 261,246.3 	"/>
	<line id="XMLID_700_" class="st8" x1="183.5" y1="499.8" x2="183.5" y2="246.8"/>
	<line id="XMLID_701_" class="st8" x1="224.5" y1="246.8" x2="224.5" y2="498.8"/>
	<path id="XMLID_805_" d="M192.8,154.1c0,0,5.2,0,7.4-2.9s3.2-3.6,3-7.4c-0.2-3.8-0.2-15.9-0.2-15.9l13,32.9h-25.8L192.8,154.1z"/>
</g>
</svg>
