<?xml version="1.0" encoding="utf-8"?>
<!-- Generator: Adobe Illustrator 21.1.0, SVG Export Plug-In . SVG Version: 6.00 Build 0)  -->
<svg version="1.1" id="Warstwa_1" xmlns="http://www.w3.org/2000/svg" xmlns:xlink="http://www.w3.org/1999/xlink" x="0px" y="0px"
	 viewBox="0 0 403.1 410.3" style="enable-background:new 0 0 403.1 410.3;" xml:space="preserve">
<style type="text/css">
	.st0{fill:none;stroke:#000000;stroke-width:18;stroke-miterlimit:10;}
	.st1{fill:#FFFFFF;stroke:#000000;stroke-width:16;stroke-miterlimit:10;}
	.st2{fill:none;stroke:#000000;stroke-width:16;stroke-miterlimit:10;}
</style>
<g id="XMLID_286_">
	<path id="XMLID_285_" class="st0" d="M89.4,89.4c-22.1,0-40.1-17.9-40.1-40.1S67.3,9.2,89.4,9.2"/>
	<path id="XMLID_284_" class="st0" d="M347.5,89.2c25.7,0,46.5,20.8,46.5,46.5s-20.8,46.5-46.5,46.5"/>
	<path id="XMLID_283_" class="st0" d="M59.1,282.5C31.4,282.5,9,260.1,9,232.4s22.4-50.1,50.1-50.1"/>
	<path id="XMLID_282_" class="st0" d="M296.5,282.3c25.7,0,46.5,20.8,46.5,46.5s-20.8,46.5-46.5,46.5"/>
	<line id="XMLID_281_" class="st0" x1="89" y1="9.3" x2="231.8" y2="9"/>
	<line id="XMLID_279_" class="st0" x1="89.4" y1="89.4" x2="347.5" y2="89.2"/>
	<line id="XMLID_278_" class="st0" x1="347.5" y1="182.3" x2="58.8" y2="182.3"/>
	<line id="XMLID_236_" class="st0" x1="59.1" y1="282.5" x2="304.1" y2="282.5"/>
	<line id="XMLID_232_" class="st0" x1="296.5" y1="375.3" x2="165.7" y2="375.3"/>
</g>
<rect id="XMLID_227_" x="125.4" y="147.1" transform="matrix(0.7071 0.7071 -0.7071 0.7071 245.08 -70.1694)" class="st1" width="163.8" height="227.3"/>
<rect id="XMLID_226_" x="125.4" y="94.4" transform="matrix(0.7071 0.7071 -0.7071 0.7071 207.8391 -85.5951)" class="st1" width="163.8" height="227.3"/>
<rect id="XMLID_191_" x="125.4" y="37.2" transform="matrix(0.7071 0.7071 -0.7071 0.7071 167.3924 -102.3487)" class="st1" width="163.8" height="227.3"/>
<rect id="XMLID_225_" x="128.3" y="131.6" transform="matrix(0.7071 0.7071 -0.7071 0.7071 179.4459 -75.7446)" class="st1" width="105.6" height="94.3"/>
<line id="XMLID_228_" class="st2" x1="201.1" y1="82.7" x2="276.8" y2="158.3"/>
<line id="XMLID_230_" class="st2" x1="224.1" y1="59.7" x2="299.8" y2="135.3"/>
</svg>
