<?xml version="1.0" encoding="utf-8"?>
<!-- Generator: Adobe Illustrator 21.1.0, SVG Export Plug-In . SVG Version: 6.00 Build 0)  -->
<svg version="1.1" id="Warstwa_1" xmlns="http://www.w3.org/2000/svg" xmlns:xlink="http://www.w3.org/1999/xlink" x="0px" y="0px"
	 viewBox="0 0 413.2 483.1" style="enable-background:new 0 0 413.2 483.1;" xml:space="preserve">
<style type="text/css">
	.st0{fill:#FFFFFF;stroke:#000000;stroke-width:13;stroke-miterlimit:10;}
	.st1{fill:#FFFFFF;stroke:#000000;stroke-width:15;stroke-miterlimit:10;}
	.st2{fill:none;stroke:#000000;stroke-width:14;stroke-linecap:round;stroke-linejoin:round;stroke-miterlimit:10;}
	.st3{fill:#FFFFFF;stroke:#000000;stroke-width:14;stroke-miterlimit:10;}
</style>
<circle id="XMLID_554_" class="st0" cx="27" cy="241.1" r="20.5"/>
<circle id="XMLID_557_" class="st0" cx="27" cy="286.1" r="20.5"/>
<circle id="XMLID_558_" class="st0" cx="27" cy="334.1" r="20.5"/>
<path id="XMLID_644_" class="st1" d="M51,355.9c0,12.2,12,23.2,24.1,23.2H189c12.2,0,21-11.1,21-23.2V129.7c0-12.2-8.9-20.5-21-20.5
	H75.1c-12.2,0-24.1,8.6-24.1,20.8V355.9z"/>
<path id="XMLID_128_" class="st2" d="M274.6,278.7c0,13.8-11.3,25-25.2,25h-55"/>
<path id="XMLID_130_" class="st2" d="M314,278.3l-0.2,12.3c-0.4,29.4-25.4,53.3-55.8,52.8l-25-1"/>
<path id="XMLID_134_" class="st2" d="M353.1,278.9l0.4,25.9c-0.7,42.3-36.3,76.6-79.6,75.9l-35.6-1.5"/>
<circle id="XMLID_131_" cx="254.9" cy="192.1" r="7"/>
<path id="XMLID_534_" d="M241.9,173.1c0,3.9-3.1,7-7,7c-3.9,0-7-3.1-7-7s3.1-17.1,7-17.1C238.8,156,241.9,169.2,241.9,173.1z"/>
<path id="XMLID_555_" d="M280.9,173.1c0,3.9-3.1,7-7,7c-3.9,0-7-3.1-7-7s3.1-17.1,7-17.1C277.8,156,280.9,169.2,280.9,173.1z"/>
<path id="XMLID_553_" d="M320.9,173.1c0,3.9-3.1,7-7,7c-3.9,0-7-3.1-7-7s3.1-17.1,7-17.1C317.8,156,320.9,169.2,320.9,173.1z"/>
<circle id="XMLID_136_" cx="235.9" cy="212.1" r="7"/>
<circle id="XMLID_152_" cx="292.9" cy="192.1" r="7"/>
<circle id="XMLID_137_" cx="274.9" cy="212.1" r="7"/>
<circle id="XMLID_161_" cx="333.9" cy="192.1" r="7"/>
<circle id="XMLID_160_" cx="312.9" cy="212.1" r="7"/>
<circle id="XMLID_384_" cx="255.9" cy="232.1" r="7"/>
<circle id="XMLID_379_" cx="294.9" cy="232.1" r="7"/>
<circle id="XMLID_295_" cx="332.9" cy="232.1" r="7"/>
<circle id="XMLID_528_" cx="236.9" cy="253.1" r="7"/>
<circle id="XMLID_404_" cx="275.9" cy="253.1" r="7"/>
<circle id="XMLID_392_" cx="313.9" cy="253.1" r="7"/>
<circle id="XMLID_532_" cx="352.9" cy="253.1" r="7"/>
<circle id="XMLID_212_" cx="353.9" cy="212.1" r="7"/>
<path id="XMLID_533_" d="M215.9,183l-0.2,21.5c0,0-0.2-4,3.9-6.4c4.1-2.3,3.9-6.1,3.9-6.1s0.5-4-5.3-6.8c-0.9-0.4-2.3-1.7-2.3-3.3"
	/>
<path id="XMLID_653_" d="M74,333.1c0,7.2,5.6,13.1,12.8,13.1h87c7.2,0,13.2-6,13.2-13.2v-189c0-7.2-6-12.8-13.2-12.8h-87
	c-7.2,0-12.8,5.8-12.8,12.9V333.1z"/>
<path id="XMLID_552_" class="st3" d="M129,125c0-18.2,14.7-33.3,33-33.3h39.5v-34c0,0,4.2-42.2,47.4-48.8s60.5,4.8,83.8,36.8h40.7
	c0,0,32.7,2.3,32.7,37S386.5,122,372.5,122c0,0,1.3,34.9-32.7,34.9c-33.2,0-177.8,0.9-177.8,0.9C143.8,157.9,129,143.2,129,125"/>
<path id="XMLID_556_" class="st0" d="M24.1,372.9c0-19.2,20-18.7,20-18.7h18.4c0,0,15.7,2.6,15.7,18.7s-15.7,18.3-15.7,18.3H44.1
	c0,0-19.8,0.4-19.8-18.7"/>
<path id="XMLID_1_" class="st3" d="M179.4,429.7c0,0-49.9-38.4-5.8-88.2l-34-46.5c0,0-18.3-33.1,13.3-56.4L252.5,353
	c0,0,37.9,67.7-15.6,108c-28.6,21.6-57.7,16.3-78.6,6.8c-14.6-6.7-27.3-16.7-37.7-28.9l-42.2-50v-10.2h74"/>
</svg>
