<?xml version="1.0" encoding="utf-8"?>
<!-- Generator: Adobe Illustrator 21.1.0, SVG Export Plug-In . SVG Version: 6.00 Build 0)  -->
<svg version="1.1" id="Warstwa_1" xmlns="http://www.w3.org/2000/svg" xmlns:xlink="http://www.w3.org/1999/xlink" x="0px" y="0px"
	 viewBox="0 0 334.4 435.4" style="enable-background:new 0 0 334.4 435.4;" xml:space="preserve">
<style type="text/css">
	.st0{fill:none;stroke:#1D1D1B;stroke-width:22.4773;stroke-miterlimit:10;}
	.st1{fill:none;stroke:#1D1D1B;stroke-width:14.6058;stroke-miterlimit:10;}
	.st2{fill:none;stroke:#1D1D1B;stroke-width:17.9432;stroke-miterlimit:10;}
</style>
<path id="XMLID_437_" class="st0" d="M297.2,73.9c0,13.7,0,27.4,0,41.1c0,8.5-0.9,17.5,0,26c1.6,14.7,17.1-6.6,24.4,3.8
	c3,4.2,1,18.7,0.7,23.9c-0.8,14.9-5.1,29.8-8.4,44.3c-1.8,8.1-4.5,24.6-12,29.5l-8.5,91.5c-1.9,20.9-13.3,39.7-30.8,51.3l-32.4,21.3
	c-35.2,23.2-80.8,23.4-116.2,0.5l-34.8-22.5c-17.3-11.2-28.7-29.4-31.1-49.9l-10.4-87.6c-4.9-6.5-8.7-13.8-11.9-21.2
	c-7.6-17.4-11.7-29.1-13.7-47.3c-0.7-5.9-1.7-19.7,0.6-25.2c4.9-11.4,20.5,0.2,23.7-8.1c2.1-5.4,0-15.8,0-21.6c0-13.7,0-27.4,0-41.2
	c18.8,19.7,72.4,34.9,128.1,34.9s137.4-21,137.4-59c0-20.6-27.5-32.8-52.8-39.6c-23-6.2-46.9-8.6-70.8-7.5
	c-33.5,1.6-82.6,8.3-76.2,34.6c9.4,38.4,73.3,15.1,73.3,15.1v56.2"/>
<line id="XMLID_436_" class="st0" x1="102.1" y1="37.5" x2="102.1" y2="111.7"/>
<path id="XMLID_435_" class="st1" d="M218.9,221.3c0,0,11.1,3.2,20.6,0s12.7-8.7,12.7-8.7"/>
<path id="XMLID_434_" class="st1" d="M77.2,222.7c0,0,13.5,4.9,24.5,4.9s17.4-4.9,17.4-4.9"/>
<path id="XMLID_433_" class="st1" d="M109.2,329"/>
<path id="XMLID_432_" class="st1" d="M131.7,307.7c-4.6,15.9,6.1,20.4,15.6,20.3c3.3,8.3,11.7,15,20.8,15c12.6,0,15-9.6,23.9-14.7
	c4.1-2.3,7.8-0.3,11.9-4.3c5-4.9,6.2-13.9,2.7-19.9"/>
<path id="XMLID_431_" class="st1" d="M266.4,178.8c-18.3,15.8-35.7-0.2-55.1,4.4c-11.3,2.7-19.5,12.4-22.9,23.2
	c-6.1,19.4-1.9,42.7-0.4,62.6c1.5,19.7,3.5,39.5,4,59.3"/>
<path id="XMLID_430_" class="st1" d="M63.4,183.4c25.8,21.7,67.6-14.1,85,24.8c4.4,9.9,4.2,21.2,3.8,32c-0.8,24.4-4.1,63.4-4.9,87.8
	"/>
<path id="XMLID_429_" class="st1" d="M136.5,360.2c20-1.2,50.5,10.3,66.7-5.8"/>
<path id="XMLID_428_" class="st1" d="M147.2,382.7c3.2,0,45.8,0,45.8,0"/>
<path id="XMLID_427_" class="st2" d="M208.6,313.6c10.3-5.6,13,3.6,17.8,7.7s7.8,10.3,13.6,12.7c6.2,2.6,13.7-0.5,18.1-5.6
	c4.5-5.1,6.6-11.7,8.5-18.2c21.9-73.5,32.2-150.4,30.5-227"/>
<path id="XMLID_426_" class="st2" d="M130.6,317.2c-7.7-7.2-13.8,0-18.6,4.1c-4.8,4-7.8,10.3-13.6,12.7c-6.2,2.6-13.7-0.5-18.1-5.6
	c-4.5-5.1-6.6-11.7-8.5-18.2c-21.9-73.5-32.2-150.4-30.5-227"/>
</svg>
