<?xml version="1.0" encoding="utf-8"?>
<!-- Generator: Adobe Illustrator 21.1.0, SVG Export Plug-In . SVG Version: 6.00 Build 0)  -->
<svg version="1.1" id="Warstwa_1" xmlns="http://www.w3.org/2000/svg" xmlns:xlink="http://www.w3.org/1999/xlink" x="0px" y="0px"
	 viewBox="0 0 35 42.8" style="enable-background:new 0 0 35 42.8;" xml:space="preserve">
<style type="text/css">
	.st0{fill:none;stroke:#000000;stroke-width:2;stroke-miterlimit:10;}
	.st1{fill:none;stroke:#000000;stroke-width:1.5236;stroke-miterlimit:10;}
	.st2{fill:none;stroke:#000000;stroke-width:1.8708;stroke-miterlimit:10;}
</style>
<g>
	<g>
		<path class="st0" d="M10.9,11.5H9.4c-1.6,0-2.8,1.3-2.8,2.8v4.3h7.1v-4.3C13.7,12.8,12.4,11.5,10.9,11.5z"/>
		<path class="st0" d="M18,11.5h-1.5c-1.6,0-2.8,1.3-2.8,2.8v4.3h7.1v-4.3C20.8,12.8,19.6,11.5,18,11.5z"/>
		<path class="st0" d="M25.1,11.5h-1.5c-1.6,0-2.8,1.3-2.8,2.8v4.3H28v-4.3C28,12.8,26.7,11.5,25.1,11.5z"/>
	</g>
	<path class="st1" d="M11,10.8L11,10.8c0-2.8,2.2-5,5-5h3c2.8,0,5,2.2,5,5v0"/>
	<path class="st1" d="M17.5,0.8L17.5,0.8c-1.4,0-2.5,1.1-2.5,2.5v2.5h5V3.3C20,1.9,18.9,0.8,17.5,0.8z"/>
	<path class="st0" d="M34,41.8H1V26.1c0-4.1,3.3-7.3,7.3-7.3h18.3c4.1,0,7.3,3.3,7.3,7.3V41.8z"/>
	<path class="st2" d="M24,41.8H10v-16c0-3.9,3.1-7,7-7h0c3.9,0,7,3.1,7,7V41.8z"/>
	<rect x="1" y="29.8" class="st0" width="33" height="12"/>
	<rect x="3" y="31.8" width="4" height="4"/>
	<rect x="15" y="31.8" width="4" height="4"/>
	<rect x="1" y="37.8" width="33" height="4"/>
	<rect x="27" y="31.8" width="4" height="4"/>
</g>
</svg>
