<?xml version="1.0" encoding="utf-8"?>
<!-- Generator: Adobe Illustrator 21.1.0, SVG Export Plug-In . SVG Version: 6.00 Build 0)  -->
<svg version="1.1" id="Warstwa_1" xmlns="http://www.w3.org/2000/svg" xmlns:xlink="http://www.w3.org/1999/xlink" x="0px" y="0px"
	 viewBox="0 0 122 33.6" style="enable-background:new 0 0 122 33.6;" xml:space="preserve">
<style type="text/css">
	.st0{fill:#1D1E1C;}
	.st1{fill:none;}
</style>
<g id="XMLID_59_">
	<g id="XMLID_61_">
		<path id="XMLID_70_" class="st0" d="M47.7,12.8v10.7c0,6.1-2.6,10-8.2,10c-1.8,0-3.7-0.5-5.4-1.6l2.2-4.7c1,0.5,2,0.7,2.9,0.7
			c2-0.1,2.4-1.6,2.4-4.3V12.8H47.7z M40.1,4.9c0,6.1,9.3,6.1,9.3,0C49.4-1.2,40.1-1.2,40.1,4.9z"/>
		<path id="XMLID_66_" class="st0" d="M57.9,21.6c0.4,3,3,5.2,7.3,5.2c2.2,0,5.1-0.8,6.5-2.3l3.9,3.8c-2.6,2.7-6.8,4-10.5,4
			c-8.4,0-13.4-5.2-13.4-13c0-7.4,5-12.7,12.9-12.7c8.2,0,13.2,5,12.3,15.1H57.9z M71.1,16.6c-0.4-3.2-2.9-4.7-6.3-4.7
			c-3.3,0-5.9,1.6-6.8,4.7H71.1z"/>
		<path id="XMLID_64_" class="st0" d="M97.4,13.7c-1.7-1.6-3.7-2.2-6-2.2c-2.9,0-4.4,0.9-4.4,2.4c0,1.6,1.4,2.5,4.5,2.7
			c4.6,0.3,10.4,1.3,10.4,7.8c0,4.3-3.5,8-10.5,8c-3.9,0-7.7-0.6-11.3-4.3l3-4.3c1.7,1.9,5.7,3.4,8.4,3.4c2.3,0,4.4-1.1,4.4-2.9
			c0-1.7-1.4-2.4-4.8-2.6c-4.6-0.3-10.1-2-10.1-7.6c0-5.6,5.8-7.6,10.3-7.6c3.8,0,6.7,0.7,9.5,3.2L97.4,13.7z"/>
		<path id="XMLID_62_" class="st0" d="M114.3,0.9v6.9h6.7V13h-6.8v10.5c0,2.3,1.3,3.5,3.2,3.5c0.9,0,2-0.3,2.9-0.7l1.7,5.1
			c-1.7,0.7-3.2,1-5,1c-5.3,0.2-8.7-2.8-8.7-8.9V13h-4.5V7.9h4.5V1.6L114.3,0.9z"/>
	</g>
	<g>
		<path class="st1" d="M13,6.8V6.3h1v0.3c0.2-0.2,0.5-0.3,0.8-0.4c0,0,0.1,0.1,0.2,0.1c0,0,0,0,0,0c0,0.3,0.2,0.5,0.5,0.5
			c0.3,0,0.5-0.2,0.5-0.5h-1V5.7c-0.2,0.2-0.5,0.4-1,0.4c-0.6,0-0.9-0.2-1.1-0.4v0.6C12.9,6.5,12.9,6.6,13,6.8L13,6.8z"/>
		<polygon class="st1" points="15.5,9.5 15.8,9.3 15.3,9.3 		"/>
		<polygon class="st1" points="13.4,7.3 13.4,7.3 13.4,7.3 		"/>
		<path class="st1" d="M17,3.3h1V4l0.2,0c0-0.9-0.5-1.6-1.1-2.1c0,0.1,0,0.2-0.1,0.3H17V3.3z"/>
		<path class="st1" d="M25.2,7c0.4,0,0.7,0.2,0.9,0.4c0.3,0.3,0.4,0.6,0.4,0.9c0.3,0,0.7,0.2,0.9,0.4l0.7-2.3
			C28,6.5,27.7,6.3,27.4,6c-0.2-0.2-0.4-0.5-0.5-0.7l-2.2,0.7c0,0,0,0,0,0C25,6.3,25.2,6.7,25.2,7z"/>
		<path class="st1" d="M16,8.5V9l0.6-0.6V8.3c0-0.3-0.1-0.5-0.2-0.7C16.5,7.8,16.4,8.2,16,8.5z"/>
		<path class="st1" d="M16.1,6.1c0.3,0.1,0.6,0.2,0.9,0.4V6.3h1v0.4l0.2-0.2c0-0.1,0-0.1,0-0.2V5.7c-0.2,0.2-0.4,0.4-0.8,0.4
			c-0.6,0-1-0.1-1.4-0.4v0.4C16,6.2,16.1,6.1,16.1,6.1z"/>
		<path class="st1" d="M14.6,7.6c-0.1,0.2-0.2,0.4-0.2,0.7l0,0.1L15,9V8.4C14.6,8.2,14.6,7.7,14.6,7.6z"/>
		<path class="st1" d="M15,7.9C15,7.9,15,7.9,15,7.9l0-0.7h1V8c0.1,0,0.1,0,0.1,0V7.6h0.3c-0.2-0.3-0.5-0.4-0.9-0.4
			c-0.5,0-0.7,0.1-0.9,0.4H15V7.9z"/>
		<path class="st1" d="M15.3,3.3c-0.1,0-0.2,0-0.3-0.1v0.1H15.3z"/>
		<path class="st1" d="M14,2.3h0.1c0-0.1-0.1-0.2-0.1-0.3c-0.5,0.3-0.8,0.8-1,1.3h1V2.3z"/>
		<path class="st1" d="M28.4,5.5l0.3-0.7L28,5c0,0.1,0.1,0.2,0.2,0.3C28.3,5.4,28.4,5.4,28.4,5.5z"/>
		<path class="st1" d="M13,4V3.4c-0.1,0.2-0.1,0.4-0.1,0.6L13,4z"/>
		<path class="st1" d="M16,3.2c-0.1,0-0.1,0-0.2,0L16,3.2L16,3.2z"/>
		<path class="st1" d="M14,5.6c0.3,0,0.6-0.1,0.7-0.2c0.3-0.3,0.2-0.7,0.2-0.7l0-0.2l-0.8,0l-0.2,0.3h0.6L14,5.6
			C14,5.6,14,5.6,14,5.6z"/>
		<path class="st1" d="M13,4.5v0.3c0,0.2,0,0.3,0.1,0.5c0.1,0.2,0.3,0.2,0.5,0.3l0.3-0.5h-0.6l0.4-0.6L13,4.5z"/>
		<path class="st1" d="M15.6,4.7h-0.2c0,0,0,0.3-0.1,0.6h0.4C15.6,5.1,15.6,4.9,15.6,4.7z"/>
		<path class="st1" d="M17.3,5.6c0.6,0,0.6-0.7,0.6-0.7V4.5l-0.7,0l-0.2,0.3h0.6l-0.6,0.9C17.2,5.6,17.3,5.6,17.3,5.6z"/>
		<path class="st1" d="M16.1,4.5v0.2c0,0.6,0.1,0.8,0.6,0.9l0.3-0.5h-0.6l0.4-0.6L16.1,4.5z"/>
		<path class="st1" d="M13.9,21.8L13.9,21.8L13.9,21.8l-0.4-0.4L13.2,21l-0.6-0.6L12.2,20l-0.4-0.4l-0.5-0.5c0,0.3,0,0.6,0.2,0.8
			c0,0,0.1,0.1,0.1,0.1c0,0,0.1,0,0.1,0.1c0.1,0,0.1,0.1,0.2,0.1c0,0,0,0.1,0,0.1c0,0.1,0,0.2-0.1,0.3c0,0,0,0-0.1,0c0,0,0,0-0.1,0
			c0,0,0,0,0,0c-0.1,0-0.1,0-0.2,0l0,0c0,0.2,0,0.5,0,0.7c0,0.1,0,0.1,0,0.2c0,0.4,0,0.7,0,1.1c0,0.1,0,0.2,0,0.3c0,0.2,0,0.3,0,0.5
			c0,0.1,0,0.3,0,0.4c0,0,0,0,0,0c0.1-0.1,0.3-0.1,0.4,0c0.1,0,0.1,0.1,0.1,0.3c0,0,0,0.1,0,0.1c-0.1,0.1-0.2,0.2-0.4,0.3
			c0,0-0.1,0.1-0.1,0.1c0,0.1,0,0.2-0.1,0.3c0,0,0,0,0,0c0,0,0,0.1,0,0.1c0,0,0,0.1,0,0.1c0,0.1,0,0.2,0.1,0.3c0,0,0,0,0,0
			c0.1,0.2,0.1,0.3,0.2,0.4c0.1,0.1,0.3,0.2,0.4,0.3c0.1,0,0.2,0.1,0.4,0.1c0.1,0,0.2,0,0.4-0.1c0.4-0.1,0.7-0.5,0.7-1
			c0-0.1,0-0.2,0-0.4c0,0,0,0,0,0c0,0,0-0.1,0-0.2c0,0,0-0.1,0-0.1c0-0.1-0.2-0.1-0.3-0.2c0,0,0,0,0,0c-0.1,0-0.1-0.1-0.1-0.2
			c0-0.2,0.1-0.3,0.2-0.3c0.1,0,0.1,0,0.2,0c0,0,0.1,0,0.1,0h0c0-0.2,0.1-0.4,0.1-0.7C13.9,22.7,13.9,22.3,13.9,21.8L13.9,21.8
			L13.9,21.8z"/>
		<path class="st1" d="M18.3,31.8c-0.2,0.1-0.2,0.5,0,0.5C18.7,32.3,18.7,31.7,18.3,31.8z"/>
		<path class="st1" d="M17.3,26c0.3,0.3,0.8,0.4,1.2,0.3L17,24.9c0,0,0,0,0,0c0,0,0,0.1,0,0.1c0,0.1,0,0.1,0,0.2
			c0,0.1,0,0.2,0.1,0.4C17.1,25.7,17.2,25.9,17.3,26z"/>
		<path class="st1" d="M13.3,26.7c-0.4,0.2-1.1,0.2-1.5,0c-0.1-0.1-0.2-0.1-0.3-0.2c0,0,0,0,0,0c0,0,0,0,0,0c0,0,0,0,0,0
			c0,0.2,0,0.3,0,0.5c0,0.8,0,1.7,0,2.5c0,0,0,0.1,0,0.1c0,0.3,0,0.6,0,0.9c0,0.2,0.1,0.3,0.1,0.4c0.2,0.3,0.5,0.4,0.9,0.4
			c0.1,0,0.2,0,0.3,0c0,0,0,0,0,0c0-0.2,0-0.4-0.1-0.5c0,0,0-0.1-0.1-0.1c0,0-0.1,0-0.1,0v0c0-0.5,0-0.9,0-1.4
			c0.1-0.3,0.3-0.6,0.4-0.9c0-0.1,0.1-0.2,0.1-0.3c0,0,0,0,0-0.1c0.1-0.1,0.1-0.2,0.1-0.3C13.3,27.4,13.2,27.1,13.3,26.7L13.3,26.7z
			"/>
		<path class="st1" d="M19,29.5c0-0.7,0-1.6,0-2.4c0-0.1,0-0.2,0-0.3l-0.2-0.2l0,0c-0.2,0.1-0.4,0.1-0.6,0.2c-0.3,0-0.6,0-0.8-0.1
			l0,0c0,0.4-0.1,0.7,0,1c0,0,0,0.1,0,0.2c0,0.1,0.1,0.2,0.1,0.2c0.1,0.2,0.1,0.3,0.2,0.5c0.1,0.2,0.2,0.4,0.3,0.6
			c0,0.1,0,0.2,0,0.3c0,0.3,0,0.7,0,1.1l0,0c-0.1,0-0.2,0.2-0.2,0.4c0,0,0,0.1,0,0.1c0,0,0,0.1,0.1,0.1c0,0,0.1,0.1,0.1,0.1
			c0.1,0,0.3,0,0.5-0.1c0,0,0.1,0,0.1,0c0.2-0.1,0.3-0.3,0.3-0.4C19,30.5,19,30,19,29.5z"/>
		<path class="st1" d="M17.3,31.5c-0.4,0.1-0.4,0.8,0,0.8C17.8,32.5,17.8,31.4,17.3,31.5z"/>
		<path class="st1" d="M13.3,31.9c0,0.6,0.9,0.6,0.8,0c0-0.2-0.2-0.4-0.4-0.4C13.4,31.5,13.3,31.7,13.3,31.9z"/>
		<path class="st1" d="M22.5,22.1L22,21.6L21.4,21l-0.1-0.1l-0.1-0.1L20.4,20L19.4,19l0,0l-0.6-0.6l-0.1-0.1l-0.6-0.6l0,0l0,0
			l-0.4-0.4l-0.4-0.4l-0.6-0.6l-0.4-0.4l-0.4-0.4l-0.6-0.6l-0.4-0.4l-2.3-2.3l0,0l-2.4-2.4l0,0L9.2,8.8L8.7,8.4L7.1,6.8h0
			C7.1,6.7,7,6.7,6.8,6.7c-0.1,0-0.2,0-0.3,0.1c-0.2,0.2-0.2,0.5,0,0.6l0,0l0,0l0,0L6.2,7.8l0.4-0.4l1.7,1.7l0.5,0.5l1.1,1.1l0,0
			l4.2,4.2l0.7,0.7l0,0l1,1l0.4,0.4l0.6,0.6l0.4,0.4l0.3,0.3l0,0l0.1,0.1l0,0l0,0l0.6,0.6l0.7,0.7l0,0l0.3,0.3l1.8,1.8l1,1l6.4,6.4
			l0.6-0.6L22.5,22.1z"/>
		<path class="st1" d="M19.6,31.5c-0.1,0-0.1,0.3,0,0.3C19.8,31.8,19.8,31.4,19.6,31.5z"/>
		<path class="st1" d="M19,31.7c-0.2,0.1-0.2,0.4,0,0.4C19.3,32.1,19.3,31.6,19,31.7z"/>
		<path class="st1" d="M19.1,21.4l-1-1L5.8,8.1l0,0l0,0c0,0,0,0,0,0C5.7,8.1,5.6,8,5.5,8c-0.1,0-0.2,0-0.3,0.1C5,8.3,5,8.6,5.2,8.8
			l0,0L4.8,9.1c0,0,0,0,0,0l0.4-0.4c0,0,0,0,0,0L4.8,9.1L4.4,9.5C4.3,9.4,4.2,9.4,4.1,9.4c-0.1,0-0.2,0-0.3,0.1
			c-0.2,0.2-0.2,0.4,0,0.6c0,0,0,0,0,0l0,0l0,0l0,0l3.1,3.1l0.6,0.6L9,15.3l0,0l0.9,0.9l0.3,0.3l0,0l0.8,0.8l0.3,0.3l0.4,0.4
			l0.1,0.1l0,0l0.2,0.2l0.6,0.6l0.4,0.4l0.4,0.4l0.2,0.2l0.4,0.4l0.2,0.2l0.2,0.2l0.4,0.4l0,0l0,0l0.1,0.1l0.2,0.2l0.1,0.1l0.3,0.3
			l0.1,0.1l0.2,0.2l0.1,0.1l0.3,0.3l1,1l0,0l2.1,2.1l0,0l1.3,1.3l0.7,0.7l4.6,4.6l0.6-0.6l-5.2-5.2l-0.7-0.7l-1.7-1.7l0,0L16.9,22h0
			l-0.2-0.2l0,0l-0.4-0.4l-0.6-0.6l-0.4-0.4l-0.7-0.7l-0.1-0.1L14,19.1l0,0l-0.4-0.4l-0.4-0.4l-0.6-0.6l0,0l-0.4-0.4l-0.4-0.4
			l-0.5-0.5L10.9,16l-0.7-0.7l0,0L9.9,15L9,14.1l0,0l-1.4-1.4L7,12.1L4.4,9.5l0,0l0.4-0.4l0.4-0.4L7.3,11l0.5,0.5l1.2,1.2l1,1
			l0.1,0.1l0,0l0.5,0.5l0.9,0.9l0,0l1,1l0,0l0.4,0.4l0,0l0.4,0.4l0,0l0.6,0.6l0.4,0.4l0.3,0.3l0.1,0.1l0.6,0.6l0.4,0.4l0.4,0.4l0,0
			l0.3,0.3l0.3,0.3l0,0l0.1,0.1l0.2,0.2l0,0l0.4,0.4l0,0l1.7,1.7l0,0l1.4,1.4l0.7,0.7l5.9,5.9l0.6-0.6L19.1,21.4L19.1,21.4z"/>
		<path class="st1" d="M4.4,7.4C4.7,7.1,5,7,5.4,7c0-0.3,0.2-0.7,0.4-0.9L3.5,5.3C3.4,5.6,3.3,5.8,3,6.1C2.7,6.4,2.5,6.5,2.3,6.6
			L3,8.8c0,0,0,0,0,0c0.3-0.3,0.6-0.4,1-0.4C4,8,4.2,7.7,4.4,7.4z"/>
		<path class="st1" d="M1.7,4.8l0.2,0.6l0,0.1l0,0c0.1,0,0.2-0.1,0.3-0.2c0.1-0.1,0.2-0.2,0.2-0.2L1.7,4.8z"/>
		<path class="st1" d="M11.8,31.6c-0.1,0-0.2,0.1-0.2,0.2c0,0.3,0.4,0.3,0.4,0.1C12.1,31.7,11.9,31.6,11.8,31.6z"/>
		<path class="st1" d="M10,19.8c0,0-0.4,0.2-0.2,0.3c0.2,0.1-0.2,0.2-0.2,0.2s-0.3,0.1-0.3,0c0,0,0,0,0,0c0,0,0-0.1,0-0.1
			c0.2-0.3,0.2-0.8,0.3-0.7c0.1,0.1,0.2,0.1,0.2,0.1c0.1,0,0.1-0.1,0.2-0.2c0.1-0.1,0-0.2-0.2-0.3c0,0-0.1-0.1-0.1-0.1
			c-0.1-0.1-0.2-0.2-0.2-0.3c0-0.1,0-0.1-0.1-0.2h0c0-0.1,0-0.5,0-1l-0.1-0.1l-0.2-0.2L9,16.8c0,0.4,0,0.8,0,1.1c0,0,0,0,0,0
			c-0.1,0.5-0.2,1.1-0.3,1.3c-0.2,0.3-0.1,0.5,0.1,0.8c0,0.1,0.1,0.1,0.1,0.2C8.9,20.3,9,20.4,9,20.5c0.1,0.1,0.1,0.2,0.1,0.2
			c0.1,0.1,0.1,0.2,0.1,0.3c0,0,0,0,0,0s0.1,0,0.1,0c0.1,0,0.3-0.1,0.5-0.4l0.4-0.5L10.3,20L10,19.8z"/>
		<path class="st1" d="M11.1,31.4c-0.2,0.1-0.1,0.3,0.1,0.3C11.4,31.7,11.3,31.4,11.1,31.4z"/>
		<path class="st1" d="M15.3,13.4L15.3,13.4l0.4,0.4l0,0l0.4,0.4l0.6,0.6l0.4,0.4l0.4,0.4l0.6,0.6l0.4,0.4l0.4,0.4l0.4,0.4
			c0.1-0.3,0.1-0.6,0.1-0.9c0-0.2,0-0.4-0.1-0.6c-0.1-0.2-0.1-0.3-0.3-0.5c0,0,0,0,0,0c-0.1-0.1-0.2-0.1-0.2-0.2c0,0,0-0.1-0.1-0.1
			c0-0.1,0-0.2,0.1-0.3c0,0,0,0,0,0c0,0,0.1-0.1,0.1-0.1c0,0,0,0,0.1,0c0,0,0,0,0,0c0,0,0,0,0,0c0,0,0,0,0,0c0,0,0.1,0,0.1,0
			c0-0.3,0-0.5,0-0.8c0-0.1,0-0.1,0-0.2h0c0.1,0,0.1,0,0.2,0c0.1,0,0.2,0,0.4,0c0.3,0,0.6,0,0.9,0c0,0,0,0,0,0v0c0,0.1,0,0.3,0,0.4
			c0,0,0,0,0,0c0,0.1,0,0.2,0,0.3c0,0.2,0,0.5,0,0.7c0,0.4,0,0.8,0.1,1.2c0,0,0,0,0,0c0,0.1,0,0.1,0,0.2c0,0.1,0.1,0.3,0.1,0.4
			c0,0,0,0,0,0c0,0.2,0.1,0.4,0.1,0.6c0,0,0,0,0,0c0,0.4,0.1,0.7,0.1,0.9c0,0.1,0,0.2,0,0.2c0,0,0,0-0.1,0.1c0,0,0,0-0.1,0l0,0
			c0,0.1-0.1,0.1-0.1,0.2l0.6,0.6l0.5,0.5c0.2-0.3,0.3-0.5,0.1-0.8c-0.1-0.1-0.2-0.5-0.3-0.8l0,0c0-0.2,0-0.4,0-0.6c0,0,0-0.1,0-0.1
			c0-0.3,0-0.6,0-1c0,0,0,0,0,0c0-0.2,0-0.5,0-0.7c0,0,0,0,0,0c0-0.2,0-0.5,0-0.7c0,0,0,0,0,0c0-0.1,0-0.2,0-0.3c0-0.3,0-0.7,0-1
			c0-0.3,0-0.5,0-0.7c0,0,0,0,0,0c0-0.2,0-0.4-0.1-0.6c-0.1-0.3-0.1-0.6-0.2-0.9c0-0.1,0-0.1-0.1-0.2c0-0.1-0.1-0.2-0.1-0.3
			c0-0.1-0.1-0.2-0.1-0.3c-0.1-0.2-0.2-0.3-0.2-0.5c-0.1-0.3-0.3-0.5-0.5-0.7l0,0c-0.1-0.1-0.2-0.2-0.2-0.3c0,0-0.1-0.1-0.1-0.1l0,0
			c0,0,0,0,0,0C20,9.2,19.9,9.1,19.8,9l0,0c-0.2-0.2-0.5-0.4-0.8-0.6c0-0.1,0-0.2,0.1-0.3c-0.1,0.2-0.3,0.3-0.4,0.4l-3.1,3.1
			l-3.1-3.1c-0.1-0.1-0.2-0.2-0.3-0.3c-0.1,0-0.1,0.1-0.2,0.1c-0.2,0.1-0.4,0.3-0.6,0.5C11.2,8.9,11,9,10.9,9.1h0L15.3,13.4z
			 M17.5,12.1C17.5,12.1,17.5,12.1,17.5,12.1C17.5,12.1,17.6,12.1,17.5,12.1C17.6,12.1,17.6,12,17.5,12.1c0.1-0.1,0.1-0.1,0.2-0.1
			c0.1,0,0.2,0,0.2,0c0.1,0,0.1,0.1,0.2,0.1l0,0c0,0.1,0.1,0.2,0,0.3c0,0.1-0.2,0.3-0.5,0.2c0,0,0,0-0.1,0l0,0c0,0-0.1-0.1-0.1-0.1
			C17.4,12.4,17.4,12.2,17.5,12.1z"/>
		<path class="st1" d="M12.5,31.8c-0.3,0.1-0.3,0.5,0,0.5C12.9,32.3,12.9,31.7,12.5,31.8z"/>
		<path class="st0" d="M21.6,7.9L21.6,7.9C21.8,8,21.9,8.1,22,8.3l0,0l1.4-1.4l0,0l0,0l0,0c0,0,0,0,0,0c0.2-0.2,0.4-0.2,0.6,0
			c0.1,0.1,0.1,0.2,0.1,0.3c0,0.1,0,0.2-0.1,0.3l0,0l0,0l0,0l0,0L22.5,9c0.1,0.2,0.2,0.3,0.3,0.5C22.9,9.6,23,9.8,23,9.9l1.7-1.7
			l0,0c0,0,0,0,0,0C25,8,25.3,8,25.4,8.2c0.1,0.1,0.1,0.2,0.1,0.3c0,0.1,0,0.2-0.1,0.3l0,0l0,0l0,0l-2,2c0.1,0.2,0.1,0.4,0.2,0.6
			c0.1,0.2,0.1,0.4,0.1,0.6l2.5-2.5l0,0l0,0c0.2-0.2,0.5-0.2,0.6,0c0.1,0.1,0.1,0.2,0.1,0.3c0,0.1,0,0.2-0.1,0.3l0,0l0,0l-2.9,2.9
			c0,0,0,0,0,0c0,0.2,0,0.5,0,0.7c0,0,0,0,0,0c0,0.2,0,0.5,0,0.7c0,0,0,0,0,0l4.2-4.2l0.1-0.1l1.9-6.3l0.4-1l-0.1,0l0,0l-7.1,2.4
			l-2,2l0,0C21.4,7.6,21.5,7.7,21.6,7.9z M28.7,4.7l-0.3,0.7c-0.1,0-0.2-0.1-0.2-0.2C28.1,5.2,28,5.1,28,5L28.7,4.7z M27,5.3
			c0.1,0.2,0.2,0.4,0.5,0.7c0.3,0.3,0.6,0.5,0.8,0.5l-0.7,2.3c-0.3-0.2-0.6-0.4-0.9-0.4c0-0.4-0.2-0.7-0.4-0.9
			c-0.3-0.3-0.6-0.4-0.9-0.4c0-0.4-0.2-0.7-0.4-1c0,0,0,0,0,0L27,5.3z"/>
		<path class="st0" d="M9.3,22.8c-0.2,0-0.4,0-0.6-0.1l-6.6,6.6l-0.6-0.6l6.6-6.6c0,0,0,0,0,0C8,22,7.9,21.9,7.7,21.8
			c-0.1-0.1-0.2-0.2-0.4-0.4L0,28.7l4.9,4.9l4.5-4.5c0-0.2,0-0.5,0-0.7c0-0.3,0-0.5,0-0.8l-4.5,4.5l-0.6-0.6l5.2-5.2
			c0-0.1,0-0.2,0-0.3c0-0.1,0-0.3,0-0.4c0-0.2,0-0.5,0-0.7l-5.9,5.9l-0.6-0.6l6.6-6.6c0-0.2,0-0.5,0-0.7H9.3L9.3,22.8z"/>
		<path class="st0" d="M17.6,12.6L17.6,12.6C17.6,12.6,17.7,12.6,17.6,12.6c0.3,0.1,0.5-0.1,0.5-0.2c0-0.1,0-0.2,0-0.3l0,0
			c0-0.1-0.1-0.1-0.2-0.1c-0.1,0-0.1,0-0.2,0c-0.1,0-0.1,0-0.2,0.1c0,0,0,0,0,0c0,0,0,0,0,0c0,0,0,0,0,0c-0.1,0.1-0.1,0.3,0,0.4
			C17.5,12.6,17.6,12.6,17.6,12.6z"/>
		<path class="st0" d="M23.2,21.4l-0.5-0.5c0.5-0.8,0.4-2,0.4-2.9c0-0.8,0-1.6,0-2.5c0-0.1,0-0.2,0-0.2c0,0,0,0,0,0
			c0-0.2,0-0.5,0-0.7c0,0,0,0,0,0c0-0.2,0-0.5,0-0.7c0,0,0,0,0,0c0-0.2,0-0.5,0-0.7c0-0.1,0-0.3,0-0.4c0-0.2-0.1-0.4-0.1-0.6
			c0-0.2-0.1-0.4-0.1-0.6c-0.1-0.3-0.2-0.6-0.3-0.9c-0.1-0.2-0.2-0.3-0.2-0.5c-0.1-0.2-0.2-0.3-0.3-0.5c0-0.1-0.1-0.1-0.1-0.2
			c-0.1-0.2-0.3-0.4-0.4-0.5c0,0,0,0,0,0c-0.1-0.1-0.2-0.3-0.3-0.4l0,0C21,8.2,20.9,8.1,20.8,8l0,0c-0.4-0.4-0.8-0.7-1.2-1
			c0,0,0,0,0,0c0.1-0.2,0.1-0.5,0.1-0.8V4.1c0-2.3-1.8-4.1-4.1-4.1c-2.3,0-4.1,1.8-4.1,4.1v2.2c0,0,0,0.1,0,0.1c0,0,0,0,0,0
			c0,0,0,0,0,0c0,0.1,0,0.3,0,0.4C10.9,7.2,10.4,7.6,9.9,8L9.4,7.6L7.4,5.5L7.3,5.4L1,3.5L0,3.1l0,0.1l0,0l2.4,7.1L3,10.9
			c0,0,0,0,0,0l0,0l0,0l0,0l3.8,3.8l0.6,0.6c0,1.3,0,2.7-0.1,4v0.4c0,0.4,0.1,0.8,0.4,1.1c0,0,0.1,0.1,0.1,0.1
			c0.1,0.1,0.2,0.2,0.3,0.3c0.1,0.1,0.3,0.2,0.4,0.3c0.3,0.2,0.7,0.2,1.1,0.2c0.1,0,0.3-0.1,0.4-0.1c0,0.1,0,0.3,0.1,0.4
			c0,0.2,0,0.5,0,0.7c0,0.4-0.1,0.7-0.1,1c0,0.1,0,0.2,0,0.3c0,0.3,0,0.5,0,0.8c0,0.3,0,0.5,0,0.8c0,0.1,0,0.3,0,0.4
			c0,0.3,0,0.6,0,0.9c0,0.3,0,0.5,0,0.8c0,0.2,0,0.5,0,0.7c0,0.7,0,1.3,0,2c0,0.6,0.2,1,0.4,1.3c0.4,0.6,1.1,1,2.1,1
			c0.1,0,0.3,0,0.4,0c0.1,0,0.2,0.1,0.3,0.2c0.8,0.3,1.4-0.4,1.3-1.1c0-0.2-0.2-0.5-0.3-0.6c0,0-0.1-0.1-0.1-0.1c0-0.1,0-0.3,0-0.4
			c-0.1-0.3-0.2-0.6-0.3-0.9c0.1,0,0.1-0.1,0.1-0.2c0.2-0.4,0.3-0.7,0.5-1.1c0.1-0.2,0.2-0.3,0.2-0.5c0-0.1,0-0.3,0-0.5
			c0-0.5,0-0.9,0-1.4c0.3-0.4,0.4-1,0.4-1.6c0-0.4,0.1-0.9,0.2-1.3c0,0,0,0,0,0l0,0l0.3,0.3c0,0,0,0.1,0,0.1c0,0.3,0.1,0.6,0.1,0.9
			c0,0.5,0,0.9,0.2,1.3c0,0.1,0.1,0.2,0.2,0.3c0,0.1,0,0.3,0,0.5v1c0,0.2,0,0.3,0,0.5c0,0.1,0.1,0.3,0.2,0.4
			c0.1,0.4,0.3,0.7,0.4,1.1c0.1,0.1,0.1,0.3,0.2,0.2c-0.3,0.4-0.4,0.8-0.4,1.4c0,0.1,0,0.3,0,0.4c0,0.1-0.1,0.2-0.1,0.3
			c0,0.4,0.1,0.6,0.4,0.8c0.2,0.2,0.5,0.3,0.9,0.2c0.1,0,0.2-0.1,0.3-0.2c0.2,0,0.3,0,0.4,0c1.1-0.1,1.8-0.9,2-1.8
			c0-0.2,0-0.5,0-0.8c0-0.6,0-1.2,0-1.9l0.7,0.7l4.6,4.6l4.9-4.9L23.2,21.4z M13,3.3L13,3.3c0.2-0.5,0.6-1,1-1.3
			c0,0.1,0.1,0.2,0.1,0.3H15v0.9c0.1,0,0.2,0.1,0.3,0.1h0.5c0.1,0,0.1,0,0.2,0v-1h0.9C17,2.2,17,2,17,1.9c0.7,0.5,1.1,1.2,1.1,2.1
			L18,4v0.3h-5V4l-0.1,0C12.9,3.8,12.9,3.6,13,3.3L13,3.3z M17.1,4.8l0.2-0.3l0.7,0v0.4c0,0-0.1,0.7-0.6,0.7c-0.1,0-0.2,0-0.2,0
			l0.6-0.9H17.1z M17.1,5.1l-0.3,0.5c-0.5-0.1-0.6-0.3-0.6-0.9V4.5l0.8,0l-0.4,0.6H17.1z M13.9,4.8l0.2-0.3l0.8,0l0,0.2
			c0,0,0,0.4-0.2,0.7c-0.1,0.2-0.4,0.2-0.7,0.2c0,0,0,0,0,0l0.6-0.8H13.9z M13.9,5.1l-0.3,0.5c-0.2-0.1-0.4-0.2-0.5-0.3
			C13,5.1,13,5,13,4.8V4.5l0.8,0l-0.4,0.6H13.9z M12.9,5.7c0.2,0.2,0.6,0.4,1.1,0.4c0.5,0,0.8-0.2,1-0.4V5.3h0.3
			c0.1-0.3,0.1-0.6,0.1-0.6h0.2c0,0.2,0,0.4,0.1,0.6H16v0.5c0.3,0.3,0.8,0.4,1.4,0.4c0.4,0,0.7-0.2,0.8-0.4v0.6c0,0.1,0,0.1,0,0.2
			L18,6.7v0.6h-1V6.5c-0.2-0.2-0.5-0.3-0.9-0.4c0,0-0.1,0.1-0.1,0.1v0.1h0c0,0.3-0.2,0.5-0.5,0.5c-0.3,0-0.5-0.2-0.5-0.5
			c0,0,0,0,0,0c-0.1,0-0.1,0-0.2-0.1c-0.3,0.1-0.6,0.2-0.8,0.4v0.7h-0.5l0,0l0,0H13V6.8l0,0c0-0.1-0.1-0.3-0.1-0.5V5.7z M14.4,8.4
			l0-0.1c0-0.3,0.1-0.5,0.2-0.7c0,0,0,0,0,0h0c0.2-0.3,0.5-0.4,0.9-0.4c0.5,0,0.8,0.1,0.9,0.4h0c0,0,0,0,0,0
			c0.1,0.2,0.2,0.4,0.2,0.7v0.1L16,9v0.2h-0.2l-0.2,0.2l-0.2-0.2H15V9L14.4,8.4z M11.3,8.8c0.2-0.2,0.4-0.3,0.6-0.5
			c0.1,0,0.1-0.1,0.2-0.1c0.1,0.1,0.2,0.2,0.3,0.3l3.1,3.1l3.1-3.1c0.2-0.1,0.3-0.3,0.4-0.4c0,0.1,0,0.2-0.1,0.3
			c0.3,0.2,0.5,0.4,0.8,0.6l0,0c0.1,0.1,0.2,0.2,0.4,0.4c0,0,0,0,0,0l0,0c0,0,0.1,0.1,0.1,0.1c0.1,0.1,0.2,0.2,0.2,0.3l0,0
			c0.2,0.2,0.3,0.5,0.5,0.7c0.1,0.2,0.2,0.3,0.2,0.5c0,0.1,0.1,0.2,0.1,0.3c0,0.1,0.1,0.2,0.1,0.3c0,0.1,0,0.1,0.1,0.2
			c0.1,0.3,0.1,0.6,0.2,0.9c0,0.2,0.1,0.4,0.1,0.6c0,0,0,0,0,0c0,0.2,0,0.5,0,0.7c0,0.3,0,0.6,0,1c0,0.1,0,0.2,0,0.3c0,0,0,0,0,0
			c0,0.2,0,0.5,0,0.7c0,0,0,0,0,0c0,0.2,0,0.5,0,0.7c0,0,0,0,0,0c0,0.3,0,0.6,0,1c0,0,0,0.1,0,0.1c0,0.2,0,0.4,0,0.6l0,0
			c0.1,0.4,0.2,0.7,0.3,0.8c0.2,0.3,0.1,0.5-0.1,0.8l-0.5-0.5l-0.6-0.6c0-0.1,0.1-0.1,0.1-0.2l0,0c0,0,0,0,0.1,0c0,0,0,0,0.1-0.1
			c0,0,0-0.1,0-0.2c0-0.2,0-0.5-0.1-0.9c0,0,0,0,0,0c0-0.2,0-0.4-0.1-0.6c0,0,0,0,0,0c0-0.1-0.1-0.3-0.1-0.4c0-0.1,0-0.1,0-0.2
			c0,0,0,0,0,0c-0.1-0.3-0.1-0.8-0.1-1.2c0-0.3,0-0.5,0-0.7c0-0.1,0-0.2,0-0.3c0,0,0,0,0,0c0-0.1,0-0.3,0-0.4v0c0,0,0,0,0,0
			c-0.3,0-0.6,0-0.9,0c-0.1,0-0.2,0-0.4,0c-0.1,0-0.1,0-0.2,0h0c0,0.1,0,0.1,0,0.2c0,0.3,0,0.5,0,0.8c0,0,0,0-0.1,0c0,0,0,0,0,0
			c0,0,0,0,0,0c0,0,0,0,0,0c0,0,0,0-0.1,0c-0.1,0-0.1,0-0.1,0.1c0,0,0,0,0,0c-0.1,0.1-0.1,0.2-0.1,0.3c0,0,0,0.1,0.1,0.1
			c0.1,0.1,0.1,0.1,0.2,0.2c0,0,0,0,0,0c0.1,0.1,0.2,0.3,0.3,0.5c0.1,0.2,0.1,0.4,0.1,0.6c0,0.3,0,0.6-0.1,0.9l-0.4-0.4l-0.4-0.4
			l-0.4-0.4l-0.6-0.6L17,15.2l-0.4-0.4l-0.6-0.6l-0.4-0.4l0,0l-0.4-0.4l0,0l-4.4-4.4h0C11,9,11.2,8.9,11.3,8.8z M2,5.6L2,5.6l0-0.1
			L1.7,4.8l0.7,0.3c0,0.1-0.1,0.2-0.2,0.2C2.1,5.5,2,5.6,2,5.6z M3,8.8C3,8.8,3,8.8,3,8.8L2.3,6.6C2.5,6.5,2.7,6.4,3,6.1
			c0.3-0.3,0.5-0.6,0.5-0.8L5.8,6C5.5,6.3,5.4,6.6,5.4,7C5,7,4.7,7.1,4.4,7.4C4.2,7.7,4,8,4,8.3C3.6,8.4,3.3,8.5,3,8.8z M10,20.6
			C9.8,20.9,9.6,21,9.4,21c-0.1,0-0.1,0-0.1,0s0,0,0,0c0,0-0.1-0.1-0.1-0.3c0-0.1-0.1-0.1-0.1-0.2c-0.1-0.1-0.1-0.2-0.2-0.2
			c0-0.1-0.1-0.1-0.1-0.2c-0.2-0.3-0.3-0.5-0.1-0.8c0.1-0.2,0.3-0.8,0.3-1.3c0,0,0,0,0,0c0-0.4,0-0.8,0-1.1l0.4,0.4l0.2,0.2l0.1,0.1
			c0,0.5,0,0.9,0,1h0c0,0.1,0,0.2,0.1,0.2c0,0.1,0.1,0.2,0.2,0.3c0,0,0.1,0.1,0.1,0.1c0.1,0.1,0.3,0.2,0.2,0.3
			c-0.1,0.1-0.1,0.1-0.2,0.2c-0.1,0-0.1,0-0.2-0.1c-0.2-0.1-0.2,0.3-0.3,0.7c0,0.1,0,0.1,0,0.1c0,0,0,0,0,0c0.1,0.1,0.3,0,0.3,0
			s0.4-0.1,0.2-0.2c-0.2-0.1,0.2-0.3,0.2-0.3l0.3,0.2l0.1,0.1L10,20.6z M11.2,31.7c-0.2,0-0.3-0.2-0.1-0.3
			C11.3,31.4,11.4,31.7,11.2,31.7z M12,31.9c-0.1,0.2-0.5,0.2-0.4-0.1c0-0.1,0.1-0.2,0.2-0.2C11.9,31.6,12.1,31.7,12,31.9z
			 M12.6,32.3c-0.3,0-0.4-0.5,0-0.5C12.9,31.7,12.9,32.3,12.6,32.3z M13.2,27.7c0,0.1-0.1,0.2-0.1,0.3c0,0,0,0.1,0,0.1
			c0,0.1-0.1,0.2-0.1,0.3c-0.1,0.3-0.3,0.6-0.4,0.9c0,0.5,0,0.9,0,1.4v0c0,0,0.1,0,0.1,0c0,0,0.1,0.1,0.1,0.1c0.1,0.1,0,0.3,0.1,0.5
			c0,0,0,0,0,0c-0.1,0-0.2,0-0.3,0c-0.4,0-0.7-0.2-0.9-0.4c-0.1-0.1-0.1-0.2-0.1-0.4c0-0.3,0-0.6,0-0.9c0,0,0-0.1,0-0.1
			c0-0.8,0-1.7,0-2.5c0-0.2,0-0.3,0-0.5c0,0,0,0,0,0c0,0,0,0,0,0c0,0,0,0,0,0c0.1,0.1,0.2,0.1,0.3,0.2c0.4,0.2,1,0.3,1.5,0l0,0
			C13.2,27.1,13.3,27.4,13.2,27.7z M14.1,31.9c0.1,0.6-0.8,0.6-0.8,0c0-0.2,0.1-0.4,0.4-0.4C13.9,31.5,14.1,31.7,14.1,31.9z
			 M13.8,23.2c0,0.2-0.1,0.4-0.1,0.7h0c0,0,0,0-0.1,0c0,0-0.1,0-0.2,0c-0.2,0-0.3,0.1-0.2,0.3c0,0.1,0.1,0.2,0.1,0.2c0,0,0,0,0,0
			c0.1,0.1,0.2,0.1,0.3,0.2c0,0,0,0.1,0,0.1c0,0.1,0,0.1,0,0.2c0,0,0,0,0,0c0,0.1,0,0.3,0,0.4c0,0.6-0.4,0.9-0.7,1
			c-0.1,0-0.3,0.1-0.4,0.1c-0.1,0-0.2,0-0.4-0.1c-0.2-0.1-0.3-0.2-0.4-0.3c-0.1-0.1-0.2-0.3-0.2-0.4c0,0,0,0,0,0
			c0-0.1-0.1-0.2-0.1-0.3c0-0.1,0-0.1,0-0.1c0,0,0-0.1,0-0.1c0,0,0,0,0,0c0-0.1,0-0.2,0.1-0.3c0,0,0.1-0.1,0.1-0.1
			c0.1-0.1,0.3-0.2,0.4-0.3c0,0,0-0.1,0-0.1c0-0.1,0-0.2-0.1-0.3c-0.1-0.1-0.3-0.1-0.4,0c0,0,0,0,0,0c0-0.1,0-0.3,0-0.4
			c0-0.2,0-0.3,0-0.5c0-0.1,0-0.2,0-0.3c0-0.4,0-0.7,0-1.1c0-0.1,0-0.1,0-0.2c0-0.2,0-0.5,0-0.7l0,0c0,0,0.1,0,0.2,0c0,0,0,0,0,0
			c0,0,0,0,0.1,0c0,0,0.1,0,0.1,0c0.1-0.1,0.1-0.2,0.1-0.3c0,0,0-0.1,0-0.1c0-0.1-0.1-0.1-0.2-0.1c0,0-0.1,0-0.1-0.1
			c0,0-0.1-0.1-0.1-0.1c-0.2-0.2-0.2-0.5-0.2-0.8l0.5,0.5l0.4,0.4l0.4,0.4l0.6,0.6l0.4,0.4l0.4,0.4l0,0l0,0l0,0l0,0
			C13.9,22.3,13.9,22.7,13.8,23.2z M17.3,32.4c-0.4-0.1-0.4-0.8,0-0.8C17.8,31.4,17.8,32.5,17.3,32.4z M17,25.2c0-0.1,0-0.1,0-0.2
			c0,0,0-0.1,0-0.1c0,0,0,0,0,0l1.4,1.4c-0.4,0.1-0.9,0-1.2-0.3c-0.1-0.1-0.2-0.3-0.3-0.5C17,25.4,17,25.3,17,25.2z M18.4,32.3
			c-0.3,0-0.3-0.5,0-0.5C18.7,31.7,18.7,32.3,18.4,32.3z M18.6,31.2C18.6,31.2,18.6,31.3,18.6,31.2c-0.2,0.1-0.4,0.1-0.5,0.1
			c0,0-0.1-0.1-0.1-0.1c0,0-0.1-0.1-0.1-0.1c0,0,0-0.1,0-0.1c0-0.2,0.1-0.4,0.2-0.4l0,0c0-0.3,0-0.7,0-1.1c0-0.1,0-0.2,0-0.3
			c-0.1-0.2-0.2-0.4-0.3-0.6c-0.1-0.2-0.1-0.3-0.2-0.5c0-0.1-0.1-0.2-0.1-0.2c0-0.1,0-0.1,0-0.2c-0.1-0.3,0-0.6,0-1l0,0
			c0.2,0.1,0.5,0.1,0.8,0.1c0.2,0,0.4-0.1,0.6-0.2l0,0l0.2,0.2c0,0.1,0,0.2,0,0.3c0,0.7,0,1.6,0,2.4c0,0.5,0,0.9-0.1,1.3
			C18.9,31,18.8,31.1,18.6,31.2z M19,32.1c-0.2,0-0.2-0.4,0-0.4C19.3,31.6,19.3,32.1,19,32.1z M19.6,31.8c-0.2,0-0.2-0.2,0-0.3
			C19.8,31.4,19.8,31.8,19.6,31.8z M27,30.7l-5.9-5.9l-0.7-0.7l-1.4-1.4l0,0L17.4,21l0,0L17,20.7l0,0l-0.2-0.2l-0.1-0.1l0,0L16.4,20
			l-0.3-0.3l0,0l-0.4-0.4l-0.4-0.4l-0.6-0.6l-0.1-0.1l-0.3-0.3l-0.4-0.4l-0.6-0.6l0,0l-0.4-0.4l0,0l-0.4-0.4l0,0l-1-1l0,0l-0.9-0.9
			l-0.5-0.5l0,0l-0.1-0.1l-1-1l-1.2-1.2L7.3,11L5.2,8.8L4.8,9.1L4.4,9.5l0,0L7,12.1l0.6,0.6L9,14.1l0,0L9.9,15l0.2,0.2l0,0l0.7,0.7
			l0.4,0.4l0.5,0.5l0.4,0.4l0.4,0.4l0,0l0.6,0.6l0.4,0.4l0.4,0.4l0,0l0.4,0.4l0.1,0.1l0.7,0.7l0.4,0.4l0.6,0.6l0.4,0.4l0,0l0.2,0.2
			h0l1.9,1.9l0,0l1.7,1.7l0.7,0.7l5.2,5.2L25.7,32l-4.6-4.6l-0.7-0.7l-1.3-1.3l0,0L17,23.4l0,0l-1-1l-0.3-0.3L15.7,22l-0.2-0.2
			l-0.1-0.1l-0.3-0.3L15,21.3l-0.2-0.2L14.7,21l0,0l0,0l-0.4-0.4l-0.2-0.2l-0.2-0.2l-0.4-0.4l-0.2-0.2l-0.4-0.4l-0.4-0.4l-0.6-0.6
			l-0.2-0.2l0,0l-0.1-0.1l-0.4-0.4L11,17.3l-0.8-0.8l0,0l-0.3-0.3L9,15.3l0,0l-1.4-1.4l-0.6-0.6l-3.1-3.1l0,0l0,0l0,0c0,0,0,0,0,0
			c-0.2-0.2-0.1-0.4,0-0.6C3.9,9.4,4,9.4,4.1,9.4c0.1,0,0.2,0,0.3,0.1l0.4-0.4l0.4-0.4c0,0,0,0,0,0L4.8,9.1c0,0,0,0,0,0l0.4-0.4l0,0
			C5,8.6,5,8.3,5.2,8.1C5.3,8.1,5.4,8,5.5,8c0.1,0,0.2,0,0.3,0.1c0,0,0,0,0,0l0,0l0,0l12.3,12.3l1,1l0,0l8.6,8.6L27,30.7z M22,22.9
			l-1-1L19.1,20l-0.3-0.3l0,0L18,18.9l-0.6-0.6l0,0l0,0l-0.1-0.1l0,0l-0.3-0.3l-0.4-0.4L16,16.9l-0.4-0.4l-1-1l0,0l-0.7-0.7
			l-4.2-4.2l0,0L8.7,9.5L8.2,9.1L6.5,7.4L6.2,7.8l0.3-0.3l0,0l0,0l0,0c-0.2-0.2-0.2-0.5,0-0.6c0.1-0.1,0.2-0.1,0.3-0.1
			c0.1,0,0.2,0,0.3,0.1h0l1.6,1.6l0.5,0.5l1.1,1.1l0,0l2.4,2.4l0,0l2.3,2.3l0.4,0.4l0.6,0.6l0.4,0.4l0.4,0.4l0.6,0.6l0.4,0.4
			l0.4,0.4l0,0l0,0l0.6,0.6l0.1,0.1l0.6,0.6l0,0l0.9,0.9l0.8,0.8l0.1,0.1l0.1,0.1l0.6,0.6l0.5,0.5l6.6,6.6l-0.6,0.6L22,22.9z"/>
		<path class="st0" d="M16.1,7.9c0,0,0,0-0.1,0v0.5c0.4-0.2,0.5-0.7,0.5-0.9c0,0,0,0,0,0h-0.3V7.9z"/>
		<path class="st0" d="M15,8.4V7.9c0,0,0,0,0,0V7.6h-0.4c0,0,0,0,0,0C14.6,7.7,14.6,8.2,15,8.4z"/>
		<path class="st0" d="M16.5,7.6L16.5,7.6C16.4,7.6,16.5,7.6,16.5,7.6C16.5,7.6,16.5,7.6,16.5,7.6z"/>
		<path class="st0" d="M16.5,7.6L16.5,7.6C16.4,7.6,16.5,7.6,16.5,7.6C16.5,7.6,16.5,7.6,16.5,7.6z"/>
		<path class="st0" d="M14.6,7.6C14.6,7.6,14.6,7.6,14.6,7.6C14.6,7.6,14.6,7.6,14.6,7.6L14.6,7.6z"/>
		<path class="st0" d="M14.6,7.6C14.6,7.6,14.6,7.6,14.6,7.6C14.6,7.6,14.6,7.6,14.6,7.6L14.6,7.6z"/>
		<path class="st0" d="M15,3.2V2.3h-0.9C14.3,2.7,14.6,3,15,3.2z"/>
		<polygon class="st0" points="13,4.3 18,4.3 18,4 13,4 		"/>
		<path class="st0" d="M15.8,3.3h-0.5c0.1,0,0.1,0,0.2,0C15.6,3.3,15.7,3.3,15.8,3.3z"/>
		<path class="st0" d="M13,3.3L13,3.3C13,3.3,13,3.3,13,3.3L13,3.3z"/>
		<path class="st0" d="M16.9,2.3H16v1C16.4,3.1,16.8,2.7,16.9,2.3z"/>
		<path class="st0" d="M17,6.5v0.8h1V6.7l-0.4,0.5C17.4,6.9,17.2,6.7,17,6.5z"/>
		<polygon class="st0" points="13,7.3 13.4,7.3 13,6.8 		"/>
		<path class="st0" d="M13.4,7.3H14V6.5C13.8,6.7,13.6,7,13.4,7.3z"/>
		<polygon class="st0" points="15.3,9.3 15,9 15,9.3 		"/>
		<polygon class="st0" points="16,9.3 16,9 15.8,9.3 		"/>
		<path class="st0" d="M15.5,8C15.2,8,15,8,15,7.9v0.5c0.1,0.1,0.3,0.1,0.5,0.1c0.2,0,0.4,0,0.5-0.1V8C15.9,8,15.7,8,15.5,8z"/>
		<path class="st0" d="M16,5.8V5.3h-0.3C15.8,5.5,15.9,5.6,16,5.8z"/>
		<path class="st0" d="M15.3,5.3H15v0.5C15.1,5.6,15.2,5.4,15.3,5.3z"/>
		<path class="st0" d="M16,6.2C16,6.2,16,6.2,16,6.2L16,6.2L16,6.2C16,6.2,16,6.2,16,6.2C16,6.2,16,6.2,16,6.2z"/>
	</g>
</g>
</svg>
