<?xml version="1.0" encoding="utf-8"?>
<!-- Generator: Adobe Illustrator 21.1.0, SVG Export Plug-In . SVG Version: 6.00 Build 0)  -->
<svg version="1.1" id="Warstwa_1" xmlns="http://www.w3.org/2000/svg" xmlns:xlink="http://www.w3.org/1999/xlink" x="0px" y="0px"
	 viewBox="0 0 305.4 234.4" style="enable-background:new 0 0 305.4 234.4;" xml:space="preserve">
<style type="text/css">
	.st0{fill:none;}
	.st1{fill:#1F3F6E;}
</style>
<g>
	<path class="st0" d="M156.9,37.7h4.2c-3.3-2.5-7.4-4-11.8-4.2C150.7,35.3,153.3,37.7,156.9,37.7z"/>
	<path class="st0" d="M156.9,50.4h12.3c-0.3-1.5-0.8-2.9-1.4-4.2h-10.9c-11,0-16.3-10.4-16.5-10.8c0-0.1-0.1-0.2-0.1-0.3
		c-1.3,0.6-2.6,1.2-3.8,2.1C140.7,42.1,149.4,50.4,156.9,50.4z"/>
	<path class="st0" d="M137.9,50.5c-1.9,2.6-5.4,6.4-10.7,7.8v0.5c0,1.8-1.2,3.4-2.8,4c0,0.1,0,0.2,0,0.3v11.3c0,0.7-0.2,1.3-0.4,1.9
		c0.6-0.3,1.2-0.4,1.9-0.4c2.3,0,4.2,1.9,4.2,4.2c0,5.1,10.3,13.1,18.3,17.7c5.6-3.2,12.3-8.1,15.8-12.5c-1.4,0-2.8,0-4.1,0
		c-1.6,0-3-0.1-4.4,0c-1.3,1.9-3.4,3.2-5.9,3.2h-3.5c-3.9,0-7.1-3.2-7.1-7.1v0c0-3.9,3.2-7.1,7.1-7.1h3.5c2.1,0,4,1,5.3,2.4
		c1.7-0.1,3.4-0.1,5.2,0c4.1,0.1,8.4,0.2,10.3-1.7c1.2-1.1,1.7-3.3,1.7-6.4v-5.6c0-2.3,1.9-4.2,4.2-4.2h-19.7
		C149.8,58.9,143.1,54.8,137.9,50.5z M135.7,66.7c-2,0-3.6-1.6-3.6-3.6c0-2,1.6-3.6,3.6-3.6s3.6,1.6,3.6,3.6
		C139.3,65.1,137.7,66.7,135.7,66.7z M160.5,63.1c0,2-1.6,3.6-3.6,3.6c-2,0-3.6-1.6-3.6-3.6c0-2,1.6-3.6,3.6-3.6
		C158.9,59.5,160.5,61.1,160.5,63.1z"/>
	<path class="st0" d="M131.7,44.6c-0.4-0.5-0.8-0.9-1.2-1.3c-1.1,1.6-1.9,3.4-2.4,5.4C130.1,47.2,131.3,45.3,131.7,44.6z"/>
	<path class="st0" d="M207.6,54.8h43.5V11.3h-43.5V54.8z M212,24.9c-2.2-2.2-2.2-5.8,0-8c2.2-2.2,5.8-2.2,8,0l8.7,8.7l8.7-8.7
		c2.2-2.2,5.8-2.2,8,0c2.2,2.2,2.2,5.8,0,8l-8.7,8.7l8.7,8.7c2.2,2.2,2.2,5.8,0,8c-1.1,1.1-2.5,1.7-4,1.7c-1.4,0-2.9-0.5-4-1.7
		l-8.7-8.7l-8.7,8.7c-1.1,1.1-2.5,1.7-4,1.7s-2.9-0.5-4-1.7c-2.2-2.2-2.2-5.8,0-8l8.7-8.7L212,24.9z"/>
	<circle class="st1" cx="194.1" cy="89.3" r="7.6"/>
	<circle class="st1" cx="135.7" cy="63.1" r="3.6"/>
	<circle class="st1" cx="156.9" cy="63.1" r="3.6"/>
	<path class="st1" d="M172.4,63.1v5.6c0,3.1-0.6,5.3-1.7,6.4c-1.9,1.9-6.2,1.8-10.3,1.7c-1.7,0-3.5-0.1-5.2,0
		c1.1,1.2,1.7,2.8,1.7,4.6v0c0,1.4-0.4,2.7-1.1,3.8c1.3-0.1,2.8,0,4.4,0c1.3,0,2.7,0.1,4.1,0c1.5-1.9,2.5-3.7,2.5-5.3
		c0-2.3,1.9-4.2,4.2-4.2s4.2,1.9,4.2,4.2c0,0.8-0.1,1.7-0.3,2.5c0.6-0.4,1.1-0.8,1.6-1.3c2.9-2.8,4.3-6.9,4.3-12.5v-5.6
		c0-2.3-1.9-4.2-4.2-4.2S172.4,60.8,172.4,63.1z"/>
	<path class="st1" d="M152.7,85.6l-7.3-1.5c-2.3-0.5-3.8-2.7-3.3-5c0.5-2.3,2.7-3.8,5-3.3l5.7,1.2c0.8-0.1,1.5-0.2,2.3-0.2
		c-1.3-1.5-3.2-2.4-5.3-2.4h-3.5c-3.9,0-7.1,3.2-7.1,7.1v0c0,3.9,3.2,7.1,7.1,7.1h3.5c2.5,0,4.7-1.3,5.9-3.2c-0.8,0-1.5,0.1-2.2,0.2
		L152.7,85.6z"/>
	<path class="st1" d="M156.9,81.4c0-1.8-0.7-3.4-1.7-4.6c-0.8,0-1.5,0.1-2.3,0.2l-5.7-1.2c-2.3-0.5-4.5,1-5,3.3
		c-0.5,2.3,1,4.5,3.3,5l7.3,1.5l0.8-0.2c0.6-0.1,1.4-0.2,2.2-0.2C156.4,84.2,156.9,82.8,156.9,81.4L156.9,81.4z"/>
	<path class="st1" d="M123,50.4c2,0,3.7-0.8,5.1-1.8c0.6-1.9,1.4-3.7,2.4-5.4c0.4,0.4,0.8,0.9,1.2,1.3c0.1-0.2,0.2-0.3,0.2-0.3
		c1-2.1,3.6-2.9,5.7-1.9c2.1,1,2.9,3.6,1.9,5.7c-0.1,0.1-0.6,1.1-1.6,2.5c5.2,4.3,11.9,8.3,18.9,8.3h19.7h1.4v-4.2
		c0-16.3-13.3-29.6-29.6-29.6c-16.3,0-29.6,13.3-29.6,29.6C118.8,52.3,120.7,50.4,123,50.4z M142.3,29.7c2.1-1,4.6-0.2,5.7,1.9
		c0,0.1,0.5,0.9,1.3,2c4.4,0.2,8.5,1.7,11.8,4.2h8.5c2.3,0,4.2,1.9,4.2,4.2c0,2.3-1.9,4.2-4.2,4.2h-1.8c0.6,1.3,1.1,2.8,1.4,4.2
		h-12.3c-7.5,0-16.1-8.3-20.4-13.2c1.2-0.8,2.5-1.5,3.8-2.1C139.4,33.1,140.3,30.7,142.3,29.7z"/>
	<path class="st1" d="M124.4,62.8c1.7-0.6,2.8-2.1,2.8-4v-0.5c-1.3,0.3-2.7,0.5-4.2,0.5c-2.3,0-4.2-1.9-4.2-4.2v4.2
		c0,0.1,0,0.2,0,0.3c0.4-0.2,0.9-0.3,1.4-0.3C122.4,58.9,124.3,60.6,124.4,62.8z"/>
	<path class="st1" d="M174.9,82.5c-3.1,2.2-6.9,2.7-10.7,2.8c-3.6,4.4-10.2,9.2-15.8,12.5c-8-4.6-18.3-12.6-18.3-17.7
		c0-2.3-1.9-4.2-4.2-4.2c-0.7,0-1.3,0.2-1.9,0.4c-0.4,0.8-1.1,1.5-1.9,1.9c-0.3,0.6-0.4,1.2-0.4,1.9c0,9.1,10.9,17.7,18.4,22.6h16.7
		C163.6,98.2,173.2,90.7,174.9,82.5z"/>
	<path class="st1" d="M171,75.8c-2.3,0-4.2,1.9-4.2,4.2c0,1.5-1,3.4-2.5,5.3c3.8-0.1,7.6-0.6,10.7-2.8c0.2-0.8,0.3-1.7,0.3-2.5
		C175.2,77.7,173.3,75.8,171,75.8z"/>
	<path class="st1" d="M137.9,50.5c-2.5-2-4.6-4.2-6.2-5.9c-0.4,0.7-1.7,2.6-3.6,4c-0.6,1.9-0.9,3.9-0.9,6v3.7
		C132.6,56.9,136.1,53.1,137.9,50.5z"/>
	<path class="st1" d="M137.9,50.5c1-1.3,1.5-2.3,1.6-2.5c1-2.1,0.2-4.6-1.9-5.7c-2.1-1-4.6-0.2-5.7,1.9c0,0-0.1,0.1-0.2,0.3
		C133.4,46.4,135.5,48.5,137.9,50.5z"/>
	<path class="st1" d="M123,58.9c1.5,0,2.9-0.2,4.2-0.5v-3.7c0-2.1,0.3-4.1,0.9-6c-1.4,1-3.1,1.8-5.1,1.8c-2.3,0-4.2,1.9-4.2,4.2
		C118.8,57,120.7,58.9,123,58.9z"/>
	<path class="st1" d="M156.9,46.2h10.9c-1.5-3.4-3.8-6.3-6.7-8.5h-4.2c-3.6,0-6.2-2.4-7.6-4.2c-0.3,0-0.6,0-0.9,0
		c-2.9,0-5.6,0.6-8.1,1.6c0,0.1,0.1,0.2,0.1,0.3C140.6,35.8,145.9,46.2,156.9,46.2z"/>
	<path class="st1" d="M149.3,33.5c-0.8-1.1-1.3-1.9-1.3-2c-1.1-2.1-3.6-2.9-5.7-1.9c-2,1-2.8,3.4-2,5.4c2.5-1,5.2-1.6,8.1-1.6
		C148.7,33.5,149,33.5,149.3,33.5z"/>
	<path class="st1" d="M167.8,46.2h1.8c2.3,0,4.2-1.9,4.2-4.2c0-2.3-1.9-4.2-4.2-4.2h-8.5C164,39.9,166.3,42.8,167.8,46.2z"/>
	<path class="st1" d="M109.1,170.3h15.3c3.1,0,5.6-2.5,5.6-5.6c0-3.1-2.5-5.6-5.6-5.6h-15.3c-4,0-7.2-3.2-7.2-7.2v-3.3l6.7-23.5
		c1.9-6.6,8-11.2,14.8-11.2h52.9c6.8,0,12.9,4.6,14.8,11.2l6.7,23.5v3.3c0,4-3.2,7.2-7.2,7.2h-34.4l7.2-14.4
		c1.4-2.8,0.3-6.2-2.5-7.6c-2.8-1.4-6.2-0.3-7.6,2.5l-15.4,30.7h52.7c10.2,0,18.5-8.3,18.5-18.5v-4.8l-7.1-25
		c-3.3-11.4-13.8-19.4-25.7-19.4h-19.5c-2.9,1.8-5.3,3.1-6.4,3.7l-2,1l-2-1c-1.1-0.6-3.5-1.9-6.4-3.7h-16.7
		c-11.9,0-22.4,8-25.7,19.4l-7.1,25v4.8C90.6,162,98.9,170.3,109.1,170.3z"/>
	<path class="st1" d="M148.4,107.4l2-1c1.1-0.6,3.5-1.9,6.4-3.7H140c2.9,1.8,5.3,3.1,6.4,3.7L148.4,107.4z"/>
	<path class="st1" d="M124,76.2c0.3-0.6,0.4-1.2,0.4-1.9V63.1c0-0.1,0-0.2,0-0.3c-0.4,0.2-0.9,0.3-1.4,0.3c-2.3,0-4.1-1.8-4.2-4
		c-1.7,0.6-2.8,2.1-2.8,4v11.3c0,2.3,1.9,4.2,4.2,4.2c0.7,0,1.3-0.2,1.9-0.4C122.5,77.3,123.1,76.6,124,76.2z"/>
	<path class="st1" d="M123,63.1c0.5,0,0.9-0.1,1.4-0.3c-0.1-2.2-2-4-4.2-4c-0.5,0-0.9,0.1-1.4,0.3C118.9,61.3,120.8,63.1,123,63.1z"
		/>
	<path class="st1" d="M124,76.2c-0.8,0.4-1.5,1.1-1.9,1.9C122.9,77.7,123.6,77.1,124,76.2z"/>
	<path class="st1" d="M262.4,0h-66.1v66.1h66.1V0z M251.1,54.8h-43.5V11.3h43.5V54.8z"/>
	<path class="st1" d="M237.4,50.3c1.1,1.1,2.5,1.7,4,1.7c1.4,0,2.9-0.5,4-1.7c2.2-2.2,2.2-5.8,0-8l-8.7-8.7l-8,8L237.4,50.3z"/>
	<path class="st1" d="M220,17c-2.2-2.2-5.8-2.2-8,0c-2.2,2.2-2.2,5.8,0,8l8.7,8.7l8-8L220,17z"/>
	<path class="st1" d="M245.4,24.9c2.2-2.2,2.2-5.8,0-8c-2.2-2.2-5.8-2.2-8,0l-8.7,8.7l8,8L245.4,24.9z"/>
	<path class="st1" d="M212,50.3c1.1,1.1,2.5,1.7,4,1.7s2.9-0.5,4-1.7l8.7-8.7l-8-8l-8.7,8.7C209.8,44.6,209.8,48.1,212,50.3z"/>
	
		<rect x="223.1" y="28" transform="matrix(0.7071 -0.7071 0.7071 0.7071 43.193 171.5855)" class="st1" width="11.3" height="11.3"/>
	<path class="st1" d="M140.4,200.6c-3.1,0-5.6,1.5-6.4,4.4h12.3C146,202.1,143.7,200.6,140.4,200.6z"/>
	<path class="st1" d="M230.7,182.6H84.9c-6.9,0-12.5,5.6-12.5,12.5c0,11.5,8.6,21.1,19.7,22.6c4.1,6.8,11.4,11.2,19.6,11.2
		c2.1,0,4.1-0.3,6.1-0.9c4.2,4,9.8,6.3,15.8,6.3c3.8,0,7.6-1,10.9-2.8c6.8,3.8,15.1,3.8,21.9,0c3.3,1.9,7.1,2.8,10.9,2.8
		c5.5,0,10.7-2,14.8-5.5c11.4,0.9,21.1-6.8,23.7-17.1c6.3-1.6,11.7-5.8,14.7-11.8c2.7-5.5,3.2-11.6,1.2-17.4L230.7,182.6z
		 M124.5,211.6c0,5.7-2.5,9.4-7.7,9.4c-1.7,0-3.5-0.5-5.1-1.5l2.1-4.4c1,0.5,1.9,0.7,2.8,0.7c1.9-0.1,2.3-1.5,2.3-4.1v-10.1h5.6
		V211.6z M117.3,194.1c0-5.7,8.7-5.7,8.7,0C126,199.8,117.3,199.8,117.3,194.1z M151.8,209.7H134c0.4,2.8,2.8,4.9,6.8,4.9
		c2.1,0,4.8-0.8,6.1-2.1l3.6,3.6c-2.4,2.5-6.3,3.7-9.8,3.7c-7.9,0-12.5-4.9-12.5-12.2c0-6.9,4.7-11.9,12.1-11.9
		C147.9,195.6,152.7,200.3,151.8,209.7z M165.4,219.9c-3.6,0-7.2-0.6-10.5-4.1l2.8-4c1.6,1.8,5.3,3.1,7.9,3.2c2.1,0,4.1-1.1,4.1-2.7
		c0-1.6-1.3-2.2-4.5-2.4c-4.3-0.3-9.4-1.9-9.4-7.1c0-5.3,5.5-7.1,9.6-7.1c3.6,0,6.2,0.7,8.9,3l-3.1,3.7c-1.6-1.5-3.5-2-5.6-2
		c-2.7,0-4.2,0.8-4.2,2.3c0,1.5,1.3,2.3,4.3,2.5c4.3,0.3,9.8,1.2,9.8,7.3C175.2,216.4,171.9,219.9,165.4,219.9z M189.3,219.9
		c-4.9,0.2-8.2-2.6-8.2-8.3v-9.9h-4.3v-4.9h4.3V191l5.6-0.6v6.5h6.3v4.9h-6.3v9.9c0,2.2,1.2,3.2,3,3.2c0.9,0,1.9-0.3,2.7-0.7
		l1.6,4.8C192.4,219.6,191,219.9,189.3,219.9z"/>
	<circle class="st1" cx="263.3" cy="187.5" r="5.3"/>
	<path class="st1" d="M281.7,182.2c-2.9,0-5.3,2.4-5.3,5.3c0,2.9,2.4,5.3,5.3,5.3c2.9,0,5.3-2.4,5.3-5.3
		C287,184.6,284.6,182.2,281.7,182.2z"/>
	<path class="st1" d="M300.1,182.2c-2.9,0-5.3,2.4-5.3,5.3c0,2.9,2.4,5.3,5.3,5.3c2.9,0,5.3-2.4,5.3-5.3
		C305.4,184.6,303,182.2,300.1,182.2z"/>
	<path class="st1" d="M23.7,182.2c-2.9,0-5.3,2.4-5.3,5.3c0,2.9,2.4,5.3,5.3,5.3c2.9,0,5.3-2.4,5.3-5.3
		C29,184.6,26.6,182.2,23.7,182.2z"/>
	<ellipse class="st1" cx="244.8" cy="187.5" rx="5.3" ry="5.3"/>
	<path class="st1" d="M5.3,182.2c-2.9,0-5.3,2.4-5.3,5.3c0,2.9,2.4,5.3,5.3,5.3c2.9,0,5.3-2.4,5.3-5.3
		C10.5,184.6,8.2,182.2,5.3,182.2z"/>
	<circle class="st1" cx="42.1" cy="187.5" r="5.3"/>
	<circle class="st1" cx="60.6" cy="187.5" r="5.3"/>
</g>
</svg>
