<?xml version="1.0" encoding="utf-8"?>
<!-- Generator: Adobe Illustrator 21.1.0, SVG Export Plug-In . SVG Version: 6.00 Build 0)  -->
<svg version="1.1" id="Warstwa_1" xmlns="http://www.w3.org/2000/svg" xmlns:xlink="http://www.w3.org/1999/xlink" x="0px" y="0px"
	 viewBox="0 0 211 166.2" style="enable-background:new 0 0 211 166.2;" xml:space="preserve">
<style type="text/css">
	.st0{fill:#FFFFFF;}
	.st1{fill:none;stroke:#1D1D1B;stroke-width:10;stroke-linecap:round;stroke-miterlimit:10;}
	.st2{fill:none;stroke:#1D1D1B;stroke-width:7;stroke-miterlimit:10;}
	.st3{fill:none;stroke:#1D1D1B;stroke-width:4.5486;stroke-miterlimit:10;}
	.st4{fill:none;stroke:#1D1D1B;stroke-width:5.588;stroke-miterlimit:10;}
	.st5{fill:#1D1D1B;stroke:#1D1D1B;stroke-width:10;stroke-linecap:round;stroke-miterlimit:10;}
	.st6{fill:#1D1D1B;}
</style>
<symbol  id="Nowy_symbol" viewBox="-356.2 -321.1 712.3 642.2">
	<path d="M28.8,153c0,14.2,0,28.4,0,42.7c-14.4,0-28.6,0-42.9,0c-0.5-3.5-0.3-41.3,0.1-43C-8.9,152.3,27,152.5,28.8,153z"/>
	<path d="M59.6-39.4c7.6,0,13.6,5.9,13.6,13.4c0.1,7.4-5.9,13.3-13.3,13.6c-6.7,0.3-13.8-5.3-13.9-13.5C46.1-33.4,52-39.4,59.6-39.4
		z"/>
	<path d="M-199.7,32.8c14.3,0,28.6,0,42.9,0c0,14.3,0,28.5,0,42.9c-14.5,0-28.8,0-43.1,0C-200.3,72.5-200.1,34.4-199.7,32.8z"/>
	<path d="M-58.3-241.9c104.1,0,314,0,315.3,0c-0.7,0.9-18,20.1-18,20.1c-104.2,0-316.6,0-317.8,0C-78.1-222.8-58.3-241.9-58.3-241.9
		z"/>
	<path d="M219.8-17.9c-14.4,0-28.6,0-43,0c0-14.4,0-28.7,0-43c14.4,0,28.7,0,43,0C219.8-46.4,219.8-32.2,219.8-17.9z"/>
	<path d="M350.6-259c-18.8,19-37.5,38.1-56.2,57.1c-7.9,8-15.8,16.1-23.8,24.1c-1.4,1.4-1.9,2.9-1.9,4.8c0,54.1,0,108.1,0,162.2
		c0,7.3-1.8,14.1-6.3,20c-6.1,7.9-14.3,12.1-24.3,12.3c-4.4,0.1-8.8,0-13.2,0c-0.8,0-1.6,0-2.6,0v102.1h-55.5c0,1.3,0,2.3,0,3.3
		c0,25.4,0,50.9,0,76.3c0,12.6-4.2,23.3-13.3,32.2c-0.5,0.5-38.1,40.5-54.9,57.2c-3.8,3.8-8.3,5-13.4,3.5c-5-1.4-8.1-5-9.2-10.1
		c-0.9-4.2,0.2-7.9,2.9-11.2c0.5-0.6,1.1-1.2,1.7-1.7c7.9-7.9,15.8-15.8,23.8-23.8c0.6-0.6,1.2-1.2,2.1-2.2
		c-1.7-0.1-36.4-0.2-36.4-0.2L4.3,314.3c-2.8,2.8-5.6,5.6-9.6,6.8h-5.3c-0.3-0.1-0.6-0.3-0.9-0.4c-9.7-2.3-13.5-14.8-6-22.3
		c8.7-8.7,41.4-41.4,49-49c0.6-0.6,1.4-1.1,2.1-1.6c-0.1-0.2-0.2-0.4-0.3-0.6c-0.7-0.1-1.3-0.4-2,0L0,247.5
		c-10.1,10.1-21.2,21.2-31.3,31.3c-11.9,11.9-23.8,23.7-35.6,35.6c-2.8,2.8-5.6,5.4-9.4,6.6h-5.3c-0.4-0.2-0.7-0.4-1.1-0.5
		c-9.2-2.6-12.7-13.5-6.8-21c0.7-0.9,1.5-1.7,2.3-2.5c17-17,52.4-52.2,53.5-53c-10-4.3-17.2-10.8-22.4-20.5c-0.8,1-1.3,1.9-1.9,2.5
		c-25.6,25.6-51.1,51.1-76.7,76.7c-2.2,2.2-4.7,3.8-7.8,4.4c-5.3,1-10.9-1.5-13.7-6.3c-2.8-4.7-2.4-10.9,1-15.1
		c0.7-0.9,1.5-1.6,2.3-2.4c30.1-30.1,60.2-60.2,90.3-90.2c1.5-1.5,2-3,2-5c-0.1-12.7,0-25.4,0-38.2l0-2.5c-0.2-0.1-0.3-0.1-0.5-0.2
		c-0.7,0.6-1.3,1.3-2,1.9c-18.4,18.4-36.9,36.9-55.3,55.3c-2.3,2.3-4.9,3.8-8.1,4.3c-5.1,0.8-10.7-1.8-13.3-6.3
		c-2.8-4.9-2.6-9.8,0.6-14.5c0.7-1.1,1.6-2,2.6-2.9c19.7-19.7,39.5-39.5,59.2-59.2c0.6-0.6,1.2-1.2,2-2.1
		c-1.8-0.2-38.5-0.1-38.5-0.1c-37.2,37.2-75.5,76.1-112.7,113.3c-2,2-4.1,3.6-6.8,4.3c-5.5,1.5-11.4-0.6-14.6-5.3
		c-3.1-4.6-3.1-10.8,0.2-15.3c0.8-1,1.7-1.9,2.6-2.8c30.5-30.6,61.1-61.1,91.6-91.6c0.7-0.7,1.6-1.3,2.4-1.9
		c-0.1-0.2-0.2-0.4-0.4-0.6c-0.5-0.1-1-0.2-1.5-0.2c-11.6,0-23.2,0-34.8,0c-1.1,0-2,0.2-2.7,1.1c-0.8,0.9-1.7,1.7-2.5,2.6
		c-36,36-72,71.9-107.9,107.9c-2.1,2.1-4.4,3.7-7.3,4.3c-5.6,1.2-11.2-1.2-14.2-6.1c-2.9-4.8-2.4-11,1.2-15.2c0.8-1,1.7-1.9,2.6-2.8
		c29.8-29.8,59.5-59.5,89.3-89.3c0.7-0.7,1.3-1.3,2.3-2.5h-17.8V88.4c-1.2-0.1-1.5,0.8-2,1.3c-6.8,6.8-13.6,13.6-20.4,20.3
		c-4.8,4.7-12,5.2-17.3,1.3c-6.1-4.5-7.2-13.1-2.5-18.9c0.7-0.9,1.5-1.7,2.3-2.4c12.7-12.7,25.4-25.5,38.2-38.2
		c1.2-1.2,1.7-2.3,1.7-4c-0.1-11.8,0-23.7,0-35.5c0-0.7,0-1.4,0-2.6c-0.7,0.5-1.2,0.8-1.6,1.2c-4,4-8,8-12.1,12
		c-24.7,24.7-49.3,49.3-74,74c-2.3,2.3-4.8,3.8-8.1,4.4c-6.3,1.1-12.3-2.9-14.3-8.1c-0.3-0.9-0.8-1.7-1.2-2.6v-5.3
		c0.3-0.4,0.7-0.8,0.9-1.2c0.8-2,1.9-3.9,3.4-5.4c35.3-35.3,70.6-70.6,106-105.9c1.1-1.1,1.7-1.9-0.1-5.4c-3-5.8-2.5-12.7,1-18.3
		c0.2-0.3,0-0.3-0.3-0.9c-0.7,0.6-1.3,1.2-1.8,1.8C-258-39-268.9-28.1-279.7-17.3c-2.4,2.4-5.1,4-8.5,4.5c-8,1.2-15.5-5.8-14.9-13.9
		c0.3-3.4,1.6-6.3,4-8.8c17.7-17.7,35.4-35.4,53.1-53.1c1-1,1.6-1.7,0.7-4.1c-2.5-7.2-1.7-14.9,0.3-22.2c0.1-0.3-0.1-0.5-0.2-1
		c-0.7,0.6-1.3,1.1-1.8,1.7c-6.8,6.8-13.5,13.6-20.4,20.3c-5.5,5.4-14.2,5.1-19.2-0.6c-4.7-5.3-4.4-13.1,0.7-18.2
		c13.4-13.4,41.6-41.3,42.4-41.9c-0.1-0.1-0.1-0.1-0.2-0.2h0.6v-24.2c4.1-4.2,8.3-8.4,12.5-12.7c26.5-26.9,53-53.8,79.5-80.6
		c14.3-14.5,28.7-29,42.9-43.6c0,0,0,0,0.1-0.1c3.4-3.4,8.1-5.2,13-5.2h440.8c0.6,0.3,1.2,0.7,1.9,0.9c4.1,1.6,7,4.2,8.1,8.4h0.5
		v1.3c0,1.9,0,3.8,0,5.8v31.2c0,1.6,0,3.2,0,4.8c0,0.5,0,0.9,0,1.4C355.3-263.9,353-261.4,350.6-259z M167,96.9c9.5,0,19,0,28.6,0
		c0-25,0-50,0-75.2c-9.6,0-19,0-28.6,0C167,46.8,167,71.7,167,96.9z M154.7-11.1c0,0.6,0,1.1,0,1.7c0.2,2.6,1.8,4.3,4.4,4.6
		c0.6,0.1,1.3,0,1.9,0c24.9,0,49.9,0,74.8,0c0.6,0,1.3,0,1.9,0c2.7-0.3,4.2-1.9,4.3-4.6c0-0.8,0-1.6,0-2.4c0-27.6,0-55.2,0-82.8
		c0-27.8,0-55.7,0.1-83.5c0-4.4-1.4-6.4-6.4-6.3c-24.9,0.1-49.7,0.1-74.6,0.1c-0.6,0-1.3,0-1.9,0c-2.5,0.1-4.2,1.6-4.5,4.1
		c-0.1,0.6,0,1.3,0,1.9C154.7-122.6,154.7-66.9,154.7-11.1z M153.9-210.5c2.1-0.4,4.3-0.5,6.4-0.5c25.4,0,50.7,0,76.1,0
		c7.8,0,14.8,2.1,20.9,7.1c0.2,0.2,0.5,0.4,1.1,0.7c17.6-17.8,35.1-35.7,52.7-53.5c-0.1-0.2-0.2-0.3-0.2-0.5c-0.9,0-1.8,0-2.6,0
		c-132.4,0-264.8,0-397.2,0c-2.1,0-3.5,0.6-5,2.1c-21.5,21.9-43.1,43.8-64.6,65.7c-15,15.2-30,30.4-44.9,45.7
		c-0.4,0.4-0.8,0.9-1.5,1.6c111.1,0,221.9,0,333.1,0c0-0.8,0-1.7,0-2.5c0-11.6,0.1-23.2,0-34.8C127.9-193.9,137.8-207.7,153.9-210.5
		z M-33.7,207.8c1.4,7.2,7.6,12.4,14.9,12.6c0.6,0,1.3,0,1.9,0c46.6,0,93.3,0,139.9,0c4.3,0,8.2-0.9,11.5-3.8
		c3.6-3.1,5.5-7,5.6-11.7c0-0.6,0-1.3,0-1.9c0-61.6,0-123.2,0-184.8c0-1,0-1.9,0-3c-5.8-4.7-9.7-10.4-11.2-17.6
		c-0.5-2.4-0.8-4.9-0.8-7.4c-0.1-12.7,0-25.4,0-38.2c0-0.9,0-1.7,0-2.9c-1.9-0.1-3.7-0.4-5.5-0.4c-42.2,0-84.3,0-126.5,0
		c-4.6,0-9.3-0.1-13.9,0c-7.4,0.1-13.3,4.4-15.5,11.1c-0.5,1.4-0.6,3-0.8,4.5c-0.1,1-0.1,2.1-0.1,3.1c0,74.1,0,148.2,0,222.2
		c0,1.5,0.3,3,0.3,4.5c0.1,1.5,0.1,3.1-0.1,4.5C-34.2,201.8-34.3,204.8-33.7,207.8z M-218.3,96.6c0.1,0.1,0.1,0.1,0.2,0.2
		c0.1,0.1,0.1,0.1,0.2,0.1c0.7,0,1.4,0.1,2.1,0.1c51.5,0,103,0,154.5-0.1c0.1,0,0.3-0.1,0.7-0.4c0-0.9,0-1.9,0-2.9
		c0-42.4,0-84.8,0-127.2c0-6.6,0.9-13.1,3.7-19.1c6.4-13.5,17-21.7,31.7-24.5c2.2-0.4,4.4-0.6,6.7-0.6c48.3,0,96.6,0,144.9,0
		c0.5,0,0.9,0,1.6,0c0-10.7,0-21.1,0-31.6c-115.5,0-230.8,0-346.3,0C-218.3-40.6-218.3,28-218.3,96.6z M-218.6-168v8l113.4-113.4
		v-10.7L-218.6-168z M318.7-294.4c0,0-370.9,0-402.3,0v10.6c31.5,0,402.3,0,402.3,0V-294.4z"/>
</symbol>
<symbol  id="Nowy_symbol_1" viewBox="-48.8 -62.3 97.7 124.6">
	<g>
		<polyline class="st0" points="-34.8,-32.5 -34.8,4.3 -14,4.3 -14,-32.5 		"/>
		<polygon points="-12,-32.5 -16,-32.5 -16,2.3 -32.8,2.3 -32.8,-32.5 -36.8,-32.5 -36.8,6.3 -12,6.3 		"/>
	</g>
	<g>
		<rect x="-31.1" y="-1.9" width="3.1" height="3.1"/>
		<rect x="-26" y="-1.9" width="3.1" height="3.1"/>
		<rect x="-20.9" y="-1.9" width="3.1" height="3.1"/>
	</g>
	<g>
		<rect x="-31.1" y="-7.1" width="3.1" height="3.1"/>
		<rect x="-26" y="-7.1" width="3.1" height="3.1"/>
		<rect x="-20.9" y="-7.1" width="3.1" height="3.1"/>
	</g>
	<g>
		<rect x="-31.1" y="-12.3" width="3.1" height="3.1"/>
		<rect x="-26" y="-12.3" width="3.1" height="3.1"/>
		<rect x="-20.9" y="-12.3" width="3.1" height="3.1"/>
	</g>
	<g>
		<rect x="-31.1" y="-17.4" width="3.1" height="3.1"/>
		<rect x="-26" y="-17.4" width="3.1" height="3.1"/>
		<rect x="-20.9" y="-17.4" width="3.1" height="3.1"/>
	</g>
	<g>
		<rect x="-31.1" y="-22.6" width="3.1" height="3.1"/>
		<rect x="-26" y="-22.6" width="3.1" height="3.1"/>
		<rect x="-20.9" y="-22.6" width="3.1" height="3.1"/>
	</g>
	<g>
		<rect x="-31.1" y="-27.8" width="3.1" height="3.1"/>
		<rect x="-26" y="-27.8" width="3.1" height="3.1"/>
		<rect x="-20.9" y="-27.8" width="3.1" height="3.1"/>
	</g>
	<g>
		<rect x="-31.1" y="-33.4" width="1.5" height="3.9"/>
		<rect x="-23.9" y="-35.5" transform="matrix(6.123234e-17 -1 1 6.123234e-17 9.4897 -53.2977)" width="3.9" height="8.2"/>
	</g>
	<g>
		<polyline class="st0" points="44.7,-33 44.7,-60.3 -46.8,-59.4 -46.8,-28.8 -26,-6.4 -5.2,-28.8 -5.2,-55.7 		"/>
		<polygon points="46.7,-62.3 -48.8,-61.4 -48.8,-28 -26,-3.5 -3.2,-28 -3.2,-55.7 -7.2,-55.7 -7.2,-29.6 -26,-9.4 -44.8,-29.6 
			-44.8,-57.4 42.7,-58.3 42.7,-33 46.7,-33 		"/>
	</g>
	<g>
		<rect x="-39.5" y="-36" width="6.1" height="6.1"/>
		<rect x="-29.2" y="-36" width="6.1" height="6.1"/>
		<rect x="-19" y="-36" width="6.1" height="6.1"/>
	</g>
	<g>
		<rect x="-39.5" y="-46.5" width="6.1" height="6.1"/>
		<rect x="-29.2" y="-46.5" width="6.1" height="6.1"/>
		<rect x="-19" y="-46.5" width="6.1" height="6.1"/>
	</g>
	<g>
		<rect x="-39.5" y="-60.3" width="3" height="10.6"/>
		<rect x="-26.4" y="-63.1" transform="matrix(6.123234e-17 -1 1 6.123234e-17 33.8993 -76.0212)" width="10.6" height="16.4"/>
	</g>
	<rect x="30.8" y="-60.3" width="3" height="27.3"/>
	<rect x="34.9" y="-60.3" width="3" height="27.3"/>
	<rect x="39.1" y="-60.3" width="3" height="27.3"/>
	<path class="st0" d="M15.4-1.5c-12.6,0-23.1-8.6-26.1-20.2c-0.1-3.7-0.2-7.4-0.5-11.1C-9-45.6,2-55.3,15.4-55.3
		c14.9,0,26.9,12.1,26.9,26.9S30.3-1.5,15.4-1.5z"/>
	<path d="M15.4,5C2.1,5-9.5-2.9-14.8-14.2c2.2-0.3,4.2-1.9,4.2-4.8c0-9.1-0.7-18.2-1.7-27.3c0-0.2-0.1-0.4-0.1-0.6
		c6-9,16.2-14.9,27.8-14.9c18.4,0,33.4,15,33.4,33.4C48.8-10,33.8,5,15.4,5z M15.4-48.8C4.1-48.8-5-39.7-5-28.4S4.1-8,15.4-8
		s20.4-9.2,20.4-20.4S26.7-48.8,15.4-48.8z"/>
	<g>
		<circle class="st0" cx="15" cy="-27.9" r="10.9"/>
		<path d="M15-42.4c-8,0-14.4,6.5-14.4,14.4S7-13.5,15-13.5S29.4-20,29.4-27.9S22.9-42.4,15-42.4z M15-20.5c-4.1,0-7.4-3.3-7.4-7.4
			c0-4.1,3.3-7.4,7.4-7.4s7.4,3.3,7.4,7.4C22.4-23.9,19.1-20.5,15-20.5z"/>
	</g>
	<g>
		<polygon class="st0" points="-13.7,-57.5 -13.7,2.2 0.9,40.9 16.2,4.7 16.2,-57.5 		"/>
		<path d="M19,2.7v-62.9h-35.5V2.7L0.7,45.8L19,2.7z M13.5-54.8v59L1,33L-11,1.7v-56.5H13.5z"/>
	</g>
	<rect x="-13" y="2.2" width="30" height="5.5"/>
	<rect x="-6.6" y="-58.8" width="5.5" height="63.7"/>
	<rect x="3.6" y="-58.8" width="5.5" height="63.7"/>
	<path d="M-2.1,26.4h5.8c1.1,0,1.9,1,1.5,2.1l-2.7,8.9c-0.5,1.5-2.5,1.5-3.1,0.1l-3.1-8.9C-4,27.5-3.2,26.4-2.1,26.4z"/>
	<path class="st1" d="M40.7-20.3"/>
	<path class="st0" d="M-1.1,28.2l1.9,6.4L1,30.3C1,29.1,0,28.2-1.1,28.2L-1.1,28.2z"/>
	<rect x="-21.4" y="38.4" width="13.8" height="3"/>
	<rect x="9.6" y="38.4" width="13.8" height="3"/>
	<rect x="8.8" y="43.2" transform="matrix(0.9513 -0.3083 0.3083 0.9513 -13.0124 7.018)" width="13.8" height="3"/>
	<rect x="6.6" y="47.5" transform="matrix(0.81 -0.5864 0.5864 0.81 -26.1647 17.2311)" width="13.8" height="3"/>
	<rect x="3.2" y="50.9" transform="matrix(0.59 -0.8074 0.8074 0.59 -38.1886 29.6533)" width="13.8" height="3"/>
	<rect x="-1.1" y="53.1" transform="matrix(0.3125 -0.9499 0.9499 0.3125 -47.911 43.0699)" width="13.8" height="3"/>
	<rect x="-5.9" y="53.9" transform="matrix(4.557244e-03 -1 1 4.557244e-03 -54.3881 56.1847)" width="13.8" height="3"/>
	<rect x="-5.3" y="47.8" transform="matrix(0.9527 -0.3038 0.3038 0.9527 -16.791 1.4447)" width="3" height="13.8"/>
	<rect x="-9.6" y="45.6" transform="matrix(0.8127 -0.5827 0.5827 0.8127 -32.107 5.1295)" width="3" height="13.8"/>
	<rect x="-13" y="42.2" transform="matrix(0.5936 -0.8047 0.8047 0.5936 -44.2018 10.6891)" width="3" height="13.8"/>
	<rect x="-15.2" y="37.9" transform="matrix(0.3168 -0.9485 0.9485 0.3168 -51.9028 17.5842)" width="3" height="13.8"/>
</symbol>
<symbol  id="Nowy_symbol_10" viewBox="-337.9 -366 675.8 732">
	<path d="M337.9,130.3c0-2.7,0-5.4,0-8.2c-0.2-1.7-0.4-3.5-0.7-5.2c-2-10.7-6.9-19.8-14.6-27.5c-19.2-19.2-38.5-38.5-57.7-57.7
		c-0.7-0.7-1.3-1.4-2-2c0.3-0.9,0.4-1.7,0.7-2.4c8-25.2,12.5-51,13.7-77.4c0.8-17.1,0.1-34.2-2.1-51.2c-2-15.5-5.1-30.7-9.5-45.7
		c-17.3-58.4-49.1-107.4-95.7-146.7c-36.7-30.9-78.6-51.6-125.3-62.5c-0.9-0.2-2-0.4-2.8-0.1c-2.6,0.8-5,0.5-7.4-0.5
		c-0.5-0.2-1.1-0.3-1.6-0.5c-10.5-2.5-21.1-4.4-31.8-5.8c-11-1.4-22.1-2.1-33.2-2.6c-0.6,0-1.3-0.2-1.9-0.2c-1.9,0-3.8,0-5.8,0
		c-0.7,0.1-1.4,0.2-2.1,0.2c-10.4,0.3-20.8,1-31.1,2.3c-12,1.5-23.8,3.6-35.5,6.6c-48.9,12.2-92.3,35.1-129.7,68.8
		c-41.4,37.3-70.2,82.8-86.4,136.2c-6.2,20.4-10.2,41.2-11.9,62.5c-0.4,4.5-0.9,8.9-1.3,13.3c0,7.8,0,15.7,0,23.5
		c0.3,2,0.6,4.1,0.8,6.2c0.8,8,1.4,16.1,2.5,24.1c2.5,18.9,7,37.4,13.3,55.4c19.1,54.6,51,100.3,96,136.7
		c35.8,29,76.3,48.3,121.2,58.7c0.7,0.2,1.5,0.4,2.1,0.1c2.6-1.1,5.1-0.6,7.6,0.5c0.7,0.3,1.5,0.4,2.3,0.6c7,1.4,13.9,3,20.9,4.1
		c6.9,1.1,13.9,1.8,20.9,2.6c2.2,0.3,4.3,0.4,6.7,0.7c-0.7,0.9-1.2,1.6-1.7,2.3c0.6,0.6,1.1,1.1,1.6,1.6
		c37.1,37.1,74.2,74.2,111.3,111.3c6.1,6.1,13.3,10.1,21.6,12.2c2.2,0.5,4.5,1,6.8,1.4c3.4,0,6.7,0,10.1,0c1-0.2,2-0.4,3-0.6
		c11.9-2.3,21.7-8.1,29.3-17.7c0.9-1.2,1.9-2.3,3-3.4C197,288.7,252.7,233,308.4,177.3c4.8-4.8,9.6-9.6,14.4-14.4
		c7.5-7.5,12.3-16.5,14.2-26.9C337.4,134.1,337.6,132.2,337.9,130.3z M146,302.6c-0.5-0.6-0.7-0.7-0.7-0.9c-0.3-0.6-0.5-1.2-0.8-1.8
		c-2.2-5.3-5.3-10-9.3-14.1c-6.4-6.6-12.9-13.1-19.4-19.6c-12.7-12.9-25.4-25.7-38.1-38.6c-28.7-29-57.3-58-86-87
		c-17.4-17.6-34.9-35.3-52.3-52.9c-29.6-30-59.3-60-88.9-90c-11.6-11.8-23.3-23.6-34.9-35.3c-0.8-0.8-1.3-1.7-1.5-2.9
		c-1.3-7.8-1.9-15.7-1.9-23.6c0-0.2,0.1-0.4,0.3-0.8c0.7,0.7,1.4,1.2,2,1.8c8.5,8.5,17,17,25.5,25.4c3.2,3.2,6.2,3.2,9.4,0
		c4.4-4.4,8.7-8.9,13.3-13.2c2.8-2.6,3.1-6.7-0.1-9.6c-4.1-3.7-7.8-7.8-11.7-11.7c-7-7-14-13.8-20.8-20.9c-2.7-2.9-7.1-3.2-9.8,0.1
		c-1.4,1.6-3,3.1-4.6,4.6c-0.4,0.4-0.9,0.8-1.5,1.3c9.8-70.4,68-119.4,127.1-126.9c-0.6,0.7-1.2,1.3-1.7,1.8
		c-3.2,3.2-6.4,6.3-9.5,9.5c-2.6,2.7-2.5,5.8,0,8.5c0.4,0.5,0.9,0.9,1.4,1.4c10,10,20,20,30,30c0.8,0.8,1.6,1.6,2.4,2.4
		c2.6,2.4,5.9,2.5,8.4,0c4.9-4.8,9.7-9.6,14.4-14.4c2.4-2.4,2.3-5.7,0-8.2c-0.4-0.5-0.9-0.9-1.4-1.4c-9.7-9.7-19.5-19.5-29.2-29.2
		c-0.6-0.6-1.1-1.2-1.9-2.1c0.9-0.1,1.3-0.2,1.6-0.2c7.3,0.2,14.5,0.3,21.8,0.5c2.2,0.1,3.8,0.9,5.4,2.5
		C89.6-105.9,196.4,0.9,303.2,107.7c0.7,0.7,1.4,1.4,2,2.1c4,4.5,6.1,9.8,6.2,15.7c0.2,7.6-2.7,13.9-8.1,19.3
		c-52,51.9-103.9,103.8-155.8,155.8C147,301.1,146.6,301.8,146,302.6z M-144.5,187.4C-257.6,140.9-337.7,9.7-302.9-131.2
		c4.9-19.8,11.9-38.8,21.1-57c9.2-18.3,20.3-35.3,33.3-51.1c13-15.7,27.6-29.8,43.7-42.3c16.2-12.5,33.5-23.1,52.1-31.8
		c18.4-8.6,37.6-15.1,57.4-19.5c18.2-4,53.2-7.5,60.7-6c-22.5,5.2-44.7,10.4-67.3,15.6c7.4,7.6,14.5,14.9,21.9,22.4
		c-33.8,5.5-64.6,17.5-92.9,36c-28.2,18.5-51.4,42.1-69.5,70.6c-18.1,28.5-29.5,59.6-34.3,93.1c-5.9,41.4-1.3,81.7,14.3,120.5
		c23,56.8,62.4,98.5,117.3,125.8C-148.1,159.2-148.3,173.2-144.5,187.4z M-135.6,120.1c-1.3-0.6-2.3-1.1-3.3-1.6
		C-179.6,97.2-210.3,66-230.8,25c-13.2-26.4-20.3-54.4-21.6-83.9c-0.4-9.4-0.1-18.9,0.8-28.3c1.1-11.6,3.1-23,6.1-34.2
		c12-44.3,35.8-81,71.6-109.8c24.6-19.8,52.4-33.2,83.1-40.4c10.9-2.6,21.9-4.2,33.1-5.1c1.2-0.1,1.9,0.5,2.6,1.2
		c3.8,4,7.7,8,11.6,11.8c1.2,1.2,1.9,2.4,2.2,4.1c0.9,5.1,2.4,9.9,4.4,14.7c0.3,0.6,0.5,1.3,0.8,2.2c-41.6,0.4-78.9,13.1-111.3,38.9
		c-32.5,25.9-53.3,59.3-62.5,99.8c-7.9,34.6-5.6,68.7,7.1,101.8c16.7,43.7,46.5,75.8,88.3,97.1C-123.4,102-130.2,110.3-135.6,120.1z
		 M241.6,7.8c-0.3,0.1-0.5,0.3-0.8,0.4c-0.5-0.7-1-1.5-1.6-2.1c-7.3-7.4-14.6-14.8-22.1-22c-1.5-1.5-1.8-2.9-1.5-4.8
		c1.7-9.2,2.7-18.5,3.1-27.9c0.8-17.3-0.2-34.5-3.1-51.6c-4.1-23.8-11.6-46.5-22.8-67.9c-24.1-46.1-59.4-80.8-106.1-103.9
		c-0.6-0.3-1.2-0.7-1.8-1c1.5-7.1,2.4-14.1,2.3-21.1c-0.1-7-1-14-2.9-21.3c33.4,14.3,62.5,34.1,87.5,59.7
		c40,40.9,65.1,89.6,75.1,145.9C254-70.3,251.9-31,241.6,7.8z M75.5-247.9c0.9,0.4,1.6,0.7,2.3,1.1c24.4,12.5,45.8,28.9,63.6,49.8
		c37.3,44,54.1,94.9,50.5,152.6c-0.1,0.8-0.3,1.6-0.4,2.6c-0.6-0.5-0.8-0.6-1-0.9c-11.9-11.9-23.9-23.9-35.8-35.8
		c-0.7-0.7-1-1.5-1.1-2.5c-0.8-7.4-2-14.7-3.6-22c-11.9-51.5-46-95.1-93-118.8c-0.7-0.4-1.4-0.7-2.3-1.3
		C63.4-229.9,70.2-238.3,75.5-247.9z M-78.2,110.4c14,14.3,27.9,28.5,41.9,42.9c-7.1,3.1-12.1,7.9-14.8,14.9c-2.7,7.1-2.3,14,0.9,21
		c-0.9,0.2-1.6,0.5-2.3,0.6c-15.6,3.6-31.2,7.2-46.8,11c-2.6,0.6-4.6,0.2-6.7-1.2c-5-3.3-8.3-7.9-10.7-13.2
		c-3.6-8.2-4.6-16.7-3.9-25.5c0.9-11.5,4.4-22.2,10.7-31.9c3.8-5.9,8.4-10.9,14.4-14.6c3.7-2.3,7.7-3.8,12.2-3.9
		C-81.7,110.4-79.9,110.4-78.2,110.4z M-9.9-317.2c0.6-0.2,1-0.3,1.3-0.4c15.8-3.7,31.5-7.2,47.3-11.1c3.2-0.8,5.6-0.2,8,1.7
		c1.6,1.3,3.2,2.7,4.6,4.2c3.6,4,5.8,8.8,7.3,13.9c2.9,9.9,2.7,19.9,0.5,29.9c-2.6,11.5-7.4,22-15.8,30.4c-6.5,6.6-14,11.5-24,9.8
		c-1.3,0.7-1.9-0.4-2.5-1.1c-12.3-12.5-24.5-25-36.7-37.5c-1.2-1.2-2.4-2.5-3.8-3.9c7.1-3,12-7.9,14.8-14.8
		C-6.2-303.2-6.8-310.2-9.9-317.2z M-9.5,237.7c7.8-0.8,15.2-1.4,22.7-2.2c9.2-1,18.3-2.6,27.4-4.6c1.7-0.4,2.9-0.1,4.2,1.2
		c17.9,18.2,35.8,36.3,53.7,54.5c5.8,5.9,11.6,11.7,17.3,17.6c4.7,4.8,6.4,10.6,5.8,17.3c-0.6,5.9-4.1,10-8,13.6
		c-4.3,3.9-9.8,5.1-15.7,4.3c-5.1-0.7-9.2-3.3-12.8-6.9c-31-31-62-62-92.9-93C-8.4,238.9-8.9,238.3-9.5,237.7z"/>
	<path d="M244.3,117.9c1.7,0,3.1-0.5,4.2-1.7c4.8-4.8,9.6-9.6,14.4-14.4c2.4-2.4,2.4-5.7,0.1-8.2c-0.3-0.4-0.7-0.7-1-1
		C251.4,82,240.7,71.3,230,60.6c-0.4-0.4-0.8-0.8-1.2-1.2c-2.4-2.1-5.4-2.1-7.8,0c-1.5,1.3-2.9,2.8-4.3,4.2
		c-3.3,3.3-6.6,6.5-9.8,9.8c-3.1,3.1-3.1,6.3,0,9.4c10.9,10.9,21.8,21.8,32.7,32.8C240.9,117,242.4,118,244.3,117.9z"/>
	<path d="M195.5,28.7c0.1-1.6-0.4-2.9-1.4-4c-0.5-0.5-1-1-1.5-1.5c-10.5-10.5-21-21-31.6-31.6c-0.4-0.4-0.8-0.8-1.2-1.2
		c-2.6-2.3-5.7-2.3-8.2,0.1c-2.7,2.6-5.2,5.2-7.8,7.8c-2,2-3.9,4.1-6,5.9c-3,2.7-3.3,6.6,0.1,9.8c3.7,3.4,7.2,7.1,10.7,10.7
		c7.2,7.2,14.5,14.5,21.7,21.7c0.9,0.9,2.1,1.9,3.3,2.2c2.1,0.6,4.1,0.2,5.8-1.4c4.8-4.8,9.6-9.6,14.4-14.4
		C194.9,31.6,195.6,30.2,195.5,28.7z"/>
	<path d="M126.7-40.7c-0.5-1.2-1-2.5-1.6-3.6c-0.3-0.6-1-1.1-1.5-1.6C113-56.4,102.4-67,91.8-77.6c-0.4-0.4-0.8-0.8-1.2-1.2
		c-2.6-2.3-5.7-2.3-8.2,0.1c-2.3,2.2-4.5,4.5-6.8,6.8c-2.4,2.4-4.8,4.7-7.1,7.1c-3.1,3.1-3.1,6.2,0,9.4c2.7,2.7,5.4,5.4,8.1,8.1
		c8,8,15.9,15.9,23.9,23.9c0.5,0.5,0.9,0.9,1.4,1.3c2.6,2.2,5.8,2.3,8.2-0.1c4.9-4.7,9.6-9.6,14.4-14.4
		C125.8-37.5,126.4-38.9,126.7-40.7z"/>
	<path d="M57.2-109.5c0.1-1.7-0.4-3.1-1.6-4.2c-11.4-11.4-22.7-22.8-34.1-34.1c-2.4-2.4-5.7-2.4-8.2,0c-4.9,4.8-9.8,9.7-14.6,14.6
		c-2.2,2.3-2.2,5.4-0.2,7.8c0.3,0.3,0.5,0.6,0.8,0.9c10.9,10.9,21.8,21.8,32.7,32.7c1.1,1.1,2.2,2,3.8,2.3c1.9,0.2,3.7-0.2,5.1-1.6
		c4.9-4.9,9.7-9.7,14.6-14.6C56.7-106.8,57.3-108.1,57.2-109.5z"/>
	<path d="M121.3,241.2c1.6,0.1,2.9-0.6,3.9-1.6c4.9-4.9,9.8-9.7,14.6-14.6c2.3-2.4,2.3-5.5,0-8c-0.5-0.5-1-1-1.5-1.5
		c-10.4-10.4-20.8-20.8-31.2-31.2c-0.5-0.5-0.9-0.9-1.4-1.4c-2.5-2.3-5.7-2.5-8.2-0.1c-4.9,4.8-9.8,9.7-14.6,14.6
		c-2.5,2.6-2.3,5.8,0.5,8.5c8.2,8.3,16.5,16.5,24.8,24.8c2.9,2.9,5.8,5.8,8.7,8.6C118.4,240.9,119.3,241.2,121.3,241.2z"/>
	<path d="M32.5,112.1c-1.6-0.1-3,0.5-4.1,1.6c-4.9,4.9-9.8,9.7-14.6,14.6c-2.3,2.4-2.3,5.5-0.1,8c0.4,0.5,0.9,0.9,1.3,1.4
		c10.5,10.5,21,21,31.6,31.6c0.4,0.4,0.8,0.8,1.2,1.2c2.5,2.3,5.7,2.5,8.2,0.1c4.9-4.8,9.8-9.7,14.6-14.6c2.5-2.5,2.3-5.7-0.3-8.3
		c-5.2-5.3-10.5-10.5-15.8-15.8c-5.8-5.8-11.7-11.6-17.5-17.5C35.8,113,34.5,111.9,32.5,112.1z"/>
	<path d="M-17,102.9c1.5,0.1,2.9-0.6,4-1.7c4.8-4.8,9.7-9.6,14.4-14.4c2.4-2.5,2.4-5.8-0.1-8.3C-9.9,67.2-21.2,55.9-32.5,44.7
		c-2.6-2.6-5.9-2.5-8.5,0.1c-4.7,4.7-9.4,9.4-14.1,14.1c-2.6,2.7-2.7,5.9-0.1,8.5c11.2,11.3,22.5,22.5,33.8,33.8
		C-20.2,102.3-18.8,103-17,102.9z"/>
	<path d="M-105.6-26.2c-1.8-0.1-3.2,0.4-4.3,1.6c-4.9,4.9-9.8,9.7-14.6,14.6c-2.4,2.5-2.3,5.6,0.1,8.1c1.8,1.9,3.7,3.7,5.6,5.6
		c9.2,9.2,18.5,18.4,27.6,27.7c3.1,3.2,6.9,3,9.8,0c4.2-4.5,8.6-8.8,13.1-13.1c2.7-2.6,3.1-6.5-0.1-9.6C-79.3-2-90.1-13-101-23.8
		C-102.3-25.2-103.7-26.4-105.6-26.2z"/>
	<path d="M84.6,277.8c0.1-1.5-0.4-2.8-1.4-4c-0.4-0.5-0.9-0.9-1.3-1.4c-10.6-10.6-21.2-21.2-31.7-31.7c-0.5-0.5-0.9-0.9-1.4-1.3
		c-2.4-2.1-5.4-2.1-7.8,0c-1.6,1.4-3,2.9-4.4,4.4c-3.2,3.2-6.5,6.4-9.7,9.7c-3.1,3.2-3.1,6.2,0,9.4c11,11,21.9,22,32.9,32.9
		c3,3,6.2,3,9.2,0c4.5-4.5,9-9.1,13.6-13.6C83.8,281,84.7,279.6,84.6,277.8z"/>
</symbol>
<symbol  id="Nowy_symbol_11" viewBox="-255.2 -247.3 557.5 647.7">
	<path d="M-5.3-247.3c-0.5,0.1-1.1,0.3-1.8,0.4c-1.1,0.1-2.2,0.3-3.4,0.4c-2,0.2-3.8,0.4-5.6,0.7c-20.9,3.8-39.2,13-54.5,27.5
		c0,0-17.4,16.6-21.6,20.5l-13.1,12.5c-16.1,15.2-32.7,31-49,46.5c-1.9,1.8-4,2.7-6.3,2.7c-1.2,0-2.4-0.2-3.7-0.8
		c-2.7-1.1-5.8-1.6-9.2-1.6l-0.2,0c-1.3,0-2.6,0-3.9,0c-1.6,0-7.9,0-9.5,0c-2.8,0-5.6,0-8.4,0.1c-2,0-4.4,0.1-6.4,0.7
		c-14.2,3.8-23.5,12.5-28.7,26.6c-2,5.6-2,11.8,0,18.3c0.2,0.8,0.6,1.6,0.9,2.4c0.2,0.5,0.4,0.9,0.5,1.4l1.7,4.7l-5.1,2.6
		c-0.5,0.3-1,0.5-1.4,0.7c-11.5,5.6-18.2,14.4-20.6,26.9c-0.2,1-0.5,1.9-0.8,2.6v7c0.3,0.7,0.6,1.5,0.8,2.6
		c1.3,7.6,4.6,13.9,10.1,19.4l5.4,5.5l-3.6,4l-0.3,0.4c-0.3,0.4-0.6,0.7-0.9,1c-5.9,5.7-9.4,12.4-10.8,20.4c-0.2,1-0.5,1.8-0.8,2.5
		v6.9c0.3,0.7,0.6,1.6,0.8,2.7c1,5.7,3.2,10.8,6.6,15.2c1,1.4,2.2,2.7,3.4,4.1c0.6,0.7,1.2,1.4,1.8,2.1l2.3,2.7l-1.4,3.1
		c-0.1,0.4-0.5,1.1-1,1.8c-0.4,0.5-0.8,0.9-1.1,1.2c-5.8,5.7-9.3,12.3-10.7,20.2c-0.2,1-0.5,1.8-0.8,2.5v7.2c0.1,0.3,0.2,0.7,0.3,1
		c0.3,1.3,0.7,2.6,1,4c3.8,15.9,18.3,27.5,34.6,27.5l0.2,0c5.3,0,10.2-1,15-3.1c0.5-0.2,1-0.4,1.5-0.6l0.7-0.3l7.7-2.9l0,41.9
		c0,26.8,0,53.6,0,80.4c0,8.4,2.5,16,7.4,22.5c6.9,9.3,15.6,13.7,26.4,13.7l0.4,0c6.4-0.1,13.2-0.1,21.5-0.1c5.4,0,10.8,0,16.1,0
		c5.4,0,10.7,0,16.1,0l10.7,0c3.4,0,6.8,0,10.2,0c0,0,0,0,0,0c3,0,5.4,1.2,7.3,3.4c1.6,2,3,3.5,4.3,4.8c10.7,10.1,23,15,37.6,15
		l0.2,0c4.1,0,8.2,0,12.2,0c4.3,0,19.9,0,19.9,0c0.7,0,1.3,0,2.1,0.1l0.8,0l5.4,0.3l0,7c0,1,0,1.8,0,2.7c0,2.6,0,5.2,0.1,7.9
		c0,5.8,0,11.8,0.3,17.6c0.6,11.3,3.8,22.2,9.5,32.5c13.2,23.9,32.7,37.9,59.5,42.9c1.8,0.3,3.7,0.6,5.6,0.9
		c0.8,0.1,1.5,0.2,2.3,0.4h39.3l0.1,0c0.7-0.1,1.3-0.3,2-0.4c1-0.1,2-0.3,2.9-0.4c1.7-0.2,3.3-0.4,4.9-0.7
		c16.9-3.3,31.6-11.3,43.9-23.5c2.5-2.5,5-5,7.5-7.5c4.3-4.3,8.8-8.8,13.2-13.2c2.3-2.3,4.9-3.4,8.2-3.4c7.5,0,15,0.1,22.5,0.1
		c6.9,0,13.2,0,19.2-0.1c3.7,0,6.9-0.3,9.8-0.8c23.5-4,41.7-21.8,46.3-45.2c0.2-1,0.4-2.1,0.6-3.2c0.1-0.4,0.1-0.7,0.2-1.1v-21.6
		c0-0.3-0.1-0.6-0.1-0.9c-0.1-0.9-0.3-1.7-0.4-2.5c-5.2-23.4-18.8-38.1-41.7-44.9l-5.3-1.6l-0.9-2.9c-0.2-0.7-0.4-1.4-0.6-2
		c-0.4-1.3-0.7-2.5-1.1-3.7c-7.2-22-27.4-37.6-50.1-38.9c-3.6-0.2-7.3-0.2-11.1-0.2c-1.7,0-3.5,0-5.2,0c-0.3,0-0.6,0-0.9,0l-1.8,0
		h-7.4l1.9-7.1c1.9-7.1-0.8-10.1-3.7-12c-1.7-1.1-3.4-1.7-5.1-1.7c-1.5,0-3.1,0.5-4.7,1.4c-3.1,1.9-6.1,4.8-4.2,12.3l1.8,7h-39.7
		l1.1-6.6c1.4-8.4-0.9-10.7-3.4-12.3c-1.8-1.2-3.7-1.8-5.4-1.8c-1.5,0-3.1,0.5-4.6,1.4c-3.1,1.9-6.1,4.8-4.2,12.3l1.7,7H69l1.8-7.1
		c1.8-7.1-0.8-10-3.7-11.9c-1.7-1.2-3.5-1.7-5.1-1.7c-1.6,0-3.3,0.5-4.9,1.6c-3,1.9-5.9,4.9-4,12l1.9,7.1H36.1v-25.2l1.2-1.5
		c0.3-0.4,0.9-1.2,2-1.8c0.3-0.2,0.6-0.3,0.9-0.5l0.6-0.3c3.6-2,5.2-4.6,5.2-8.5c0-3.9-1.6-6.6-5.1-8.4c-4.9-2.6-4.9-6.9-4.9-8.4
		c0-27.8,0-55.6,0-83.4l0-31.1c0-0.6,0-1.3,0.1-2l0-0.8l0.3-4.9l4.8-0.5c0.2,0,0.4,0,0.5-0.1c0.5-0.1,1.1-0.1,1.8-0.1l10.3,0
		c4.5,0,9,0,13.6,0c5.7,0,11.5,0,17.2,0c7.9,0,14.3,3.6,18.6,10.3c2.2,3.4,3.3,7.5,3.3,12c0,2.7,0.7,4.7,2.2,6.5
		c1.8,2.2,4.5,3.5,7.4,3.5c1.1,0,2.1-0.2,3.1-0.5c3.9-1.4,6.3-4.9,6.4-9.3c0-10.4-3.2-19.5-9.6-27c-8.2-9.6-18.5-14.3-31.4-14.5
		c-3.2,0-6.5,0-9.7,0c-2.5,0-4.9,0-7.4,0c-2.5,0-5,0-7.5,0l-1.2,0c-0.6,0-1.2,0-1.9-0.1c-0.3,0-0.6,0-0.9-0.1l-10.2-0.5l5.8-8.4
		l0.2-0.4c0.2-0.3,0.5-0.7,0.8-1.1l5.6-6.4c4.8-5.6,9.7-11.2,14.5-16.8c2.6-3.1,5.9-3.1,7-3.1c0.7,0,1.4,0,2.1,0c1.3,0,2.6,0,3.9,0
		c1.3,0,2.6,0,4,0c2.5,0,4.5,0,6.3,0.1c3.4,0.1,7.5,0.2,11.6,0.9c20.8,3.6,36.2,15.1,45.8,34.2c4.3,8.5,6.3,18.1,6.1,29.1
		c-0.1,5.3-0.1,9.9,0,14.2c0.1,5.4,4.3,9.6,9.4,9.6c1.1,0,2.1-0.2,3.2-0.5c4-1.3,6.4-5,6.5-9.7l0-0.9c0.1-4.2,0.1-8.6,0-12.8
		l-0.1-1.7c-0.1-4.4-0.3-8.5-0.9-12.5c-2.4-16.5-9.4-30.9-20.6-43c-13.1-14.1-29.3-22.5-48.3-25.2c-1.5-0.2-2.9-0.4-4.4-0.5
		c-0.7-0.1-1.4-0.2-2-0.2l-8-1l14.7-29.3l3.2-0.2c1.8-0.1,3.9-0.2,6.4-0.2c6.5,0,13.6,0.5,18.1,1.3c20.1,3.5,37.1,12.6,50.8,27.1
		c15.8,16.8,24.1,36.9,24.7,59.8C212-9.3,212-5.3,212-1.5l0,3.3c0,3.1,0,6.1,0,9.2c0,5.2,0,10.5,0,15.7c0,4.2,2.4,7.7,6.3,9.1
		c1,0.4,2.1,0.5,3.2,0.5c2.8,0,5.5-1.3,7.4-3.5c1.5-1.8,2.2-4.1,2.2-7.3c0-4,0-7.9,0-11.9c0-7.9,0-16.1,0-24.1
		c0-6.9-0.6-13.1-1.6-18.9c-5-28-18.8-50.9-41-68.2c-19.2-15-41.6-22.6-66.5-22.8c-0.7,0-1.4,0-2-0.1l-6.4-0.2v-5.5
		c0-0.5,0-0.9,0-1.3c0-0.9,0-1.7,0-2.6c0.3-7.6,0-13.9-0.8-19.8c-2.4-17.5-9-33.6-19.5-48c-4.7-6.4-10.3-12-16.3-17.9l-0.7-0.7
		c-17.2-17-37.9-27.2-61.6-30.2c-1.3-0.2-2.7-0.4-4-0.6c-0.4-0.1-0.9-0.1-1.3-0.2H-5.3z M-132.4-133.2l0.7-0.7
		c0.5-0.5,0.9-0.9,1.3-1.3c3.6-3.4,16.9-16,16.9-16c5.5-5.3,11.1-10.5,16.6-15.8c12.6-11.9,25.6-24.3,38.3-36.5
		c17.2-16.4,37.4-24.8,60.2-24.8c2.4,0,4.8,0.1,7.2,0.3c15.7,1.2,30.5,6.6,43.7,16.3c6.3,4.6,11.7,10.1,16.8,15.4l0.3,0.3
		c18.9,19.5,27.1,42.9,24.5,69.6c-1.7,17.5-8.4,33.2-19.9,46.5C45.3-46.1,15.7-12-13,21.1l-29.6,34.1c-0.4,0.5-0.8,0.9-1.2,1.2
		c-0.1,0.1-0.3,0.3-0.4,0.4l-4.7,4.7l-3.9-5.4c-0.2-0.2-0.3-0.5-0.5-0.7c-0.4-0.5-0.8-1.1-1.2-1.7c-8.4-13.3-9.6-27.2-3.7-41.4
		c6.6-15.9,15.2-30.7,25.4-43.7c5.2-6.6,10.6-13.1,15.8-19.5c2.4-2.9,4.8-5.8,7.1-8.7c0.4-0.5,0.8-1,1.2-1.5c-1-1.5-2.1-2.9-3.1-4.4
		c-3.9-5.5-8-11.2-12-16.8c-9.6-13.2-13.5-28-11.6-44c1.7-14.3,7.9-26.9,18.4-37.3c3.8-3.8,7.6-7.5,11.3-11.3l0.4-0.4l-13.5-13.4
		c-0.5,0.5-1.1,1.1-1.6,1.6c-3.7,3.7-7.5,7.5-11.2,11.3c-10.8,11.1-18,24.4-21.4,39.6c-0.4,1.7-0.7,3.5-1,5.3
		c-0.2,0.9-0.3,1.8-0.5,2.7l-0.9,4.6h-86.3L-132.4-133.2z M-178.8-119.5c1.3,0,2.7,0,4,0l0.4,0c3.2,0,6.2,1.2,8.5,3.4
		c7.7,7.4,8.1,17.7,1.2,25.6c-2.9,3.3-6.5,4.9-10.8,4.9l-0.3,0c-2.5,0-5.2-0.1-8.3-0.1c-3.1,0-6.2,0-9.3,0l-0.2,0
		c-7.2,0-13-3.4-17.4-10.3c-2.3-3.6-2.5-7.7-0.5-11.5c2.5-4.9,6.1-8.5,10.9-10.7c2.2-1,4.4-1.3,5.9-1.3c1.3,0,2.7-0.1,4.4-0.1
		c0.9,0,1.9,0,2.8,0c0.9,0,1.8,0,2.8,0c1,0,2,0,3,0C-180.7-119.5-179.7-119.5-178.8-119.5z M-159.6,246.2c-5.1,0-9.2-2.2-12.2-6.5
		c-2.3-3.4-3.5-7.2-3.5-11.8c0-79.9,0-159.9,0-239.8v-53.6l4.4-1c17.2-4,26.8-14.5,30.2-33.2l0.9-4.6h85.9l1.1,4.3
		c2.6,10.3,6.8,19.5,12.9,28l6.4,9l-104.4,0c-0.6,0-1.1,0-1.7,0c-5.6,0.3-10,2.6-13.4,7c-2.4,3.1-3.5,6.8-3.5,11.8
		c0,65.5,0,131.1,0,196.6l0,56.1c0,0.8,0,1.7,0.1,2.6c0.2,4.1,1.7,7.6,4.6,10.7c3.5,3.8,8,5.7,13.6,5.7c5.5,0,11.1,0,16.6,0l23,0
		c0.7,0,1.4,0,2.1,0.1l0.9,0l5.5,0.2v18.4c0,0-34.1,0-39.2,0c-12.2,0-21.5,0-30.2,0.1H-159.6z M-218.7-30.8
		c-9.4,0-17.1-7.7-17.1-17.1c0-9.4,7.5-17.2,16.9-17.3c0,0,0.2,0,0.2,0c4.5,0,8.9,1.9,12.1,5.1c3.3,3.3,5.1,7.6,5,12.1
		C-201.6-38.5-209.3-30.8-218.7-30.8z M-218.7,31.7c-9.5,0-17.1-7.5-17.1-17c-0.1-9.5,7.4-17.1,16.9-17.3l0.3,0
		c9.5,0,17.2,7.7,17.2,17.1C-201.5,24-209.2,31.7-218.7,31.7L-218.7,31.7z M-1.6,41.9l0-0.5c0-0.5,0-1.2,0-1.9
		c0.1-0.7,0.2-2.6,1.6-4.3c1.7-2,3.3-3.9,5.2-6.1l11.6-13.5v165.7H-1.6L-1.6,41.9z M-218.8,94.3c-9.4,0-17.1-7.7-17.1-17.1
		c0-9.4,7.5-17.2,16.9-17.2c0,0,0.2,0,0.2,0c4.6,0,9,1.8,12.2,5.1c3.2,3.3,5,7.6,5,12.1C-201.6,86.6-209.3,94.3-218.8,94.3
		L-218.8,94.3z M-10.2,269.3c-10.6,0-19.2,0-27.1-0.1c-13.3-0.1-23.9-6.9-30-18.9c-6.1-12-5.1-24.2,2.7-35.3
		c6.8-9.6,16.6-14.5,29.2-14.5c48.1,0,96.3,0,144.4,0c29.2,0,58.4,0,87.7,0c2.3,0,4.5,0,6.8,0.4c19,2.9,32.9,19.1,32.5,37.9
		c-0.1,3.1,0,6.2,0,9.3c0,0,0,0,0,0.1l3.8,0c2.1,0,4.5,0,7,0.1c16.6,0.4,31.2,11.9,35.6,27.9c1.8,6.7,1.5,13.4,1.3,18.9
		c-0.1,3-0.5,5.9-1.2,8.5c-4.1,16.6-19.6,28.7-36.7,28.7l-0.3,0c-6,0-12.5-0.1-20.9-0.1c-3.6,0-18.2,0-21.8,0c-3.8,0-7.7,0-11.5,0
		c-0.1,0-0.1,0-0.2,0c0,0-0.1,0.1-0.2,0.1c-11,11.1-20.9,21-30.1,30.1c-12.6,12.5-28.1,18.9-46,19c-4,0-8,0-11.9,0c-5,0-10,0-15,0
		c-6.9,0-13.7-1.1-20.1-3.3c-26.3-8.8-44.1-33.4-44.2-61.2c-0.1-11.6,0-23.4,0-34.7c0-4.3,0-8.6,0-12.9c-5.4,0-10.8,0-16.2,0
		C1.5,269.3-4.3,269.3-10.2,269.3z"/>
	<path d="M64.8,50.7c-2.7,0-5.2,1-7,2.9c-1.8,1.8-2.9,4.3-2.9,7c0,5.4,4.3,9.7,9.8,9.8l0.2,0c4.6,0,9.6-3.8,9.7-9.8
		c0-2.6-0.9-5-2.7-6.8C70.1,51.7,67.5,50.7,64.8,50.7L64.8,50.7z"/>
	<path d="M63.2,107.4c-2.6,0-5,1-6.8,2.8c-1.8,1.8-2.8,4.2-2.7,6.7c0,5.2,4.3,9.4,9.5,9.5c2.6,0,5-1,6.8-2.8
		c1.8-1.8,2.7-4.2,2.7-6.7C72.6,111.6,68.5,107.4,63.2,107.4L63.2,107.4z"/>
	<path d="M89.8,80.7c-5.3,0-9.4,4.2-9.4,9.5c0,2.6,1,5,2.8,6.8c1.8,1.8,4.1,2.8,6.7,2.8c5.4,0,9.5-4.2,9.5-9.5c0-2.6-1-5-2.8-6.8
		C94.7,81.7,92.3,80.7,89.8,80.7L89.8,80.7z"/>
	<path d="M194.1,80.7c-2.5,0-4.9,1-6.7,2.8c-1.8,1.8-2.8,4.2-2.8,6.7c0,5.2,4.3,9.4,9.5,9.5c2.6,0,5-1,6.8-2.8
		c1.8-1.8,2.8-4.2,2.8-6.7C203.6,85,199.4,80.7,194.1,80.7L194.1,80.7z"/>
	<path d="M195.4,134c-2.6,0-4.9,1-6.7,2.8c-1.8,1.8-2.8,4.2-2.8,6.8c0,5.2,4.3,9.4,9.5,9.4c2.6,0,4.9-1,6.7-2.8
		c1.8-1.8,2.8-4.2,2.8-6.9C204.8,138.3,200.6,134,195.4,134L195.4,134z"/>
	<path d="M116.4,54.1c-5.3,0-9.4,4.2-9.5,9.5c0,2.5,1,4.9,2.7,6.7c1.8,1.8,4.2,2.8,6.8,2.8c5.2,0,9.5-4.3,9.5-9.5
		c0-2.5-1-4.9-2.7-6.7C121.4,55.1,119,54.1,116.4,54.1L116.4,54.1z"/>
	<path d="M115.2,107.4c-5.2,0-9.4,4.3-9.4,9.5c0,5.3,4.2,9.5,9.5,9.5c5.3,0,9.4-4.2,9.4-9.5C124.8,111.6,120.6,107.4,115.2,107.4
		L115.2,107.4z"/>
	<path d="M222.1,107.4c-2.6,0-5,1-6.8,2.8c-1.8,1.8-2.8,4.2-2.7,6.7c0,5.3,4.2,9.4,9.5,9.4c2.6,0,5-1,6.8-2.8
		c1.8-1.8,2.8-4.2,2.8-6.7C231.6,111.6,227.3,107.4,222.1,107.4L222.1,107.4z"/>
	<path d="M168.5,54.1c-5.2,0.1-9.4,4.3-9.3,9.5c0,5.3,4.3,9.4,9.6,9.4c5.3-0.1,9.4-4.2,9.4-9.6c0-5.3-4.2-9.4-9.5-9.4L168.5,54.1z"
		/>
	<path d="M140.8,134c-5.2,0.1-9.5,4.3-9.5,9.5c0,2.5,1,4.9,2.8,6.7c1.8,1.8,4.2,2.8,6.7,2.8c5.3-0.1,9.5-4.2,9.5-9.5
		c0-5.2-4.2-9.5-9.4-9.5L140.8,134z"/>
	<path d="M220.7,54.1c-5.3,0-9.4,4.2-9.4,9.5c0,5.3,4.2,9.5,9.5,9.5c5.3,0,9.4-4.2,9.4-9.5C230.3,58.2,226.1,54.1,220.7,54.1
		L220.7,54.1z"/>
	<path d="M88.7,134c-5.3,0-9.4,4.2-9.4,9.4l0,0.2c-0.1,2.2,0.8,4.6,2.5,6.4c1.3,1.3,3.5,2.9,7,2.9c5.1,0,9.4-4.3,9.5-9.5
		c0-2.5-1-4.9-2.8-6.7C93.6,135,91.2,134,88.7,134L88.7,134z"/>
	<path d="M167.4,107.4c-5.2,0-9.3,4.2-9.3,9.5c0,5.3,4.2,9.5,9.5,9.5c5.3,0,9.5-4.3,9.5-9.5C177,111.6,172.8,107.4,167.4,107.4
		L167.4,107.4z"/>
	<path d="M141.9,80.7c-5.3,0-9.4,4.2-9.4,9.5c0,2.6,1,5,2.7,6.8c1.8,1.8,4.2,2.8,6.7,2.8c5.3,0,9.5-4.3,9.5-9.5c0-2.5-1-4.9-2.8-6.7
		C146.9,81.7,144.5,80.7,141.9,80.7L141.9,80.7z"/>
</symbol>
<symbol  id="Nowy_symbol_12" viewBox="-346.3 -339.6 692.6 679.2">
	<path d="M346.3-21.4c-12.1,0-24.1,0-36.4,0c0-12.3,0-24.4,0-36.9c-13.4,0-26.5,0-39.9,0c0-11.4,0-22.6,0-34c-30,0-59.8,0-89.9,0
		c0-12.4,0-24.5,0-36.8c-97.7,0-195.1,0-292.5,0c-0.5,1.7-0.6,276.3,0,278.9c0.8,0,1.7,0,2.5,0c5.9,0,11.8,0,17.8,0
		c1.4,0,2.4,0.4,3.3,1.4c15.3,15.7,30.7,31.3,46.1,46.9c1.1,1.1,2.2,1.6,3.8,1.6c10.1-0.1,20.2,0,30.2,0c0.9,0,1.7,0,2.7,0
		c5.4,15.9,16.2,25.8,32.4,30.1c0,13,0,25.8,0,39c4.5,0.2,8.9,0.1,13.3,0.1c4.4,0,8.8,0,13.2,0c4.4,0,8.8,0,13.4,0
		c0,11.3,0,22.4,0,33.8c3.2,0,6.3,0,9.3,0c3,0,6.1,0,9.1,0s6.1,0,9.1,0c3,0,6.1,0,9.4,0c0,12.4,0,24.6,0,36.8
		c81.1,0,162.2,0,243.4,0C346.3,219.3,346.3,99,346.3-21.4z M246-68.4c0.5,4,0.3,311.5-0.2,313.3c-3.8,0.5-194,0.3-195.6-0.2
		c0-5.5,0-11,0-16.5c13.4-5.3,22.3-14.7,26.9-28.4c0.9,0,1.8,0,2.7,0c9.8,0,19.7-0.1,29.5,0c2,0,3.4-0.6,4.7-2.1
		c13.9-15.4,28-30.8,41.9-46.2c1.1-1.2,2.1-1.7,3.7-1.7c5.9,0.1,11.8,0,17.8,0c0.8,0,1.6,0,2.7,0c0-14.8,0-29.3,0-43.9
		c0-14.6,0-29.1,0-43.7c0-14.5,0-29,0-43.4c0-14.6,0-29.1,0-43.7c0-14.5,0-29,0-43.7C202.2-68.4,224-68.4,246-68.4z M116.1-40.9
		c0-7.2,0-14.4,0-21.5c0-7.2,0-14.4,0-21.6c0-7.1,0-14.2,0-21.2c4.7-0.5,38.3-0.3,40,0.2c0,77,0,154,0,230.9
		c-4.4,0.5-243.3,0.3-245-0.2c0-77,0-154,0-231c13.3,0,26.5,0,39.8,0c0,21.5,0,42.8,0,64.3C6-40.9,60.9-40.9,116.1-40.9z M270,268.9
		c0-101.3,0-202.2,0-303.3c5.4,0,10.7-0.1,15.9,0.1c0,104.6,0,208.9,0,313.3c-65.4,0-130.6,0-195.9,0c0-3.4,0-6.6,0-10.1
		C150.1,268.9,209.9,268.9,270,268.9z M322.8,315.9c-65.4,0-130.6,0-195.9,0c-0.1-4.4-0.3-8.6,0.1-13.1c7.8,0,15.4,0,23,0
		c7.6,0,15.2,0,22.8,0s15.2,0,22.8,0c7.6,0,15.2,0,22.8,0c7.7,0,15.4,0,23,0c7.6,0,15.2,0,22.8,0c7.6,0,15.2,0,22.8,0
		c7.6,0,15.1,0,22.9,0c0-100.3,0-200.2,0-300.3c4.4,0,8.6,0,12.9,0C322.8,107,322.8,211.3,322.8,315.9z M92.2-105.3
		c0,13.7,0,27.1,0,40.6c-4.9,0.5-115.6,0.3-117.5-0.2c0-2,0-4,0-5.9c0-2,0-4.1,0.1-6c0.4-0.1,0.5-0.1,0.5-0.2c0.2,0,0.3-0.1,0.5-0.1
		c29,0,58.1,0,87.1,0c0.2,0,0.5,0,0.7,0c0.2,0,0.3,0,0.5,0c0.2,0,0.3-0.1,0.5-0.1c0.1,0,0.1-0.1,0.2-0.1c0.1,0,0.1-0.1,0.3-0.3
		c0-1.8,0-3.7,0-5.6c0-1.9-0.1-3.8-0.1-5.8c-30.2,0-60.1,0-90.1,0c0-5.5,0-10.8,0-16.2C14-105.3,53-105.3,92.2-105.3z M16,187.5
		c0-10.8,8.6-19.7,19.4-19.7c11.8,0,19.6,9.7,19.7,19.4c0.1,9.7-7.5,19.7-19.5,19.8C23.5,207,15.8,197.1,16,187.5z"/>
	<path d="M-346.3-105.8c0.6,0,1.3,0.1,1.9,0.1c14.7,0,29.4,0.1,44.1,0.1c1.8,0,3.4,0.3,5,1.2c4.6,2.6,9.3,4.9,13.9,7.5
		c6.3,3.6,12.9,6.6,19.7,9.1c11.2,4.2,22.3,8.8,33.5,12.9c18.8,6.8,35.7,3.4,50.4-10.1c6.8-6.2,13.3-12.7,20-19
		c0.9-0.9,1.9-1.3,3.2-1.3c3.7,0.1,7.3,0,11.2,0c0.1-0.7,0.2-1.3,0.2-1.9c0-3,0.1-5.9,0-8.9c0-1.3,0.5-2.2,1.4-3.1
		c6.2-6.6,13.8-11.6,21.1-17c4.9-3.7,10.1-6.6,15.8-8.9c20.2-8.3,40.4-16.7,60.5-25.3c27.6-12,44.4-33,50.4-62.4
		c2.8-14,1.6-28-2.9-41.6c-2.3-6.9-4.5-13.8-8-20.2c-12.8-23.1-32.1-37.4-58-42.9c-3.2-0.7-6.5-1-9.7-1.5c-0.8-0.1-1.6-0.3-2.3-0.4
		c-3,0-6.1,0-9.1,0c-1.9,0.3-3.7,0.7-5.6,1c-6.6,1-13.2,2.3-19.4,5.1c-6.3,2.9-12.6,5.7-19,8.6c-20,9.1-40.1,18.2-60.1,27.4
		c-1.5,0.7-2.8,0.9-4.3,0.3c-1.6-0.6-3.4-0.9-5.2-1c-11.8-0.9-22.5,5.6-27.2,16.5c-0.2,0.6-0.5,1.1-0.8,1.6
		c-17.1-1.3-27.8,6.3-32.1,22.9c-10-5.9-20-6.3-29.7-0.1c-9.7,6.3-13.3,15.7-12.1,27.2c-1.2,0-2.2,0-3.1,0c-13.5,0-27,0-40.5,0
		c-1,0-2,0.3-3,0.4C-346.3-188.4-346.3-147.1-346.3-105.8z M-173.7-278.1c0.6-0.3,1.2-0.7,1.8-1c24.2-11,48.4-22,72.6-33
		c1-0.5,2.1-0.9,3.1-1.2c8.8-2.5,17.7-3.3,26.8-1.6c22.3,4.3,37.8,17,46.4,38c1.5,3.6,2.6,7.4,3.8,11.1c3,9.7,3.6,19.5,1.5,29.4
		c-4.6,20.8-16.7,35.6-36.4,44c-27.3,11.6-54.7,23-82.1,34.5c-13.2,5.6-26.5,11.1-39.8,16.6c-0.8,0.3-1.6,1.1-2.7,0.6
		c-1.3-10.2,1.6-19.1,9.3-26c8.9-7.9,18.8-14.7,29.6-19.9c9.3-4.5,18.8-8.7,28.3-13c0.9-0.4,1.8-0.9,2.8-1.3c0-0.4,0-0.8,0-1.1
		c-1.2-7.3-2.3-14.7-3.6-22c-0.8-4.9-1.1-9.7-0.1-14.6c3.4-16.3,13-27.3,28.6-32.9c4.8-1.7,9.7-3.3,14.5-4.9c0.6-0.2,1.3-0.5,2-0.8
		c-2.5-7.5-5-14.8-7.5-22.2c-0.6,0.2-1.1,0.3-1.5,0.4c-5.2,1.8-10.4,3.5-15.6,5.3c-13.5,4.7-24.4,12.8-32.7,24.4
		c-9.8,13.9-13.6,29.4-11.5,46.3c0.3,2.6,0.8,5.2,1.2,7.9c-2.7,1.2-5.2,2.3-8,3.6c0-6.3,0-12.3,0-18.4c-12.4,0-24.6,0-36.7,0
		c-12.2,0-24.4,0.1-36.7-0.4c5.4-3.7,9.1-8.6,11.2-14.5C-186-241.5-169.4-257.8-173.7-278.1z M-322.1-206c4-0.5,153.2-0.2,155.2,0.3
		c0,2.4,0,4.9,0,7.4c-0.7,0.5-1.5,1-2.1,1.5c-5.3,4.1-10.9,7.9-15.9,12.3c-13.4,12-19.2,27.2-17.5,45.1c0.3,3.3,1.1,6.6,1.7,9.9
		c-40.4,0-80.9,0-121.4,0c0-10.1,0-20,0-30.1c32.8,0,65.5,0,98.3,0c0-4.1,0-8,0-12.1c-32.8,0-65.5,0-98.3,0
		C-322.1-183.2-322.1-194.5-322.1-206z M-239.9-105c0.1-0.1,0.1-0.2,0.2-0.3c16.1,0,32.2,0,48.3,0c-0.1,0.3-0.2,0.5-0.3,0.6
		c-0.8,0.8-1.7,1.7-2.6,2.5c-7.4,6.8-15.8,8.6-25.3,5.1c-5.9-2.2-11.8-4.5-17.6-6.8C-238-104.2-239-104.6-239.9-105z M-196.8-271.4
		c0.1,1.7-1.3,3.2-3,3.4c-1.8,0.1-3.4-1.3-3.5-3.1c-0.1-1.7,1.3-3.2,3-3.4C-198.5-274.7-196.8-273.2-196.8-271.4z M-227.6-253.2
		c0,1.8-1.5,3.3-3.2,3.3c-1.7,0-3.2-1.5-3.2-3.2c0-1.8,1.6-3.4,3.3-3.4C-228.9-256.5-227.6-255-227.6-253.2z M-269.6-234.6
		c0,1.7-1.5,3.1-3.3,3.1c-1.8,0-3.2-1.4-3.3-3.1c0-1.8,1.6-3.3,3.4-3.3C-271-237.8-269.6-236.3-269.6-234.6z"/>
	<path d="M-206,322.7c2.8-7.1,5.3-13.7,7.9-20.2c8.9-23,17.8-46,26.7-69.1c0.5-1.3,0.8-2.8,0.8-4.2c0-91.4,0-182.9,0-274.3
		c0-0.8,0-1.6,0-2.3c-1.9-0.5-65.5-0.7-70.7-0.2c-0.1,0.6-0.1,1.2-0.2,1.8c0,0.5,0,1,0,1.4c0,91,0,181.9,0,272.9
		c0,1.9,0.3,3.6,1,5.4c11.2,28.7,22.3,57.5,33.4,86.2C-206.9,320.8-206.6,321.5-206,322.7z M-194.7-24.1
		c0.5,2.5,0.5,239.4-0.1,241.1c-1.7,0-3.5,0-5.4,0c0-6.1,0-12,0-17.9c0-5.8,0-11.7,0-17.5c0-5.9,0-11.8,0-17.8c0-5.8,0-11.7,0-17.5
		c0-5.9,0-11.8,0-17.8c0-5.8,0-11.7,0-17.5c0-5.9,0-11.8,0-17.8c0-5.8,0-11.7,0-17.5c0-5.9,0-11.8,0-17.8c0-5.8,0-11.7,0-17.5
		c0-5.9,0.1-11.8-0.1-17.8c-2.2,0-4.1,0-6,0c-1.9,0-3.8,0.1-5.9,0.1c0,64.9,0,129.5,0,194.2c-1.9,0-3.7,0-5.4,0
		c-0.5-3.4-0.4-239.5,0.2-241.1C-209.8-24.1-202.2-24.1-194.7-24.1z M-206,257c-2.3-5.5-4.2-10.5-6.2-15.8c4.3,0,8.1,0,12.3,0
		C-201.9,246.4-203.9,251.4-206,257z"/>
	<path d="M224.1-159.6c0-9.9,0-19.5,0-29.4c5.4-0.1,10.5,0,15.7,0c5.2,0,10.4,0,15.6,0c5.2,0,10.4,0,15.7,0c0-25.7,0-51.1,0-76.8
		c-1,0-1.8,0-2.7,0c-9.8,0-19.7,0-29.5,0c-1.6,0-2.6-0.4-3.6-1.8c-9.1-12.2-27.1-12.3-36.3-0.1c-1,1.3-2,1.9-3.7,1.9
		c-16.9-0.1-33.8-0.1-50.6,0c-1.6,0-2.6-0.4-3.6-1.7c-9.3-12.3-27.3-12.3-36.5,0c-1,1.4-2.1,1.7-3.6,1.7c-13,0-25.9,0-38.9,0
		c-0.9,0-1.9,0-3,0c0,23.6,0,47,0,70.7c0.8,0,1.7,0.1,2.5,0.1c12.2,0,24.3,0,36.5,0c0.6,0,1.1,0,1.7,0c3.8,0.1,6,2.3,6.4,6.1
		c0.2,1.8,0.2,3.7,0.5,5.5c2.5,12.5,12.1,21.6,24.7,23.5c1.5,0.2,3,0.4,4.5,0.4c28.5,0,56.9,0,85.4,0
		C222.1-159.6,222.9-159.6,224.1-159.6z M82.9-242.2c0.9,0,1.7,0,2.5,0c5.2,0,10.4,0.1,15.6,0c1.7,0,2.7,0.5,3.7,1.9
		c9.1,12.1,27.3,12.1,36.3,0c1-1.4,2-1.9,3.7-1.9c16.8,0.1,33.6,0.1,50.4,0c1.8,0,2.8,0.5,3.9,2c8.8,11.7,26.6,12,35.8,0.5
		c0.6-0.8,1.3-1.6,1.8-2.3c3.6,0,7.1,0,10.7,0c0,9.7,0,19.4,0,29.2c-7.9,0-15.6,0-23.4,0c-7.8,0-15.6-0.1-23.6,0c0,3.5,0,6.7,0,9.9
		c0,3.3,0,6.6,0,9.8c0,3.2,0,6.3,0,9.5c-0.8,0.1-1.3,0.1-1.8,0.1c-20.8,0-41.6,0-62.4,0c-4,0-6.2-2.2-6.3-6.2
		c-0.1-5.7-1.7-10.9-4.7-15.6c-0.2-0.4-0.4-0.8-0.7-1.5c2.8,0,5.2,0,7.7,0c2.5,0,5,0,7.4,0s5,0,7.4,0c2.6,0,5.1,0,7.7,0
		c2.5,0,5,0,7.4,0c2.5,0,5,0,7.4,0c2.4,0,4.9,0.1,7.5-0.1c0-2.2,0-4.1,0-6c-0.1-1.9,0.3-3.8-0.3-5.8c-31.3,0-62.5,0-93.8,0
		C82.9-226.6,82.9-234.3,82.9-242.2z"/>
	<path d="M-76.5,46.5c0,22.3,0,44.4,0,66.4c0.1,0.1,0.2,0.2,0.2,0.2c0.1,0.1,0.1,0.1,0.2,0.1c0.4,0.1,0.8,0.1,1.2,0.1
		c21.4,0,42.9,0,64.3,0c0.2,0,0.4-0.1,0.7-0.2c0.5-1.9,0.5-64.4,0-66.7C-32,46.5-54.1,46.5-76.5,46.5z M-52.6,70.6
		c1.9-0.6,17.3-0.6,19.1,0c0,6.3,0,12.6,0,18.8c-6.5,0-12.7,0-19.1,0C-52.6,83.1-52.6,76.8-52.6,70.6z"/>
	<path d="M143.5,113.2c0-22.3,0-44.4,0-66.7c-22.3,0-44.4,0-66.5,0c-0.5,1.7-0.6,63.9-0.1,66.7C99,113.2,121.1,113.2,143.5,113.2z
		 M119.5,70.3c0.5,2.9,0.4,17.4-0.1,19.1c-6.3,0-12.6,0-18.8,0c0-6.4,0-12.7,0-19.1C107,70.3,113.3,70.3,119.5,70.3z"/>
	<path d="M66.8,46.5c-22.2,0-44.2,0-66.2,0c-0.1,0.1-0.1,0.1-0.2,0.2c-0.1,0.1-0.1,0.1-0.1,0.2c-0.1,0.3-0.1,0.6-0.1,0.9
		c0,21.4,0,42.9,0,64.3c0,0.3,0.1,0.6,0.1,0.9c1.8,0.5,63.5,0.6,66.5,0.1C66.8,91,66.8,68.8,66.8,46.5z M23.9,89.4
		c0-6.4,0-12.7,0-19.1c6.5,0,12.8,0,19.2,0c0,6.4,0,12.7,0,19.1C36.7,89.4,30.5,89.4,23.9,89.4z"/>
	<path d="M76.8,36.6c22.3,0,44.5,0,66.7,0c0-22.2,0-44.3,0-66.4c-1.9-0.5-64.1-0.6-66.7-0.1C76.8-7.8,76.8,14.3,76.8,36.6z
		 M119.7-6.4c0,6.5,0,12.8,0,19.1c-2.6,0.5-17.4,0.4-19.1-0.1c0-6.3,0-12.5,0-18.9C107-6.4,113.2-6.4,119.7-6.4z"/>
	<path d="M-9.7,36.5c0-22.1,0-44.2,0-66.3c-1.8-0.5-62.6-0.6-66.4-0.2c-0.5,1.8-0.8,59.9-0.3,66.3C-74.8,36.8-13.8,37-9.7,36.5z
		 M-52.6-6.3c6.5,0,12.8,0,19.2,0c0,6.5,0,12.8,0,19.3c-6.4,0-12.8,0.1-19.2-0.1C-52.6,6.3-52.6,0.1-52.6-6.3z"/>
	<path d="M66.7-30c-22.1,0-44.2,0-66.4,0c0,22.2,0,44.3,0,66.6c22.1,0,44.2,0,66.4,0C67.1,34.8,67.2-27.4,66.7-30z M43.1-6.4
		c0,6.5,0,12.8,0,19.4c-6.5-0.1-12.8,0.1-19.2-0.1c-0.4-4.4-0.3-17.6,0.2-19.3C30.5-6.4,36.7-6.4,43.1-6.4z"/>
</symbol>
<symbol  id="Nowy_symbol_13" viewBox="-323.3 -280.3 646.6 560.6">
	<path d="M-323.3-18.7c0.4,3.5,1,6.9,1.3,10.4c3,28.6,11.9,55.3,27.2,79.6c27.5,43.8,66.4,72.1,116.5,85c8.9,2.3,18,3.7,27.1,4.6
		c14.1,1.3,28.1,1.3,42.2,0.4c38.5-2.4,73.1-15.6,103.8-38.9c12-9.1,22.6-19.6,32-31.3c1-1.3,2.1-1.9,3.8-1.9
		c11.9,0.1,23.8,0,35.8,0c32.3,0,61-21.9,69.7-53c11.1-39.9-13.1-80.8-53.4-90.3c-2-0.5-4.1-0.8-6.3-1.2c0.5-0.9,0.9-1.6,1.3-2.4
		c8.2-13.6,16.5-27.2,24.7-40.9c6-10,2.5-22.5-7.7-27.8c-3-1.5-6.1-2.2-9.5-2.2c-9.8,0-19.5,0-29.3,0c-0.9,0-1.7,0-2.7,0
		c-0.1-0.8-0.2-1.4-0.2-2c0-49.7,0-99.4,0-149c0-0.2,0-0.5,0-0.7c-31.2,0-62.4,0-93.6,0c-0.7,0.1-1.4,0.3-2.1,0.4
		c-3.4,0.4-6.8,0.7-10.3,1c-8.7,0.8-17.2,2.4-25.7,4.5c-59.8,15.1-108.8,57.9-131.7,115c-8.5,21.2-13.2,43.2-13.6,66.1
		c-0.2,11.4-0.1,22.9-0.1,34.3c0,0.9,0,1.9,0,2.9c-24.3,0-48.2,0-72.4,0c0-70.3,0-140.4,0-210.7c-9.1,0-18,0-26.8,0
		C-323.3-184.2-323.3-101.4-323.3-18.7z M-296.6-29.3c1.3,0,2.1,0,2.8,0c120.1,0,240.3,0,360.4,0c3,0,6.1,0.3,9,1
		c27.2,5.6,43.3,34.4,33.8,60.6c-6.7,18.4-23.9,30.5-43.5,30.5c-90,0-180,0-269.9,0c-20.8,0-41.6,0-62.4,0c-1.7,0-2.7-0.5-3.7-1.9
		c-7.7-12-13.8-24.7-18.3-38.2c-3.9-11.7-6.3-23.8-7.4-36.1C-296.2-18.6-296.3-23.8-296.6-29.3z M-197.5-56c0-0.9-0.1-1.3-0.1-1.8
		c0-10.8-0.1-21.6,0-32.4c0.1-12.2,1.6-24.2,4.5-36.1c13.5-56.7,56.2-102.3,111.9-119.8c13.7-4.3,27.8-7,42.1-7.3
		c21.1-0.4,42.2-0.2,63.3-0.2c0.7,0,1.4,0.1,2,0.2c0.5,3.4,0.3,25.9-0.1,27.7c-2,0.3-4.1,0.7-6.1,1c-17.3,2.7-34,7.5-49.8,14.8
		c-13.2,6.1-26,12.9-39,19.4c-0.2,0.1-0.4,0.4-0.7,0.6c0.6,0.4,1,0.7,1.5,1c10.4,6.3,20.7,12.7,31.1,19c16.3,9.9,33.8,17,52.4,21
		c3.6,0.8,7.2,1.5,11.1,2.3c0,0.9,0,1.9,0,2.8c0,13,0,25.9,0,38.9c0,0.9,0.1,1.8,0.2,3c15.5,0,30.8,0,46.5,0c-0.7,1.2-1.1,2-1.6,2.8
		C63.3-85.5,55.1-71.9,47-58.3c-1,1.7-2.1,2.4-4.1,2.4c-79.2-0.1-158.4,0-237.6,0C-195.5-56-196.4-56-197.5-56z M-14.5-187.6
		c13.4-5.4,26.8-9.2,40.8-11.2c0,8.5,0,16.7,0,25.2C12-176.2-1.3-180.8-14.5-187.6z M-132,89.4c0.5,6.3,0.3,44-0.3,46
		c-4.1-0.2-8.2-0.3-12.3-0.5c0-15.3,0-30.3,0-45.5C-140.3,89.4-136.2,89.4-132,89.4z M-105.2,89.4c4.3,0,8.5,0,12.7,0
		c0,14.5,0,28.8,0,43.4c-4.3,0.6-8.4,1.1-12.7,1.7C-105.2,119.3-105.2,104.5-105.2,89.4z M-171.6,89.4c0,13.8,0,27.4,0,41.3
		c-4.4-1.3-8.6-2.5-12.7-3.7c0-12.7,0-25.1,0-37.7C-180,89.4-175.9,89.4-171.6,89.4z M-52.8,120.2c-4.2,1.9-8.3,3.7-12.7,5.2
		c0-12.2,0-24,0-36c4.3,0,8.5,0,12.7,0C-52.8,99.7-52.8,109.8-52.8,120.2z M-211,115.1c-0.3-0.1-0.6,0-0.8-0.1
		c-3.7-2.2-7.4-4.5-11.1-6.7c-1-0.6-1.1-1.5-1.1-2.4c0-5,0-9.9,0-14.9c0-0.5,0.1-1.1,0.2-1.7c2.2,0,4.3,0,6.3,0c2.1,0,4.2,0,6.4,0.1
		C-211,98.1-211,106.5-211,115.1z M-26.1,89.4c6.2,0,12.1,0,18.1,0c-3,3.8-15.5,14-18.1,14.8C-26.1,99.4-26.1,94.5-26.1,89.4z"/>
	<path d="M323.3,9.6c-0.1-1.3-0.4-2.5-0.4-3.8c-0.3-13.5-2.4-26.7-5.2-39.9c-8.2-38.5-24.4-73.2-48.4-104.4
		c-18.2-23.6-39.8-43.5-64.7-59.8c-0.5-0.3-0.9-0.6-1.4-0.9c-0.1-0.1-0.3,0-0.7-0.1c-4.6,7.2-9.3,14.5-14.1,22
		c49,32.4,82.8,76.3,99.3,132.7c12.3,42.3,12.5,84.8,0.9,127.3c-8.2,30.1-22.1,57.5-41.3,82.1c-19.2,24.6-42.4,44.8-69.5,60.2
		c-27.1,15.4-56.2,24.9-87.5,28.9c1.1,8.8,2.1,17.5,3.1,26.2c0.8,0,1.6,0,2.4,0c1-0.2,2-0.4,3-0.6c10.1-1.6,20.1-3.5,30-6.1
		c54.7-14.7,100.1-44.1,135.9-87.9c26.2-31.9,43.6-68.2,52.6-108.5c3-13.6,5.2-27.3,5.5-41.3c0-1.3,0.3-2.5,0.4-3.8
		C323.3,24.6,323.3,17.1,323.3,9.6z"/>
	<path d="M171.9-164.1c-4.5,7.4-8.9,14.9-13.4,22.5c46.5,29.2,77,69.9,88.2,123.7c11.2,53.8,0.6,103.8-31.4,148.4
		c-32,44.7-76,70.1-130.6,77.8c1.1,8.7,2.1,17.3,3.1,25.9c73-7,157.9-61.9,183-161.1C295.6-25.1,248.4-119.7,171.9-164.1z"/>
	<path d="M82.2,188.5c61-5.9,128.7-53.1,145.4-133.5c16.6-79.8-25.9-150.4-81.7-180.9c-4.3,7.5-8.7,15-13.1,22.7
		C164-84.5,185.9-58.4,197.4-24c8.7,26.1,9.6,52.7,2.9,79.4c-14.1,55.9-61.4,99.8-121.3,107.1C80.1,171.2,81.1,179.8,82.2,188.5z"/>
	<path d="M73.5,116.7c1.1,8.9,2.1,17.6,3.2,26.2c47.9-5.2,94.2-41.3,105.8-97.1c11.2-53.6-14.3-105.6-58.4-131.1
		c-4.4,7.5-8.9,15.1-13.4,22.8c20.3,12.3,34.7,29.4,42.5,51.8c5.8,16.6,6.9,33.6,3.3,50.8c-4.2,20.3-13.9,37.5-29.1,51.6
		C112.2,105.7,94.3,113.9,73.5,116.7z"/>
</symbol>
<symbol  id="Nowy_symbol_15" viewBox="-51.8 -71.1 104.2 135.6">
	<path class="st0" d="M-40,37.2l19.2-7.4v22c0,0,1.8,9.3,26.7,9.3S42,54.6,42.5,47.9S40,36.3,40,36.3L41,18c0,0,4.9,2.5,6-2.3
		c1-4.8-1.5-23-3.2-26S41-18.5,41-18.5s3.3-27.8-8.2-34.8S14.3-69.6,1.1-67.6s-32.8,10.7-35.7,20.7c-2.9,10-5.9,36.8-5.9,36.8
		s-6,4.8-6.5,11.3s-2.3,12.3,1.2,14.3s5.3,3.8,5.3,3.8L-40,37.2z"/>
	<path class="st2" d="M40.7,41.5c0-4.3,0-8.5,0-12.8c0-2.6-0.3-5.5,0-8.1c0.5-4.6,5.3,2.1,7.6-1.2c0.9-1.3,0.3-5.8,0.2-7.4
		C48.3,7.4,47,2.7,45.9-1.8c-0.6-2.5-1.4-7.6-3.7-9.2l-2.7-28.5c-0.6-6.5-4.1-12.4-9.6-16l-10.1-6.6c-11-7.2-25.2-7.3-36.2-0.2
		l-10.8,7c-5.4,3.5-8.9,9.2-9.7,15.5l-3.2,27.3c-1.5,2-2.7,4.3-3.7,6.6c-2.4,5.4-3.6,9.1-4.3,14.7c-0.2,1.8-0.5,6.1,0.2,7.8
		c1.5,3.5,6.4-0.1,7.4,2.5c0.7,1.7,0,4.9,0,6.7c0,4.3,0,8.5,0,12.8c5.8-6.1,22.5-10.9,39.9-10.9s42.8,6.5,42.8,18.4
		c0,6.4-8.6,10.2-16.4,12.3c-7.2,1.9-14.6,2.7-22,2.3C-6.7,60.5-22,58.4-20,50.2c2.9-12,22.8-4.7,22.8-4.7V28"/>
	<line class="st2" x1="-20" y1="52.9" x2="-20" y2="29.7"/>
	<path class="st3" d="M16.4-4.4c0,0,3.5-1,6.4,0s3.9,2.7,3.9,2.7"/>
	<path class="st3" d="M-27.8-4.8c0,0,4.2-1.5,7.6-1.5s5.4,1.5,5.4,1.5"/>
	<path class="st3" d="M-17.8-37.9"/>
	<path class="st3" d="M-10.8-31.3c-1.4-4.9,1.9-6.4,4.8-6.3c1-2.6,3.6-4.7,6.5-4.7c3.9,0,4.7,3,7.4,4.6c1.3,0.7,2.4,0.1,3.7,1.3
		c1.6,1.5,1.9,4.3,0.8,6.2"/>
	<path class="st3" d="M31.1,8.9C25.4,3.9,20,8.9,14,7.5c-3.5-0.8-6.1-3.9-7.1-7.2C4.9-5.8,6.3-13,6.7-19.2C7.2-25.4,7.8-31.5,8-37.7
		"/>
	<path class="st3" d="M-32.1,7.4c8-6.7,21,4.4,26.5-7.7c1.4-3.1,1.3-6.6,1.2-10C-4.7-17.9-5.7-30-5.9-37.6"/>
	<path class="st3" d="M-9.3-46.3c6.2,0.4,15.7-3.2,20.8,1.8"/>
	<path class="st3" d="M-6-53.3c1,0,14.3,0,14.3,0"/>
	<path class="st4" d="M13.1-33.1c3.2,1.8,4-1.1,5.5-2.4c1.5-1.3,2.4-3.2,4.2-4c1.9-0.8,4.3,0.2,5.6,1.7c1.4,1.6,2.1,3.6,2.6,5.7
		c6.8,22.9,10,46.8,9.5,70.7"/>
	<path class="st4" d="M-11.1-34.2c-2.4,2.3-4.3,0-5.8-1.3c-1.5-1.3-2.4-3.2-4.2-4c-1.9-0.8-4.3,0.2-5.6,1.7
		c-1.4,1.6-2.1,3.6-2.6,5.7c-6.8,22.9-10,46.8-9.5,70.7"/>
</symbol>
<symbol  id="Nowy_symbol_3" viewBox="-56.9 -49.4 113.8 98.9">
	<line class="st5" x1="6.5" y1="-37.4" x2="-19.7" y2="-37.4"/>
	<path class="st5" d="M-12.8-23.1c-7.1,0-14.3,0-21.4,0"/>
	<path class="st5" d="M-25.2,5.4c-7,0-13.9,0-20.9,0"/>
	<line class="st5" x1="-15.5" y1="34" x2="-41.6" y2="34"/>
	<line class="st5" x1="-25.2" y1="-8.8" x2="-51.4" y2="-8.8"/>
	<path class="st5" d="M-31.6,19.7c-6.8,0-13.5,0-20.3,0"/>
	<path class="st0" d="M16.9-47.1c-23.6,0-42.8,19.2-42.8,42.8v8.8L45,5l6.3-25.1c0.1-0.5,0-1.1-0.3-1.5c-0.3-0.4-0.8-0.7-1.4-0.7
		h-5.1v-24.8H16.9z"/>
	<g>
		<path class="st6" d="M47.2-49.4H16.9C-8.2-49.4-28.6-29-28.6-3.9V7.5h5.1V-3.9c0-22.3,18.1-40.4,40.4-40.4h25.2v24.8h6.7L42.2,6.9
			l4.9,1.2L54-19c0.3-1.4,0-2.8-0.8-3.9s-2.1-1.7-3.5-1.7h-2.4V-49.4z"/>
		<path class="st6" d="M44.6-34.3h-4.8c-5.8,0-11.3,2.3-15.4,6.4c-0.8,0.8-0.8,2.2,0,3c0.8,0.8,2.2,0.8,3,0
			c3.3-3.3,7.7-5.1,12.4-5.1h4.8c1.2,0,2.1-0.9,2.1-2.1C46.8-33.4,45.8-34.3,44.6-34.3z"/>
		<g>
			<g>
				<path class="st0" d="M-23,25.8c0,0-0.1-0.4-0.2-1.1c0-0.2-0.1-0.4-0.1-0.6c0-0.2-0.1-0.5-0.1-0.8c-0.1-0.6-0.1-1.3-0.1-2
					c0-1.4,0.1-3.1,0.6-5.1c0.5-2,1.4-4.1,2.9-6.1c1.5-2,3.6-3.8,6.3-4.8c0.3-0.1,0.7-0.2,1-0.4c0.4-0.1,0.7-0.2,1.1-0.2
					c0.7-0.2,1.4-0.2,2.2-0.3c1.5-0.1,3-0.1,4.6,0.1c3.1,0.4,6.2,1.7,8.6,4.1c0.3,0.3,0.6,0.6,0.9,1l0.7,0.8
					c0.5,0.6,0.9,1.1,1.4,1.7c0.9,1.1,1.8,2.3,2.7,3.4c3.6,4.5,7.2,9,10.6,13.2c1.5,1.9,3.5,3.1,5.6,3.7c2.1,0.6,4.2,0.5,6.1,0.1
					c0.5-0.1,0.9-0.2,1.3-0.4c0.4-0.2,0.8-0.3,1.2-0.5c0.4-0.2,0.8-0.4,1.1-0.6c0.4-0.2,0.7-0.5,1-0.7c0.2-0.1,0.3-0.2,0.5-0.3
					c0.1-0.1,0.3-0.3,0.4-0.4c0.3-0.3,0.5-0.5,0.7-0.7c0.2-0.3,0.4-0.5,0.6-0.8c0.2-0.2,0.4-0.5,0.5-0.7c0.2-0.5,0.5-0.9,0.7-1.3
					c0.1-0.4,0.3-0.8,0.4-1c0.1-0.3,0.1-0.5,0.2-0.7c0-0.2,0-0.2,0-0.2l3.6,1.5c0,0,0,0.1-0.1,0.3c-0.1,0.2-0.1,0.5-0.2,0.8
					c-0.1,0.4-0.3,0.8-0.5,1.3c-0.1,0.3-0.2,0.5-0.4,0.8c-0.2,0.3-0.3,0.6-0.5,0.9c-0.2,0.3-0.4,0.6-0.6,0.9c-0.2,0.3-0.5,0.6-0.8,1
					c-0.3,0.3-0.6,0.6-1,0.9c-0.2,0.2-0.3,0.3-0.5,0.5c-0.2,0.1-0.4,0.3-0.6,0.4c-0.4,0.3-0.8,0.6-1.3,0.9c-0.5,0.3-1,0.5-1.4,0.8
					c-0.5,0.2-1.1,0.4-1.6,0.6c-0.6,0.2-1.2,0.3-1.7,0.5c-2.4,0.5-5.2,0.6-7.9-0.2c-2.7-0.7-5.4-2.3-7.4-4.8c-3.5-4.3-7.2-9-11-13.6
					c-0.9-1.1-1.8-2.3-2.7-3.4c-0.5-0.6-0.9-1.1-1.4-1.7L1.6,12c-0.2-0.2-0.4-0.5-0.6-0.7c-1.7-1.7-4-2.7-6.4-3
					c-1.2-0.2-2.4-0.1-3.5-0.1c-0.6,0-1.1,0.1-1.7,0.2c-0.3,0.1-0.5,0.1-0.8,0.2c-0.3,0.1-0.5,0.2-0.8,0.3c-2,0.8-3.7,2.2-4.8,3.7
					c-1.1,1.5-1.8,3.2-2.2,4.7c-0.4,1.5-0.5,2.9-0.5,4c0,0.6,0,1,0.1,1.4c0,0.2,0,0.4,0.1,0.6c0,0.2,0.1,0.4,0.1,0.5
					c0.1,0.7,0.2,1,0.2,1L-23,25.8z"/>
				<path class="st0" d="M-14.8,23.8c0,0-0.1-0.3-0.2-0.9c0-0.2-0.1-0.3-0.1-0.5c0-0.1,0-0.2,0-0.3c0-0.1,0-0.2,0-0.3
					c0-0.1,0-0.3,0-0.5c0-0.2,0-0.4,0-0.6c0-0.2,0-0.5,0.1-0.7c0-0.2,0.1-0.5,0.1-0.7c0-0.2,0.1-0.4,0.1-0.7c0.2-1,0.7-2,1.4-3
					c0.7-1,1.8-1.9,3.1-2.4c1.3-0.5,2.8-0.5,4.4-0.4c1.6,0.2,3.1,0.9,3.8,1.7c0.1,0.1,0.1,0.2,0.3,0.3l0.7,0.8
					c0.5,0.6,0.9,1.1,1.4,1.7c0.9,1.1,1.8,2.3,2.7,3.4c1.8,2.3,3.7,4.6,5.5,6.8c0.9,1.1,1.8,2.2,2.7,3.3c0.4,0.6,0.9,1.1,1.3,1.6
					c0.6,0.7,1.2,1.6,1.9,2.3c2.6,3,6,4.9,9.4,5.8c3.5,0.9,6.9,0.9,9.9,0.2c0.8-0.2,1.5-0.4,2.2-0.6c0.7-0.3,1.4-0.5,2-0.8
					c0.6-0.3,1.2-0.7,1.8-1c0.6-0.3,1.1-0.7,1.6-1.1c0.3-0.2,0.5-0.4,0.8-0.6c0.2-0.2,0.4-0.4,0.7-0.6c0.4-0.4,0.8-0.8,1.2-1.2
					c0.3-0.4,0.7-0.8,1-1.2c0.3-0.4,0.6-0.8,0.8-1.2c0.2-0.4,0.5-0.8,0.7-1.1c0.2-0.3,0.4-0.7,0.5-1c0.3-0.7,0.5-1.2,0.7-1.7
					c0.2-0.4,0.3-0.8,0.4-1.1c0.1-0.2,0.1-0.4,0.1-0.4l3.3,1.4c0,0,0,0.1-0.1,0.4c-0.1,0.3-0.2,0.7-0.4,1.2
					c-0.2,0.5-0.5,1.2-0.8,1.9c-0.1,0.4-0.4,0.8-0.6,1.2c-0.2,0.4-0.5,0.8-0.8,1.3c-0.3,0.5-0.6,0.9-1,1.4c-0.4,0.5-0.8,0.9-1.2,1.4
					C46,38.1,45.5,38.5,45,39c-0.3,0.2-0.5,0.5-0.8,0.7c-0.3,0.2-0.6,0.4-0.9,0.6c-0.6,0.4-1.2,0.9-1.9,1.3
					c-0.7,0.4-1.4,0.8-2.1,1.1c-0.8,0.3-1.5,0.6-2.4,0.9c-0.8,0.3-1.7,0.5-2.6,0.7c-3.5,0.8-7.5,0.9-11.6-0.2c-4-1-8-3.3-11.1-6.7
					c-0.4-0.4-0.8-0.9-1.1-1.3c-0.4-0.4-0.7-0.9-1.1-1.3c-0.4-0.5-0.9-1.1-1.3-1.6c-0.9-1.1-1.8-2.2-2.7-3.3
					c-1.8-2.2-3.6-4.5-5.5-6.8c-1.6-2-3.2-4-4.8-6c0-0.1-0.8-0.6-1.7-0.7c-0.9-0.1-1.7-0.1-2.4,0.2c-0.7,0.3-1.3,0.8-1.7,1.3
					c-0.4,0.5-0.6,1.1-0.8,1.7c-0.1,0.1,0,0.2-0.1,0.3c0,0.1-0.1,0.3-0.1,0.5c0,0.2,0,0.3,0,0.5c0,0.1,0,0.3,0,0.4
					c0,0.1,0,0.1,0,0.2c0,0.1,0,0.1,0,0.1c0,0,0,0,0,0.1c0,0,0,0,0,0.1c0,0.2,0.1,0.3,0.1,0.5c0.1,0.6,0.2,0.9,0.2,0.9L-14.8,23.8z"
					/>
				<path class="st0" d="M-30.8,27.6c0,0-0.1-0.4-0.3-1.2c0-0.2-0.1-0.4-0.1-0.7c-0.1-0.4-0.1-0.8-0.2-1.3c-0.1-0.5-0.1-1-0.2-1.5
					c0-0.3,0-0.5,0-0.8c0-0.2,0-0.5,0-0.7c0-0.5,0-1.1,0-1.6c0-0.6,0.1-1.1,0.2-1.7c0-0.6,0.2-1.2,0.3-1.9c0.1-0.7,0.3-1.5,0.5-2.2
					c0.8-2.9,2.2-6.1,4.4-9c2.2-2.9,5.4-5.5,9.3-7.1c0.5-0.2,1-0.4,1.5-0.6c0.5-0.1,1-0.3,1.6-0.4c1-0.3,2.1-0.4,3.2-0.5
					c2.2-0.2,4.5-0.2,6.8,0.1C-1.6-3.2,0.7-2.6,3-1.5c2.3,1,4.5,2.5,6.5,4.5c0.2,0.3,0.5,0.5,0.7,0.8l0.7,0.8l0.7,0.8
					c0.5,0.6,0.9,1.1,1.4,1.7c0.9,1.1,1.8,2.3,2.7,3.4c3.4,4.2,6.8,8.4,9.9,12.3c1.1,1.4,2.9,1.7,4.2,1.4c0.2-0.1,0.3-0.1,0.5-0.1
					c0.1-0.1,0.3-0.1,0.4-0.2c0.3-0.2,0.5-0.3,0.7-0.5c0.4-0.3,0.8-0.7,1-1.1c0.2-0.3,0.3-0.6,0.4-0.8c0.1-0.2,0.1-0.3,0.1-0.3
					l3.3,1.4c0,0,0,0,0,0.1c0,0.1,0,0.2-0.1,0.4c-0.1,0.4-0.3,0.9-0.7,1.5c-0.2,0.3-0.4,0.6-0.7,1c-0.3,0.3-0.6,0.7-1,0.9
					c-0.4,0.3-0.9,0.5-1.3,0.8c-0.3,0.1-0.5,0.2-0.8,0.3c-0.3,0.1-0.6,0.1-0.9,0.2c-1.2,0.3-2.6,0.3-3.9-0.1
					c-1.3-0.4-2.7-1.2-3.6-2.4c-3.3-4.1-6.7-8.4-10.2-12.7c-0.9-1.1-1.8-2.3-2.7-3.4C9.7,8.7,9.2,8.2,8.8,7.6L8.1,6.7
					C7.8,6.4,7.3,5.8,6.9,5.5C3.6,2.1-0.4,0.6-4.3,0.1C-6.2-0.2-8.2-0.2-10.1,0C-11,0-12,0.1-12.9,0.4c-0.5,0.1-0.9,0.2-1.3,0.3
					c-0.4,0.2-0.9,0.3-1.3,0.5c-3.4,1.3-6.1,3.6-8,6.1c-1.9,2.5-3.1,5.2-3.8,7.7c-0.2,0.6-0.3,1.2-0.4,1.9c-0.1,0.6-0.2,1.1-0.2,1.6
					c0,0.5-0.1,1-0.1,1.5c0,0.5,0,1,0,1.4c0,0.5,0,0.8,0,1.3c0,0.5,0.1,0.9,0.1,1.3c0.1,0.4,0.1,0.8,0.1,1.1c0,0.2,0.1,0.4,0.1,0.6
					c0.2,0.7,0.2,1.1,0.2,1.1L-30.8,27.6z"/>
				<path d="M53.5,29.7l2.1,0.9c0,0-0.1,0.2-0.2,0.5c-0.1,0.3-0.2,0.8-0.5,1.4c-0.3,0.6-0.6,1.4-1,2.3c-0.2,0.5-0.5,0.9-0.8,1.4
					c-0.3,0.5-0.6,1-0.9,1.5c-0.2,0.3-0.3,0.5-0.5,0.8c-0.2,0.3-0.4,0.5-0.6,0.8c-0.4,0.5-0.9,1.1-1.4,1.6c-0.5,0.5-1.1,1.1-1.7,1.6
					c-0.3,0.3-0.6,0.5-0.9,0.8c-0.3,0.2-0.7,0.5-1,0.8c-0.7,0.5-1.4,1-2.2,1.5c-0.8,0.4-1.6,0.9-2.5,1.3c-0.9,0.4-1.8,0.7-2.8,1.1
					c-1,0.3-2,0.6-3,0.8c-4.1,0.9-8.9,1-13.6-0.2c-4.7-1.2-9.4-3.8-13.1-7.8c-0.5-0.5-0.9-1-1.4-1.5c-0.4-0.5-0.8-1-1.3-1.6
					c-0.4-0.5-0.9-1.1-1.3-1.6c-0.9-1.1-1.8-2.2-2.7-3.3c-1.8-2.2-3.6-4.5-5.5-6.8c-0.9-1.1-1.8-2.3-2.7-3.4
					c-0.5-0.6-0.9-1.1-1.4-1.7l-0.7-0.8l0-0.1c0,0,0,0,0,0l0,0.1l0.1,0.1l0.2,0.2c0.4,0.4,0.7,0.5,0.8,0.6c0.1,0.1,0.1,0,0,0
					c-0.1,0,0,0,0,0c0,0,0,0,0-0.1c0,0,0,0.1,0,0.2c0,0.1,0,0.1,0,0.2c0,0.1,0,0.1,0,0.1c0,0,0,0,0,0.1c0,0,0,0.1,0,0
					c0-0.1,0-0.2,0-0.3c0-0.1-0.1-0.2-0.1-0.2c0,0.2,0.1,0.3,0.1,0.4c0.1,0.5,0.2,0.8,0.2,0.8l-2.2,0.5c0,0-0.1-0.3-0.2-0.8
					c0-0.1-0.1-0.3-0.1-0.5c0,0,0.1,0.1,0.1,0.1c0,0,0,0.1,0,0.1c0,0,0,0,0-0.1l0-0.1c0-0.1,0-0.2,0-0.3c0-0.1,0-0.2,0-0.3
					c0-0.1,0-0.2,0.1-0.3c0,0,0,0,0-0.1c0.1-0.3,0.2-0.6,0.4-0.8c0.2-0.3,0.5-0.5,0.9-0.7c0.4-0.1,0.8-0.1,1.2-0.1
					c0.3,0,0.5,0.1,0.6,0.2c0.1,0,0.1,0.1-0.1-0.1c1.5,1.9,3.1,3.9,4.7,5.9C0.2,26.7,2,29,3.8,31.2c0.9,1.1,1.8,2.2,2.7,3.3
					c0.4,0.6,0.9,1.1,1.3,1.6c0.4,0.5,0.8,1,1.2,1.5c0.4,0.5,0.8,1,1.3,1.4c3.4,3.7,7.7,6.1,12.1,7.3c4.4,1.1,8.8,1,12.6,0.2
					c1-0.2,1.9-0.5,2.8-0.8c0.9-0.3,1.7-0.7,2.6-1c0.8-0.4,1.6-0.8,2.3-1.2c0.7-0.4,1.4-0.9,2.1-1.4c0.3-0.2,0.6-0.5,0.9-0.7
					c0.3-0.2,0.6-0.5,0.9-0.8c0.6-0.5,1.1-1,1.6-1.5c0.5-0.5,0.9-1,1.3-1.5c0.4-0.5,0.8-1,1.1-1.5c0.3-0.5,0.6-1,0.9-1.4
					c0.3-0.4,0.5-0.8,0.7-1.3c0.4-0.8,0.7-1.5,0.9-2.1c0.3-0.6,0.4-1,0.5-1.3C53.5,29.8,53.5,29.7,53.5,29.7z"/>
				<path d="M-33,28.2l-2.2,0.5c0,0-0.1-0.4-0.3-1.3c0-0.2-0.1-0.4-0.1-0.7c-0.1-0.5-0.2-1-0.2-1.6c-0.1-0.6-0.1-1.2-0.2-1.9
					c0-0.4,0-0.6,0-0.9c0-0.3,0-0.6,0-0.9c-0.1-4.4,1-12.5,6.4-19.4c2.7-3.4,6.4-6.5,11-8.4c0.6-0.2,1.2-0.4,1.8-0.7
					c0.6-0.2,1.2-0.3,1.8-0.5c1.2-0.3,2.5-0.5,3.8-0.6l1-0.1c0.3-0.1,0.7,0,1-0.1c0.7,0,1.3,0,2,0c1.4,0,2.7,0.1,4,0.3
					c2.7,0.4,5.4,1.1,8.1,2.3c2.7,1.2,5.4,2.9,7.8,5.4c0.3,0.3,0.6,0.6,0.9,1l0.8,0.9l0.7,0.8c0.5,0.6,0.9,1.1,1.4,1.7
					c0.9,1.1,1.8,2.3,2.7,3.4c3.2,4,6.5,8.1,9.5,11.9l0,0c0,0,0,0,0,0l2.1,0.8c0,0,0,0.2-0.2,0.6c-0.2,0.3-0.6,0.8-1.3,0.9
					c-0.6,0.2-1.6,0-2.1-0.7c-3.1-3.9-6.4-8-9.7-12.1c-0.9-1.1-1.8-2.3-2.7-3.4c-0.5-0.6-0.9-1.1-1.4-1.7l-0.7-0.8l-0.7-0.9
					c-0.3-0.3-0.5-0.6-0.8-0.9c-2.2-2.3-4.7-3.8-7.2-5c-2.5-1.1-5-1.8-7.4-2.1C-4.7-5.9-6-6-7.2-6c-1.2,0-2.5,0-3.7,0.2
					c-1.2,0.1-2.4,0.2-3.5,0.6c-0.6,0.1-1.1,0.3-1.7,0.4c-0.5,0.2-1.1,0.4-1.6,0.6c-4.3,1.7-7.7,4.6-10.2,7.7
					c-5,6.4-6,13.8-5.9,17.9c0,0.3,0,0.5,0,0.8c0,0.3,0,0.5,0,0.8c0.1,0.6,0.1,1.2,0.2,1.7c0.1,0.5,0.1,1,0.2,1.5
					c0.1,0.2,0.1,0.5,0.1,0.7C-33.1,27.7-33,28.2-33,28.2z"/>
				<path d="M-33,28.2c0,0-0.1-0.4-0.3-1.2c0-0.2-0.1-0.4-0.1-0.7c-0.1-0.4-0.1-0.9-0.2-1.5c-0.1-0.5-0.1-1.1-0.2-1.7
					c0-0.3,0-0.6,0-0.8c0-0.3,0-0.5,0-0.8c-0.1-4.1,0.9-11.5,5.9-17.9c2.4-3.2,5.9-6,10.2-7.7c0.5-0.2,1.1-0.4,1.6-0.6
					c0.6-0.2,1.1-0.3,1.7-0.4c1.1-0.3,2.3-0.5,3.5-0.6C-9.7-5.9-8.5-5.9-7.2-6C-6-6-4.7-5.9-3.5-5.7c2.5,0.3,5,1,7.4,2.1
					c2.5,1.1,4.9,2.7,7.2,5c0.3,0.3,0.6,0.6,0.8,0.9l0.7,0.9l0.7,0.8c0.5,0.6,0.9,1.1,1.4,1.7c0.9,1.1,1.8,2.3,2.7,3.4
					c3.3,4.1,6.6,8.2,9.7,12.1c0.5,0.7,1.4,0.9,2.1,0.7c0.7-0.1,1.1-0.6,1.3-0.9c0.2-0.3,0.2-0.6,0.2-0.6l2.1,0.8c0,0,0,0.1-0.1,0.3
					c-0.1,0.2-0.2,0.5-0.4,0.8c-0.2,0.3-0.5,0.7-1,1.1c-0.2,0.2-0.5,0.3-0.7,0.5c-0.2,0-0.3,0.1-0.4,0.2c-0.2,0.1-0.3,0.1-0.5,0.1
					c-1.3,0.3-3.1,0-4.2-1.4c-3.2-3.9-6.5-8.1-9.9-12.3c-0.9-1.1-1.8-2.3-2.7-3.4c-0.5-0.6-0.9-1.1-1.4-1.7l-0.7-0.8l-0.7-0.8
					C10,3.4,9.7,3.2,9.5,2.9c-2-2-4.2-3.5-6.5-4.5c-2.3-1-4.5-1.6-6.8-1.9c-2.2-0.3-4.6-0.3-6.8-0.1c-1.1,0.1-2.2,0.2-3.2,0.5
					c-0.5,0.1-1,0.3-1.6,0.4c-0.5,0.2-1,0.4-1.5,0.6C-20.8-0.6-24,2.1-26.2,5c-2.3,2.9-3.7,6.1-4.4,9c-0.2,0.7-0.4,1.5-0.5,2.2
					c-0.1,0.7-0.2,1.3-0.3,1.9c-0.1,0.6-0.1,1.2-0.2,1.7c0,0.6,0,1.1,0,1.6c0,0.3,0,0.5,0,0.7c0,0.2,0,0.5,0,0.8
					c0,0.5,0.1,1.1,0.2,1.5c0.1,0.5,0.1,0.9,0.2,1.3c0.1,0.2,0.1,0.5,0.1,0.7c0.2,0.8,0.3,1.2,0.3,1.2L-33,28.2z"/>
				<path d="M-11.4,23c0,0-0.1-0.3-0.2-0.9c0-0.1-0.1-0.3-0.1-0.5c0,0,0,0,0-0.1c0,0,0,0,0-0.1c0,0,0-0.1,0-0.1c0-0.1,0-0.1,0-0.2
					c0-0.1,0-0.3,0-0.4c0-0.1,0-0.3,0-0.5c0-0.2,0-0.3,0.1-0.5c0-0.1,0-0.2,0.1-0.3c0.1-0.5,0.4-1.1,0.8-1.7c0.4-0.6,1-1,1.7-1.3
					c0.7-0.3,1.6-0.3,2.4-0.2c0.9,0.1,1.7,0.6,1.7,0.7c1.6,2,3.2,4,4.8,6c1.8,2.3,3.7,4.6,5.5,6.8c0.9,1.1,1.8,2.2,2.7,3.3
					c0.4,0.6,0.9,1.1,1.3,1.6c0.4,0.4,0.7,0.9,1.1,1.3c0.4,0.5,0.8,0.9,1.1,1.3c3.1,3.4,7.1,5.7,11.1,6.7c4,1.1,8.1,1,11.6,0.2
					c0.9-0.2,1.7-0.4,2.6-0.7c0.8-0.3,1.6-0.6,2.4-0.9c0.7-0.4,1.4-0.8,2.1-1.1c0.7-0.4,1.3-0.8,1.9-1.3c0.3-0.2,0.6-0.4,0.9-0.6
					c0.3-0.2,0.5-0.5,0.8-0.7c0.5-0.5,1-0.9,1.4-1.4c0.4-0.5,0.8-1,1.2-1.4c0.4-0.4,0.7-0.9,1-1.4c0.3-0.5,0.5-0.9,0.8-1.3
					c0.3-0.4,0.5-0.8,0.6-1.2c0.3-0.8,0.6-1.4,0.8-1.9c0.3-0.5,0.3-1,0.4-1.2c0.1-0.3,0.1-0.4,0.1-0.4l2.1,0.9c0,0-0.1,0.2-0.1,0.5
					c-0.1,0.3-0.2,0.8-0.5,1.3c-0.3,0.6-0.6,1.3-0.9,2.1c-0.2,0.4-0.4,0.8-0.7,1.3c-0.3,0.4-0.6,0.9-0.9,1.4c-0.3,0.5-0.7,1-1.1,1.5
					c-0.4,0.5-0.8,1-1.3,1.5c-0.5,0.5-1,1-1.6,1.5c-0.3,0.3-0.6,0.5-0.9,0.8c-0.3,0.2-0.6,0.5-0.9,0.7c-0.7,0.5-1.3,1-2.1,1.4
					c-0.7,0.4-1.5,0.8-2.3,1.2c-0.8,0.3-1.7,0.7-2.6,1c-0.9,0.3-1.8,0.5-2.8,0.8c-3.8,0.9-8.2,1-12.6-0.2c-4.4-1.1-8.7-3.5-12.1-7.3
					c-0.4-0.5-0.9-0.9-1.3-1.4c-0.4-0.5-0.8-1-1.2-1.5c-0.4-0.5-0.9-1.1-1.3-1.6c-0.9-1.1-1.8-2.2-2.7-3.3C2,29,0.2,26.7-1.6,24.4
					c-1.6-2-3.1-3.9-4.7-5.9c0.2,0.2,0.2,0.2,0.1,0.1c-0.1,0-0.3-0.1-0.6-0.2c-0.5-0.1-0.9,0-1.2,0.1c-0.3,0.2-0.7,0.4-0.9,0.7
					c-0.2,0.3-0.3,0.6-0.4,0.8c0,0.1,0,0.1,0,0.1c0,0.1-0.1,0.2-0.1,0.3c0,0.1,0,0.2,0,0.3c0,0.1,0,0.2,0,0.3l0,0.1c0,0,0,0.1,0,0.1
					c0,0,0-0.1,0-0.1c0,0,0-0.1-0.1-0.1c0,0.2,0.1,0.3,0.1,0.5c0.1,0.5,0.2,0.8,0.2,0.8L-11.4,23z"/>
				<path d="M-19.2,24.8c0,0-0.1-0.3-0.2-1c0-0.2-0.1-0.3-0.1-0.5c0-0.2,0-0.4-0.1-0.6c0-0.4-0.1-0.9-0.1-1.4
					c-0.1-1.1,0.1-2.6,0.5-4c0.4-1.5,1.1-3.1,2.2-4.7c1.1-1.5,2.8-2.9,4.8-3.7c0.3-0.1,0.5-0.2,0.8-0.3c0.3-0.1,0.5-0.1,0.8-0.2
					c0.5-0.1,1.1-0.2,1.7-0.2c1.1-0.1,2.3-0.1,3.5,0.1c2.4,0.3,4.7,1.3,6.4,3c0.2,0.2,0.4,0.4,0.6,0.7l0.7,0.8
					c0.5,0.6,0.9,1.1,1.4,1.7c0.9,1.1,1.8,2.3,2.7,3.4c3.7,4.6,7.5,9.3,11,13.6c2,2.4,4.7,4,7.4,4.8c2.7,0.7,5.5,0.7,7.9,0.2
					c0.6-0.2,1.2-0.3,1.7-0.5c0.6-0.2,1.1-0.4,1.6-0.6c0.5-0.3,1-0.5,1.4-0.8c0.5-0.2,0.9-0.6,1.3-0.9c0.2-0.1,0.4-0.3,0.6-0.4
					c0.2-0.2,0.4-0.3,0.5-0.5c0.3-0.3,0.7-0.6,1-0.9c0.3-0.3,0.5-0.7,0.8-1c0.2-0.3,0.5-0.6,0.6-0.9c0.2-0.3,0.3-0.6,0.5-0.9
					c0.2-0.3,0.3-0.5,0.4-0.8c0.2-0.5,0.4-1,0.5-1.3c0.2-0.4,0.2-0.7,0.2-0.8c0-0.2,0.1-0.3,0.1-0.3l4.2,1.7c0,0,0,0.1-0.1,0.4
					c-0.1,0.2-0.1,0.6-0.4,1.1c-0.2,0.5-0.4,1-0.7,1.7c-0.1,0.3-0.3,0.7-0.5,1c-0.2,0.3-0.4,0.7-0.7,1.1c-0.2,0.4-0.5,0.8-0.8,1.2
					c-0.3,0.4-0.6,0.8-1,1.2c-0.4,0.4-0.8,0.8-1.2,1.2c-0.2,0.2-0.4,0.4-0.7,0.6c-0.2,0.2-0.5,0.4-0.8,0.6c-0.5,0.4-1,0.8-1.6,1.1
					c-0.6,0.3-1.2,0.7-1.8,1c-0.7,0.3-1.3,0.5-2,0.8c-0.7,0.3-1.4,0.4-2.2,0.6c-3,0.7-6.5,0.7-9.9-0.2c-3.4-0.9-6.9-2.9-9.4-5.8
					c-0.6-0.7-1.3-1.5-1.9-2.3c-0.4-0.5-0.9-1.1-1.3-1.6c-0.9-1.1-1.8-2.2-2.7-3.3c-1.8-2.2-3.6-4.5-5.5-6.8
					c-0.9-1.1-1.8-2.3-2.7-3.4c-0.5-0.6-0.9-1.1-1.4-1.7l-0.7-0.8c-0.1-0.2-0.2-0.2-0.3-0.3C-3,13.7-4.4,13-6,12.8
					c-1.5-0.2-3-0.1-4.4,0.4c-1.3,0.5-2.4,1.4-3.1,2.4c-0.7,1-1.2,2-1.4,3C-15,18.8-15,19-15,19.2c0,0.2-0.1,0.5-0.1,0.7
					c0,0.2,0,0.5-0.1,0.7c0,0.2,0,0.4,0,0.6c0,0.2,0,0.4,0,0.5c0,0.1,0,0.2,0,0.3c0,0.1,0,0.2,0,0.3c0,0.2,0.1,0.4,0.1,0.5
					c0.1,0.6,0.2,0.9,0.2,0.9L-19.2,24.8z"/>
				<path d="M-27.3,26.8c0,0-0.1-0.4-0.2-1.1c0-0.2-0.1-0.4-0.1-0.6c0-0.3-0.1-0.7-0.1-1.1c0-0.4-0.1-0.8-0.1-1.3c0-0.5,0-0.8,0-1.3
					c0-0.4,0-0.9,0-1.4c0-0.5,0.1-1,0.1-1.5c0-0.5,0.1-1.1,0.2-1.6c0.1-0.6,0.2-1.3,0.4-1.9c0.7-2.5,1.8-5.2,3.8-7.7
					c1.9-2.5,4.6-4.8,8-6.1c0.4-0.2,0.8-0.3,1.3-0.5c0.4-0.1,0.9-0.2,1.3-0.3C-12,0.1-11,0-10.1,0c1.9-0.2,3.9-0.2,5.8,0.1
					c3.9,0.5,7.9,2.1,11.2,5.4c0.4,0.4,0.8,0.9,1.2,1.3l0.7,0.8c0.5,0.6,0.9,1.1,1.4,1.7c0.9,1.1,1.8,2.3,2.7,3.4
					c3.5,4.3,7,8.7,10.2,12.7c0.9,1.2,2.3,2,3.6,2.4c1.4,0.4,2.7,0.3,3.9,0.1c0.3-0.1,0.6-0.1,0.9-0.2c0.3-0.1,0.5-0.2,0.8-0.3
					c0.5-0.3,1-0.5,1.3-0.8c0.4-0.3,0.7-0.6,1-0.9c0.2-0.4,0.5-0.6,0.7-1c0.4-0.6,0.5-1.2,0.7-1.5c0.1-0.2,0.1-0.3,0.1-0.4
					c0-0.1,0-0.1,0-0.1l4.2,1.7c0,0,0,0.1,0,0.2c0,0.1-0.1,0.4-0.2,0.7c-0.1,0.3-0.2,0.6-0.4,1c-0.1,0.4-0.4,0.8-0.7,1.3
					c-0.1,0.3-0.3,0.5-0.5,0.7c-0.2,0.2-0.4,0.5-0.6,0.8c-0.2,0.2-0.5,0.5-0.7,0.7c-0.1,0.1-0.3,0.3-0.4,0.4
					c-0.2,0.1-0.3,0.2-0.5,0.3c-0.3,0.2-0.6,0.5-1,0.7c-0.4,0.2-0.7,0.4-1.1,0.6c-0.4,0.2-0.8,0.3-1.2,0.5c-0.4,0.2-0.9,0.2-1.3,0.4
					c-1.9,0.4-4,0.4-6.1-0.1c-2.1-0.6-4.2-1.8-5.6-3.7c-3.4-4.2-7-8.7-10.6-13.2c-0.9-1.1-1.8-2.3-2.7-3.4c-0.5-0.6-0.9-1.1-1.4-1.7
					L4.6,9.6c-0.3-0.3-0.5-0.7-0.9-1C1.3,6.2-1.8,4.9-4.9,4.5C-6.4,4.3-8,4.3-9.5,4.4c-0.7,0.1-1.5,0.1-2.2,0.3
					c-0.4,0.1-0.7,0.2-1.1,0.2c-0.3,0.1-0.7,0.2-1,0.4c-2.7,1-4.8,2.8-6.3,4.8c-1.5,2-2.4,4.1-2.9,6.1c-0.5,2-0.7,3.7-0.6,5.1
					c0,0.7,0.1,1.4,0.1,2c0,0.3,0.1,0.6,0.1,0.8c0,0.2,0.1,0.4,0.1,0.6c0.1,0.7,0.2,1.1,0.2,1.1L-27.3,26.8z"/>
			</g>
			<g>
				<path class="st0" d="M40.3,24.3c0,0,0-0.1,0-0.2c0-0.1,0.1-0.4,0.1-0.7c0.1-0.6,0.2-1.5,0.1-2.6c-0.1-2.2-0.7-5.4-3-8.6
					c-1.1-1.5-2.6-3.1-4.5-4.1c-0.5-0.3-1-0.5-1.5-0.7c-0.5-0.1-1.1-0.3-1.7-0.4C28.8,7,27.8,7,26.6,7.3c-1.1,0.3-2.2,0.8-3.4,1.4
					c-1.1,0.6-2.2,1.4-3.2,2.3c-2.1,1.7-4,3.8-5.9,6c-3.7,4.4-6.9,9.2-10.4,13.7l-0.7,0.8l-0.1,0.1l0,0.1l-0.1,0.1L2.7,32l-0.3,0.4
					c-0.1,0.1-0.2,0.2-0.4,0.4l-0.5,0.4c-0.3,0.3-0.6,0.6-1,0.8c-1.2,0.9-2.6,1.6-3.9,2c-0.7,0.3-1.4,0.4-2,0.6
					c-0.7,0.1-1.4,0.2-2,0.3c-1.3,0.1-2.6,0-3.9-0.2c-2.5-0.4-4.7-1.4-6.4-2.7c-1.6-1.3-2.8-2.7-3.5-3.9c-0.8-1.3-1.2-2.3-1.4-3.1
					c-0.1-0.4-0.2-0.7-0.3-0.9c-0.1-0.2-0.1-0.3-0.1-0.3l3.8-0.9c0,0,0,0.1,0.1,0.2c0,0.1,0.1,0.3,0.2,0.6c0.2,0.6,0.5,1.4,1.1,2.3
					c0.6,0.9,1.4,2,2.6,2.9c1.1,0.9,2.7,1.6,4.6,1.9c0.9,0.1,1.9,0.2,3,0.1c0.5,0,1-0.1,1.6-0.2c0.5-0.1,1-0.2,1.6-0.4
					c1-0.3,2-0.8,2.9-1.5c0.2-0.2,0.4-0.3,0.6-0.5l0.3-0.2c0.1-0.1,0.2-0.2,0.3-0.3l0.3-0.4l0.2-0.2c0,0-0.1,0.1-0.1,0.1l0,0l0,0
					l0.1-0.1l0.6-0.8c3.3-4.2,6.6-9.2,10.4-13.8c1.9-2.3,4-4.5,6.4-6.5c2.3-1.9,5-3.7,8.1-4.5c1.5-0.4,3.2-0.5,4.7-0.3
					c0.7,0.1,1.5,0.3,2.2,0.5c0.7,0.3,1.4,0.5,2,0.9c2.6,1.3,4.5,3.3,6,5.3c1.5,2,2.4,4.2,3,6.1c0.6,2,0.8,3.7,0.8,5.2
					c0.1,1.5-0.1,2.6-0.2,3.4c0,0.4-0.1,0.7-0.2,0.9c0,0.2-0.1,0.3-0.1,0.3L40.3,24.3z"/>
				<path class="st0" d="M48.1,27.5c0,0,0-0.1,0.1-0.4c0.1-0.2,0.2-0.6,0.2-1.1c0.2-1,0.4-2.4,0.4-4.3c0-1.9-0.2-4.2-1-6.7
					c-0.7-2.5-2-5.3-3.9-8c-1.9-2.6-4.5-5.1-7.8-6.7c-0.8-0.4-1.7-0.7-2.6-1c-0.9-0.2-1.8-0.5-2.8-0.6l-0.7-0.1c-0.2,0-0.5,0-0.8,0
					c-0.5,0-1.1,0-1.6,0c-0.5,0.1-1.1,0.1-1.6,0.2c-0.5,0.1-1,0.2-1.5,0.3c-2,0.5-3.8,1.4-5.4,2.3c-1.6,0.9-3,2-4.4,3.1
					c-2.6,2.2-4.9,4.6-6.9,7c-2,2.4-3.9,4.9-5.6,7.2c-1.7,2.4-3.4,4.7-4.9,6.6l-0.6,0.7l-0.1,0.1l0,0l0,0c-0.2,0.2,0.3-0.3,0.2-0.2
					l-0.2,0.2l-0.3,0.4l-0.2,0.2C-3.9,26.9-4,27-4,27c0,0-0.1,0-0.1,0c0,0,0,0.1-0.2,0.2c-0.5,0.4-1.1,0.7-1.7,0.9
					c-0.3,0.1-0.7,0.2-1,0.3c-0.3,0-0.7,0.1-1,0.1c-0.7,0.1-1.3,0-1.9-0.1c-1.2-0.2-2-0.6-2.6-1c-0.7-0.6-1.2-1.1-1.5-1.7
					c-0.3-0.6-0.6-1.1-0.7-1.4c0-0.1-0.1-0.3-0.1-0.3c0,0,0-0.1,0-0.1l3.5-0.8c0,0,0,0,0,0c0,0,0-0.1,0,0c0,0,0,0.1,0,0.1
					c0.1,0.2,0.2,0.5,0.3,0.7c0.2,0.3,0.3,0.5,0.7,0.8c0.1,0.1,0.1,0,0.1,0.1c0.1,0,0.1,0,0.2,0.1c0.2,0,0.4,0.1,0.7,0.2
					c0.3,0,0.7,0.1,1,0c0.2,0,0.4-0.1,0.6-0.1c0.2-0.1,0.4-0.1,0.5-0.2c0.3-0.1,0.7-0.3,0.8-0.4l0,0l0,0l0,0c0,0-0.1,0.1-0.1,0.1
					c0,0-0.1,0.1-0.1,0.1c0,0.1,0.1-0.1,0.1-0.1l0.2-0.2l0.3-0.4l0.2-0.2c0.1-0.1-0.7,0.8-0.4,0.4l0,0l0,0l0.1-0.1l0.5-0.6
					c0.7-0.9,1.5-1.9,2.3-3.1c0.8-1.1,1.7-2.3,2.5-3.5c1.8-2.4,3.7-4.9,5.8-7.4c2.1-2.5,4.5-5,7.3-7.5c1.5-1.2,3-2.4,4.9-3.4
					c1.8-1.1,3.9-2,6.3-2.7c0.6-0.1,1.2-0.3,1.9-0.4c0.6-0.1,1.3-0.2,2-0.2c0.6-0.1,1.4,0,2,0c0.3,0,0.6,0,0.9,0l0.8,0.1
					c1.1,0.1,2.2,0.4,3.3,0.6c1,0.3,2.1,0.7,3,1.2c3.9,1.8,7,4.7,9.3,7.7c2.3,3.1,3.8,6.4,4.6,9.4c0.9,3,1.1,5.7,1.1,7.9
					c0,2.2-0.3,3.9-0.5,5c-0.1,0.6-0.2,1-0.3,1.3c-0.1,0.3-0.1,0.4-0.1,0.4L48.1,27.5z"/>
				<path class="st0" d="M32.8,21.2c0,0,0.1-0.4,0.1-1.2c0-0.8-0.3-1.9-1.1-3.1c-0.4-0.6-0.9-1.1-1.6-1.5c-0.3-0.2-0.7-0.3-1.1-0.4
					l-0.2,0c0,0,0,0-0.1,0c-0.1,0,0,0,0,0c0,0,0,0-0.1,0c0,0-0.1,0-0.1,0c-0.3,0.1-0.7,0.3-1.3,0.6c-0.6,0.4-1.3,0.9-2.1,1.5
					c-1.6,1.3-3.2,3.1-4.9,5c-1.7,2-3.3,4.1-4.9,6.4c-0.8,1.2-1.7,2.3-2.5,3.4c-0.9,1.2-1.7,2.4-2.7,3.6c-0.3,0.3-0.5,0.7-0.8,1
					l-0.1,0.1l-0.1,0.1l0,0l-0.4,0.4l-0.2,0.2l-0.3,0.4l-0.2,0.2C8,38.1,8,38.2,7.8,38.3c-0.3,0.3-0.6,0.5-0.9,0.8s-0.6,0.5-0.9,0.8
					l-0.2,0.2l-0.2,0.1l-0.4,0.3c-2,1.4-4,2.4-6.1,3.1c-1,0.4-2,0.6-3,0.8c-1,0.2-2,0.4-3,0.4c-2,0.2-3.9,0.1-5.8-0.2
					c-1.9-0.3-3.7-0.8-5.4-1.6c-0.8-0.4-1.7-0.8-2.4-1.2c-0.8-0.5-1.5-1-2.2-1.5c-2.5-1.9-4.3-4.2-5.5-6.1c-1.2-1.9-1.8-3.5-2.2-4.6
					c-0.1-0.3-0.2-0.5-0.2-0.7c-0.1-0.3-0.1-0.5-0.2-0.7c-0.1-0.4-0.2-0.6-0.2-0.6l3.5-0.8c0,0,0,0.2,0.1,0.5c0,0.1,0.1,0.3,0.2,0.5
					c0.1,0.2,0.1,0.4,0.2,0.6c0.3,0.9,0.9,2.3,1.9,3.9c1,1.6,2.5,3.5,4.6,5.1c2.2,1.8,5.2,3.1,8.4,3.6c1.6,0.2,3.3,0.3,4.9,0.2
					c0.8,0,1.7-0.2,2.6-0.3c0.9-0.2,1.7-0.4,2.6-0.7c1.7-0.6,3.5-1.4,5.1-2.6c0.4-0.3,0.9-0.7,1.3-1.1l0.7-0.6
					c0.1-0.1,0.2-0.2,0.2-0.2l0.2-0.2L6,35.1l0.2-0.2l0.3-0.3l0-0.1l0.1-0.1l0.7-0.9c1.9-2.4,3.5-4.7,5.2-7c1.7-2.3,3.4-4.5,5.1-6.6
					c1.7-2.1,3.5-4,5.3-5.4c0.9-0.7,1.8-1.4,2.6-1.9c0.8-0.5,1.6-0.8,2.2-1c0.2,0,0.3-0.1,0.5-0.1c0.1,0,0.3,0,0.4,0
					c0.1,0,0.2,0,0.4,0c0.1,0,0.3,0,0.5,0c0.7,0.1,1.4,0.3,2,0.7c1.2,0.7,2.2,1.6,2.9,2.6c1.4,2,1.8,4.1,1.9,5.5
					c0,0.7,0,1.3-0.1,1.7c0,0.2,0,0.3-0.1,0.4c0,0.1,0,0.1,0,0.1L32.8,21.2z"/>
				<path d="M-9.2,22.4l2.2-0.5c0,0,0-0.1,0-0.2c0,0,0-0.1-0.1-0.2l0,0c0,0,0,0-0.1-0.1c-0.1-0.1-0.2-0.3-0.4-0.4
					c-0.1,0-0.2-0.2-0.4-0.3c-0.1-0.1-0.2-0.1-0.3-0.2c-0.1-0.1-0.2-0.1-0.2-0.1c0,0-0.1,0-0.1,0c0,0,0,0-0.1,0c-0.1,0-0.1,0,0,0
					c0,0,0,0,0,0c0,0,0,0,0,0c0,0-0.1,0.1-0.4,0.2l0,0l0,0l-0.1,0.1c-0.1,0.1-0.2,0.2-0.4,0.3c-0.1,0.1-0.2,0.2-0.3,0.4
					c-0.1,0.1,0,0,0.1-0.1l0.2-0.2l0.3-0.4l0.2-0.2c0.1-0.1-1,1.1-0.5,0.6l0,0l0,0l0.1-0.1l0.4-0.5c0.6-0.8,1.4-1.8,2.2-2.9
					c0.8-1.2,1.7-2.3,2.5-3.5c1.8-2.4,3.8-5,6-7.7c2.2-2.6,4.7-5.3,7.9-8c1.6-1.3,3.4-2.6,5.5-3.9c2.1-1.2,4.6-2.4,7.5-3.1
					c0.7-0.2,1.5-0.3,2.2-0.5c0.8-0.1,1.6-0.2,2.4-0.3c0.8-0.1,1.7-0.1,2.4-0.1c0.4,0,0.8,0,1.1,0l1,0.1c1.3,0.1,2.6,0.4,3.8,0.7
					c1.2,0.4,2.5,0.8,3.6,1.3c4.6,2.1,8.4,5.4,11.2,9.1c1.4,1.8,2.5,3.7,3.4,5.6c0.4,1,0.8,1.9,1.2,2.8c0.3,0.9,0.6,1.9,0.9,2.8
					c0.2,0.9,0.4,1.8,0.6,2.6c0.2,0.9,0.3,1.7,0.4,2.5c0.1,0.8,0.1,1.6,0.2,2.3c0.1,0.7,0.1,1.4,0,2.1c0,2.6-0.4,4.6-0.7,5.9
					c-0.1,0.7-0.3,1.2-0.4,1.5c-0.1,0.3-0.2,0.5-0.2,0.5l-2.1-0.9c0,0,0.1-0.2,0.1-0.5c0.1-0.3,0.2-0.8,0.4-1.4
					c0.3-1.2,0.6-3.1,0.6-5.5c0-0.6,0-1.2,0-1.9c-0.1-0.7-0.1-1.4-0.2-2.1c-0.1-0.7-0.2-1.5-0.4-2.3c-0.2-0.8-0.4-1.6-0.6-2.4
					c-0.9-3.3-2.5-6.9-5.1-10.3C46,0,42.5-3.1,38.2-5.1c-1-0.5-2.2-0.9-3.3-1.2c-1.2-0.3-2.3-0.6-3.5-0.7l-0.9-0.1c-0.3,0-0.7,0-1,0
					c-0.7,0-1.5,0-2.2,0C26.5-7,25.8-7,25.1-6.8c-0.7,0.1-1.4,0.3-2,0.4c-2.6,0.7-4.9,1.8-6.9,2.9c-2,1.2-3.6,2.4-5.2,3.7
					C8,2.7,5.5,5.3,3.4,7.9c-2.2,2.6-4.1,5.1-5.9,7.6c-0.9,1.2-1.7,2.3-2.5,3.5c-0.8,1.1-1.6,2.2-2.2,3l-0.5,0.6l-0.1,0.1l0,0l0,0
					c-0.4,0.5,0.5-0.6,0.4-0.5l-0.2,0.2L-8,22.7l-0.2,0.2c0,0-0.2,0.2-0.1,0.1c0.1-0.1,0.1-0.2,0.2-0.2c0.1-0.1,0.2-0.1,0.2-0.2
					l0.1,0l0,0l0,0c0,0-0.1,0-0.2,0.1c-0.1,0-0.2,0-0.3,0.1c-0.1,0-0.2,0-0.3,0c-0.2,0-0.4,0-0.5,0c-0.1,0-0.2-0.1-0.1,0
					c0,0,0.1,0,0.1,0.1c0.1,0,0.1,0.1,0.1,0.1C-9,22.7-9,22.7-9.1,22.6c0-0.1-0.1-0.2-0.1-0.3c0,0,0-0.1,0-0.1c0,0,0,0.1,0,0.1
					C-9.2,22.4-9.2,22.4-9.2,22.4z"/>
				<path d="M30.8,20.4l-2.1-0.8c0.3,0,0.7-0.1,1.1-0.1c0.2-0.1,0.1,0-0.2,0.1c-0.3,0.2-0.9,0.6-1.5,1.1c-0.6,0.5-1.3,1.2-2.1,1.9
					c-0.7,0.8-1.5,1.6-2.3,2.5C22.2,27,20.6,29,19,31.3c-0.8,1.2-1.7,2.3-2.5,3.4c-0.9,1.2-1.8,2.4-2.8,3.8
					c-0.3,0.4-0.6,0.7-0.9,1.1l-0.1,0.1l-0.1,0.1l0,0l-0.6,0.6l-0.2,0.2l-0.3,0.4l-0.2,0.2c-0.1,0.1-0.1,0.1-0.3,0.3
					c-0.4,0.3-0.7,0.7-1.1,1c-0.4,0.3-0.7,0.6-1.1,1l-0.3,0.2l-0.2,0.2l-0.4,0.3c-2.4,1.7-4.8,2.9-7.2,3.7c-1.2,0.4-2.4,0.7-3.6,1
					c-1.2,0.2-2.4,0.4-3.5,0.5c-2.3,0.2-4.6,0.1-6.9-0.3c-0.6-0.1-1.1-0.2-1.7-0.3c-0.5-0.1-1.1-0.3-1.6-0.4
					c-1.1-0.3-2.1-0.7-3.1-1.1c-1-0.4-2-1-3-1.5c-0.9-0.6-1.9-1.2-2.7-1.8c-3-2.3-5.1-5-6.5-7.3c-1.4-2.3-2.1-4.2-2.6-5.5
					c-0.1-0.3-0.2-0.6-0.3-0.9c-0.1-0.3-0.2-0.6-0.2-0.8c-0.1-0.5-0.2-0.7-0.2-0.7l2.2-0.5c0,0,0.1,0.2,0.2,0.6
					c0.1,0.2,0.1,0.4,0.2,0.7c0.1,0.2,0.2,0.5,0.3,0.8c0.4,1.2,1.1,3,2.4,5.1c1.3,2.1,3.2,4.6,6,6.7c0.7,0.6,1.6,1.1,2.4,1.6
					c0.9,0.5,1.8,1,2.7,1.4c1.9,0.8,3.9,1.4,5.9,1.7c2.1,0.3,4.2,0.4,6.3,0.3c1.1-0.1,2.2-0.3,3.3-0.4c1.1-0.3,2.2-0.5,3.3-0.9
					c2.2-0.8,4.5-1.8,6.6-3.4L7,42l0.2-0.1l0.3-0.2c0.3-0.3,0.7-0.6,1-0.9c0.3-0.3,0.7-0.6,1-0.9c0.2-0.2,0.2-0.2,0.3-0.3l0.2-0.2
					l0.3-0.4l0.2-0.2l0.5-0.5l0,0l0.1-0.1l0.1-0.1c0.3-0.3,0.5-0.7,0.8-1c1-1.3,1.9-2.5,2.8-3.7c0.8-1.1,1.7-2.3,2.5-3.4
					c1.6-2.2,3.2-4.3,4.9-6.3c1.6-1.9,3.2-3.6,4.6-4.7c0.7-0.6,1.3-1,1.8-1.3c0.2-0.1,0.4-0.3,0.6-0.3c0.2-0.1,0.2-0.1,0.2-0.1
					c0,0,0,0,0,0c0,0-0.1,0-0.1,0c0,0-0.2,0-0.2,0c0,0-0.1,0,0,0l0.1,0c0.2,0,0.4,0.1,0.6,0.2c0.3,0.2,0.6,0.5,0.8,0.7
					c0.4,0.6,0.5,1.1,0.5,1.5C30.8,20.2,30.8,20.4,30.8,20.4z"/>
				<path d="M30.8,20.4c0,0,0.1-0.2,0-0.6c0-0.4-0.1-1-0.5-1.5c-0.2-0.3-0.5-0.5-0.8-0.7c-0.2-0.1-0.4-0.2-0.6-0.2l-0.1,0
					c0,0,0,0,0,0c0,0,0.1,0,0.2,0c0,0,0.1,0,0.1,0c0,0,0,0,0,0c0,0-0.1,0-0.2,0.1c-0.1,0-0.3,0.2-0.6,0.3c-0.5,0.3-1.1,0.7-1.8,1.3
					c-1.4,1.2-3,2.8-4.6,4.7c-1.6,1.9-3.2,4-4.9,6.3c-0.8,1.2-1.7,2.3-2.5,3.4c-0.9,1.2-1.7,2.4-2.8,3.7c-0.3,0.3-0.5,0.7-0.8,1
					L11,38.2l-0.1,0.1l0,0l-0.5,0.5L10.3,39l-0.3,0.4l-0.2,0.2c-0.1,0.1-0.1,0.1-0.3,0.3c-0.3,0.3-0.6,0.6-1,0.9
					c-0.3,0.3-0.7,0.6-1,0.9l-0.3,0.2L7,42l-0.4,0.3c-2.2,1.6-4.4,2.7-6.6,3.4c-1.1,0.4-2.2,0.7-3.3,0.9c-1.1,0.2-2.2,0.4-3.3,0.4
					c-2.2,0.2-4.3,0.1-6.3-0.3c-2-0.3-4-0.9-5.9-1.7c-0.9-0.4-1.8-0.9-2.7-1.4c-0.8-0.5-1.7-1.1-2.4-1.6c-2.7-2.1-4.7-4.6-6-6.7
					c-1.3-2.1-2-3.9-2.4-5.1c-0.1-0.3-0.2-0.6-0.3-0.8c-0.1-0.3-0.2-0.5-0.2-0.7c-0.1-0.4-0.2-0.6-0.2-0.6l2.2-0.5
					c0,0,0.1,0.2,0.2,0.6c0.1,0.2,0.1,0.4,0.2,0.7c0.1,0.2,0.1,0.5,0.2,0.7c0.4,1.1,1,2.7,2.2,4.6c1.2,1.9,3,4.2,5.5,6.1
					c0.6,0.5,1.4,1,2.2,1.5c0.8,0.4,1.6,0.9,2.4,1.2c1.7,0.7,3.5,1.3,5.4,1.6c1.9,0.3,3.8,0.4,5.8,0.2c1-0.1,2-0.2,3-0.4
					c1-0.2,2-0.5,3-0.8c2-0.7,4.1-1.7,6.1-3.1l0.4-0.3l0.2-0.1l0.2-0.2c0.3-0.2,0.6-0.5,0.9-0.8s0.6-0.5,0.9-0.8
					C8,38.2,8,38.1,8.1,38.1l0.2-0.2l0.3-0.4l0.2-0.2l0.4-0.4l0,0l0.1-0.1l0.1-0.1c0.3-0.3,0.5-0.7,0.8-1c1-1.3,1.9-2.5,2.7-3.6
					c0.8-1.1,1.7-2.3,2.5-3.4c1.6-2.3,3.3-4.4,4.9-6.4c1.7-2,3.3-3.7,4.9-5c0.8-0.6,1.5-1.2,2.1-1.5c0.6-0.3,1.1-0.5,1.3-0.6
					c0.1,0,0.1,0,0.1,0c0,0,0,0,0.1,0c0,0,0,0,0,0c0,0,0,0,0.1,0l0.2,0c0.4,0,0.8,0.2,1.1,0.4c0.7,0.4,1.2,0.9,1.6,1.5
					c0.8,1.1,1,2.3,1.1,3.1c0,0.8-0.1,1.2-0.1,1.2L30.8,20.4z"/>
				<path d="M51.4,28.8c0,0,0-0.1,0.1-0.4c0.1-0.3,0.2-0.7,0.3-1.3c0.2-1.1,0.5-2.8,0.5-5c0-2.2-0.2-4.9-1.1-7.9
					c-0.8-3-2.3-6.3-4.6-9.4c-2.3-3.1-5.4-5.9-9.3-7.7c-1-0.5-2-0.8-3-1.2c-1.1-0.3-2.1-0.5-3.3-0.6l-0.8-0.1c-0.3,0-0.6,0-0.9,0
					c-0.6,0-1.3,0-2,0c-0.6,0.1-1.3,0.1-2,0.2c-0.6,0.1-1.2,0.3-1.9,0.4c-2.4,0.6-4.5,1.6-6.3,2.7c-1.8,1.1-3.4,2.2-4.9,3.4
					C9.5,4.3,7.2,6.8,5.1,9.3c-2.1,2.5-4,5-5.8,7.4c-0.9,1.2-1.7,2.3-2.5,3.5c-0.8,1.1-1.6,2.2-2.3,3.1l-0.5,0.6L-6.1,24l0,0l0,0
					c-0.3,0.4,0.4-0.5,0.4-0.4L-6,23.9l-0.3,0.4l-0.2,0.2c0,0-0.2,0.2-0.1,0.1c0-0.1,0.1-0.1,0.1-0.1c0,0,0.1-0.1,0.1-0.1l0,0l0,0
					l0,0c-0.2,0.1-0.5,0.3-0.8,0.4c-0.2,0.1-0.4,0.1-0.5,0.2c-0.2,0-0.4,0.1-0.6,0.1c-0.4,0-0.7,0-1,0c-0.3,0-0.5-0.1-0.7-0.2
					c-0.1,0-0.1-0.1-0.2-0.1c0,0,0,0-0.1-0.1c-0.3-0.3-0.5-0.5-0.7-0.8c-0.2-0.3-0.3-0.5-0.3-0.7c0-0.1,0-0.1,0-0.1c0,0,0,0,0,0
					c0,0,0,0,0,0l2.2-0.5c0,0,0,0,0-0.1c0,0,0-0.1,0-0.1c0,0,0,0,0,0.1c0,0.1,0.1,0.2,0.1,0.3c0.1,0.1,0.1,0.1,0.1,0.2
					c0,0-0.1-0.1-0.1-0.1c0,0-0.1,0-0.1-0.1c0,0,0,0,0.1,0c0.1,0,0.3,0,0.5,0c0.1,0,0.2,0,0.3,0c0.1,0,0.2,0,0.3-0.1
					c0.2,0,0.3-0.1,0.2-0.1l0,0l0,0l-0.1,0c-0.1,0.1-0.2,0.1-0.2,0.2c-0.1,0.1-0.1,0.2-0.2,0.2c-0.1,0.1,0,0,0.1-0.1l0.2-0.2
					l0.3-0.4l0.2-0.2c0.1-0.1-0.8,1-0.4,0.5l0,0l0,0l0.1-0.1l0.5-0.6c0.7-0.8,1.4-1.9,2.2-3c0.8-1.2,1.7-2.3,2.5-3.5
					c1.8-2.4,3.7-5,5.9-7.6C5.5,5.3,8,2.7,11,0.2c1.5-1.3,3.2-2.5,5.2-3.7c2-1.1,4.3-2.2,6.9-2.9c0.7-0.2,1.4-0.3,2-0.4
					C25.8-7,26.5-7,27.3-7.1c0.7-0.1,1.5,0,2.2,0c0.3,0,0.7,0,1,0L31.4-7c1.2,0.1,2.4,0.4,3.5,0.7c1.1,0.4,2.3,0.7,3.3,1.2
					C42.5-3.1,46,0,48.5,3.4c2.5,3.4,4.1,7,5.1,10.3c0.2,0.8,0.4,1.6,0.6,2.4c0.1,0.8,0.3,1.5,0.4,2.3c0.1,0.7,0.1,1.4,0.2,2.1
					c0.1,0.7,0.1,1.3,0,1.9c0,2.4-0.4,4.3-0.6,5.5c-0.1,0.6-0.2,1.1-0.4,1.4c-0.1,0.3-0.1,0.5-0.1,0.5L51.4,28.8z"/>
				<path d="M43.9,25.8c0,0,0-0.1,0.1-0.3c0.1-0.2,0.1-0.5,0.2-0.9c0.1-0.8,0.3-1.9,0.2-3.4c-0.1-1.5-0.3-3.2-0.8-5.2
					c-0.6-2-1.5-4.1-3-6.1c-1.5-2-3.4-4-6-5.3c-0.6-0.4-1.3-0.6-2-0.9c-0.7-0.2-1.4-0.4-2.2-0.5c-1.5-0.2-3.2-0.1-4.7,0.3
					c-3.1,0.8-5.7,2.6-8.1,4.5c-2.3,2-4.4,4.2-6.4,6.5C7.3,19.1,4,24.1,0.8,28.3l-0.6,0.8l-0.1,0.1l0,0l0,0
					c-0.1,0.1,0.1-0.1,0.1-0.1l-0.2,0.2l-0.3,0.4c-0.1,0.1-0.2,0.3-0.3,0.3l-0.3,0.2c-0.2,0.2-0.4,0.3-0.6,0.5
					c-0.9,0.7-1.9,1.1-2.9,1.5c-0.5,0.2-1,0.3-1.6,0.4c-0.5,0.1-1,0.2-1.6,0.2c-1,0.1-2,0-3-0.1c-1.9-0.3-3.4-1-4.6-1.9
					c-1.2-0.9-2-2-2.6-2.9c-0.6-0.9-0.9-1.7-1.1-2.3c-0.1-0.3-0.2-0.5-0.2-0.6c0-0.1-0.1-0.2-0.1-0.2l4.4-1c0,0,0,0,0,0.1
					c0,0.1,0.1,0.2,0.1,0.3c0.1,0.4,0.3,0.9,0.7,1.4c0.3,0.6,0.8,1.2,1.5,1.7c0.6,0.4,1.4,0.8,2.6,1c0.6,0.1,1.2,0.1,1.9,0.1
					c0.3,0,0.7-0.1,1-0.1c0.3-0.1,0.7-0.1,1-0.3c0.6-0.2,1.3-0.5,1.7-0.9c0.2-0.1,0.2-0.1,0.2-0.2c0,0,0,0,0.1,0
					c0,0,0.1-0.1,0.1-0.1l0.2-0.2l0.3-0.4l0.2-0.2c0.1-0.1-0.4,0.5-0.2,0.2l0,0l0,0l0.1-0.1l0.6-0.7c1.5-1.9,3.2-4.3,4.9-6.6
					c1.7-2.4,3.6-4.8,5.6-7.2c2-2.4,4.3-4.8,6.9-7c1.3-1.1,2.8-2.2,4.4-3.1c1.6-0.9,3.4-1.8,5.4-2.3c0.5-0.1,1-0.2,1.5-0.3
					c0.5-0.1,1.1-0.1,1.6-0.2c0.5-0.1,1.1,0,1.6,0c0.3,0,0.5,0,0.8,0l0.7,0.1c1,0.1,1.9,0.3,2.8,0.6c0.9,0.3,1.8,0.6,2.6,1
					C39.4,1.9,42,4.4,44,7c1.9,2.6,3.2,5.4,3.9,8c0.7,2.5,0.9,4.8,1,6.7c0,1.9-0.2,3.3-0.4,4.3c-0.1,0.5-0.2,0.9-0.2,1.1
					c-0.1,0.2-0.1,0.4-0.1,0.4L43.9,25.8z"/>
				<path d="M36.2,22.6c0,0,0,0,0-0.1c0-0.1,0-0.2,0.1-0.4c0-0.4,0.1-0.9,0.1-1.7c-0.1-1.4-0.5-3.5-1.9-5.5c-0.7-1-1.6-2-2.9-2.6
					c-0.6-0.3-1.3-0.6-2-0.7c-0.2,0-0.4,0-0.5,0c-0.2,0-0.3,0-0.4,0c-0.1,0-0.3,0-0.4,0c-0.1,0-0.3,0.1-0.5,0.1
					c-0.6,0.2-1.4,0.5-2.2,1c-0.8,0.5-1.7,1.1-2.6,1.9c-1.8,1.5-3.6,3.4-5.3,5.4c-1.7,2.1-3.4,4.3-5.1,6.6c-1.7,2.3-3.3,4.6-5.2,7
					l-0.7,0.9l-0.1,0.1l0,0.1l-0.3,0.3L6,35.1l-0.3,0.4l-0.2,0.2c-0.1,0.1-0.1,0.1-0.2,0.2l-0.7,0.6c-0.5,0.4-1,0.8-1.3,1.1
					c-1.6,1.2-3.4,2-5.1,2.6c-0.9,0.3-1.7,0.5-2.6,0.7c-0.9,0.1-1.7,0.3-2.6,0.3c-1.7,0.2-3.4,0.1-4.9-0.2c-3.2-0.5-6.1-1.8-8.4-3.6
					c-2.1-1.6-3.6-3.5-4.6-5.1c-1-1.6-1.5-3-1.9-3.9c-0.1-0.2-0.1-0.4-0.2-0.6c-0.1-0.2-0.1-0.4-0.2-0.5c-0.1-0.3-0.1-0.5-0.1-0.5
					l4.4-1c0,0,0,0.1,0.1,0.3c0.1,0.2,0.2,0.5,0.3,0.9c0.3,0.7,0.7,1.8,1.4,3.1c0.8,1.3,1.9,2.7,3.5,3.9c1.7,1.3,3.9,2.3,6.4,2.7
					c1.2,0.2,2.5,0.3,3.9,0.2c0.7,0,1.3-0.2,2-0.3c0.7-0.2,1.4-0.3,2-0.6c1.4-0.5,2.7-1.1,3.9-2c0.3-0.2,0.6-0.5,1-0.8L2,32.8
					c0.2-0.1,0.2-0.3,0.4-0.4L2.7,32l0.2-0.2L3,31.7l0-0.1l0.1-0.1l0.7-0.8c3.4-4.5,6.6-9.3,10.4-13.7c1.8-2.2,3.8-4.3,5.9-6
					c1-0.9,2.1-1.7,3.2-2.3c1.1-0.6,2.2-1.1,3.4-1.4C27.8,7,28.8,7,30,7.1c0.6,0,1.1,0.2,1.7,0.4c0.5,0.2,1,0.4,1.5,0.7
					c1.9,1,3.4,2.6,4.5,4.1c2.2,3.1,2.9,6.4,3,8.6c0.1,1.1,0,2-0.1,2.6c0,0.3-0.1,0.5-0.1,0.7c0,0.2,0,0.2,0,0.2L36.2,22.6z"/>
			</g>
		</g>
	</g>
</symbol>
<symbol  id="Nowy_symbol_9" viewBox="-336 -345.4 672 690.7">
	<path d="M335.6,129.4c-1.5,18-8.2,33.9-19.3,48c-14.2,18.1-32.7,29.4-55.3,34.2c-6.1,1.3-12.3,1.8-18.5,1.9c-18.4,0-36.7,0-55.1,0
		c-1.5,0-2.7,0.4-3.8,1.5c-43.4,43.5-86.8,86.9-130.3,130.3H42.4c-0.4-0.1-0.9-0.2-1.4-0.2c-0.6,0.1-1.3,0-1.9,0
		c-74.2,0-148.4,0-222.6,0c-36.4,0-68.7-24.4-77.6-59.8c-11-43.6,16.1-86.1,58-96.2c6.3-1.5,12.7-2.3,19.2-2.3c21.5,0,43,0,64.6,0
		c1,0,1.9,0,2.8,0c0.1-0.2,0.1-0.3,0.2-0.3c0-0.1,0-0.1,0-0.2c0-0.1-0.1-0.1-0.1-0.2c-0.2-0.2-0.3-0.4-0.5-0.5
		c-43.3-43.3-86.6-86.7-129.9-130c0,0,0-0.1-0.1-0.4c1-1.1,2.1-2.2,3.5-3.7c-2.4-0.4-4.4-0.6-6.4-1c-24.8-4.1-46.5-14.2-63.4-33.2
		c-11-12.4-17.8-27-20.8-43.3c-0.4-2.4-0.7-4.9-1.1-7.4c-0.2-1.3-0.6-2.6-0.8-3.9c0-4.8,0-9.6,0-14.4c0.4-2.4,0.9-4.8,1.3-7.3
		c6-37.3,26.9-62.9,61.1-78.1c9.5-4.2,19.4-6.7,29.8-7.8c4.3-0.4,8.6-0.7,12.9-0.9c1.2-0.1,2.2-0.3,2.9-1.3c0.3-0.4,0.7-0.7,1-1
		c64.8-64.8,195.6-196,196.6-197.3c1.4,1.9,37.4,35.5,37.4,35.5c45,0,89.9-0.1,134.9,0c20.7,0,39.3,6.3,55.5,19.3
		c17.4,14.1,28.1,32.3,31.7,54.5c2.8,17.2,0.3,33.9-5.7,50.2c-6.5,17.6-16.4,33-30.4,45.7c-3.2,2.9-6.8,5.6-10.4,8.5
		c27.4,27.4,54.8,54.8,82.4,82.4C249.6-34,234.4-18.8,219.2-3.6c1.2,1.4,1.9,2.2,3.6,3.3c8.8,5.4,16.5,12.5,21.8,21.4
		c2,3.3,3.5,4.7,6.1,5c40.9,3.2,77.5,34.4,84.6,79c0.2,1.1,0.2,2.3,0.3,3.4c0.1,1,0.3,2,0.5,3v16.3
		C335.9,128.4,335.6,128.9,335.6,129.4z M-184,213.5c-24.1-0.1-43.2,15.6-50,35.1c-10.6,30,7.8,62.6,38.9,68.9
		c3.4,0.7,7,1.1,10.5,1.1c65.8,0.1,131.7,0,197.5,0c0.8,0,1.5-0.1,2.3-0.1c0.2-0.3,0.4-0.6,0.5-0.8c-0.7-0.5-1.5-0.9-2.2-1.5
		C-20,282.6-53.5,249.1-87,215.5c-1.4-1.4-2.8-2-4.8-2C-122.6,213.6-153.3,213.6-184,213.5z M48.3,312.6
		c59.4-59.4,119-119,178.4-178.4C141,48.4,55.1-37.4-30.5-123.1C-89.8-63.8-149.5-4.1-209,55.4C-123.3,141-37.4,226.9,48.3,312.6z
		 M-203.2-83.9c-11-11-22-21.9-32.9-32.9c-1.4-1.4-2.6-2-4.7-1.7c-13.8,1.9-26.5,6.4-37.8,14.6c-16.5,11.9-26.5,27.8-29.6,48
		c-2.1,13.8-0.9,27.3,4.9,40.1c6.3,14.1,16.8,24.3,30.4,31.4c9.5,5,19.7,7.8,30.3,9.2c8,1.1,16,0.8,23.9,0.8c0.6,0,1.5-0.3,1.9-0.7
		c5.1-5,10.2-10.2,15.2-15.2c-15.2-15.2-30.4-30.4-45.7-45.7c5.1-5.4,10.3-10.4,15.3-15.4c5.1-5.1,10.2-10.2,15.3-15.3
		c5.1-5.1,10.2-10.2,15.6-15.6C-201.9-83-202.7-83.4-203.2-83.9z M-29.4-306c-0.3-0.3-0.7-0.6-0.7-0.6
		C-83.8-253-137.3-199.4-190.9-145.8c0.6,0,1.4,0,2.1,0c16.2,0,32.5,0,48.7,0c1.8,0,2.9-0.6,4.2-1.8
		c34.4-34.5,68.9-68.9,103.3-103.3c0.7-0.7,1.2-1.5,2.3-2.7c1,1.3,1.6,2.1,2.2,2.8C6-216.5,40.3-182.3,74.4-148.1
		c1.7,1.7,3.4,2.4,5.8,2.4c15.8-0.1,31.5-0.1,47.3-0.1c0.9,0,1.7,0,2.5,0c0.1-0.2,0.2-0.3,0.2-0.3c0-0.1,0-0.2-0.1-0.2
		C77-199.5,23.8-252.8-29.4-306z M-200.2-119.2c0.5,1.5,12.1,13.4,17.3,17.9c5.9-6,11.9-11.9,17.8-17.9
		C-176.7-119.2-188.5-119.2-200.2-119.2z M189.1-176.5c7.1-11,11.8-23,13.8-36c5-33.7-16.9-62.7-47.5-69.5c-4.4-1-8.9-1.4-13.3-1.4
		c-36.1,0-72.3,0-108.4,0c-0.7,0-1.4,0-1.8,0c43.8,43.8,87.7,87.7,131.5,131.5c-0.1,0.2-0.2,0.4-0.3,0.6c0.9-0.5,1.8-1,2.7-1.5
		C175.4-158.8,183-167,189.1-176.5z M226.9-49.6c-0.4-0.4-0.8-0.9-1.3-1.4c-22.7-22.7-45.4-45.3-68-68.1c-1.2-1.2-2.3-1.5-3.8-1.2
		c-4.2,0.9-8.4,1-12.6,1c-11.5,0-23,0-34.5,0c-0.9,0-1.7,0-2.7,0c1,1.8,91.5,92.7,96.1,96.6C208.9-31.6,217.8-40.5,226.9-49.6z
		 M-30.5-214.7c-59.3,59.3-119,119-178.4,178.4c8.7,8.7,17.6,17.6,26.6,26.6C-132-60-81.4-110.6-30.5-161.5
		c77,77,153.8,153.8,230.6,230.6c9.1-9.1,17.9-17.9,26.6-26.6C141-43.2,55.1-129-30.5-214.7z M258.4,54.1c-4.2-1.1-4.2-1.1-7.3,2
		c-10,10-20,20-30,30c-0.6,0.6-1.3,1.1-2.2,1.9c15.5,15.5,30.7,30.7,46,46c-17.6,17.6-35,35-52.5,52.5c0.1,0.2,0.1,0.3,0.2,0.5
		c0.7,0,1.4,0,2.1,0c9.4,0,18.9,0,28.3,0c32.6-0.1,60.3-24.2,65.7-55.7C314.7,96,293,62.7,258.4,54.1z"/>
	<path d="M99.1,46C50.7,94.4,2.4,142.7-45.7,190.7c-42-42-84.2-84.2-126.2-126.2C-124.6,17.4-77.3-30-29.7-77.6
		C13.2-36.4,56.2,4.9,99.1,46z M-45.8,153.3c35.5-35.5,71.1-71.1,106.9-106.9C31,17.5,0.8-11.5-29.2-40.3
		C-64.4-5.2-99.4,29.9-134.3,64.8C-104.9,94.2-75.3,123.8-45.8,153.3z"/>
	<path d="M129.2,95.6c-41.9,41.9-83.9,83.9-126,126c-3.3-2.7-17.5-17.1-18-18.2c42.1-42.1,84.1-84.1,125.9-125.9
		C117,83.5,123.2,89.6,129.2,95.6z"/>
	<path d="M169,135.1c-42.1,42.1-84.1,84.1-126.1,126.1c-6-5.8-12.3-11.8-18.2-17.5c42.4-42.4,84.4-84.4,126.4-126.4
		C157.1,123.2,163.2,129.3,169,135.1z"/>
</symbol>
<use xlink:href="#Nowy_symbol_10"  width="675.8" height="732" x="-337.9" y="-366" transform="matrix(5.148192e-02 1.235001e-04 1.235001e-04 -5.148192e-02 17.4062 143.5397)" style="overflow:visible;"/>
<use xlink:href="#Nowy_symbol_9"  width="672" height="690.7" x="-336" y="-345.4" transform="matrix(5.909672e-02 1.417672e-04 1.417672e-04 -5.909672e-02 102.5077 21.1233)" style="overflow:visible;"/>
<use xlink:href="#Nowy_symbol_11"  width="557.5" height="647.7" x="-255.2" y="-247.3" transform="matrix(6.704547e-02 1.608355e-04 1.608355e-04 -6.704547e-02 17.1179 27.4923)" style="overflow:visible;"/>
<use xlink:href="#Nowy_symbol_12"  width="692.6" height="679.2" x="-346.3" y="-339.6" transform="matrix(5.909672e-02 1.417672e-04 1.417672e-04 -5.909672e-02 190.4855 20.0547)" style="overflow:visible;"/>
<use xlink:href="#Nowy_symbol_13"  width="646.6" height="560.6" x="-323.3" y="-280.3" transform="matrix(5.909672e-02 1.417672e-04 1.417672e-04 -5.909672e-02 21.0029 84.718)" style="overflow:visible;"/>
<use xlink:href="#Nowy_symbol_3"  width="113.8" height="98.9" x="-56.9" y="-49.4" transform="matrix(0.2963 0 0 -0.2963 106.2336 148.8619)" style="overflow:visible;"/>
<use xlink:href="#Nowy_symbol_1"  width="97.7" height="124.6" x="-48.8" y="-62.3" transform="matrix(0.2963 0 0 -0.2963 190.9293 85.8298)" style="overflow:visible;"/>
<use xlink:href="#Nowy_symbol_15"  width="104.2" height="135.6" id="XMLID_7_" x="-51.8" y="-71.1" transform="matrix(0.2593 0 0 -0.2593 195.5712 147.7969)" style="overflow:visible;"/>
<use xlink:href="#Nowy_symbol"  width="712.3" height="642.2" x="-356.2" y="-321.1" transform="matrix(5.909672e-02 1.417672e-04 1.417672e-04 -5.909672e-02 108.0253 85.174)" style="overflow:visible;"/>
</svg>
