<?xml version="1.0" encoding="utf-8"?>
<!-- Generator: Adobe Illustrator 21.1.0, SVG Export Plug-In . SVG Version: 6.00 Build 0)  -->
<svg version="1.1" id="Warstwa_1" xmlns="http://www.w3.org/2000/svg" xmlns:xlink="http://www.w3.org/1999/xlink" x="0px" y="0px"
	 viewBox="0 0 82.6 53.4" style="enable-background:new 0 0 82.6 53.4;" xml:space="preserve">
<style type="text/css">
	.st0{fill:#1F3F6E;}
	.st1{fill:#FFFFFF;}
</style>
<g>
	<path class="st0" d="M40.3,53.4L0,30.1v-6.8L40.3,0l40.3,23.3v6.8L40.3,53.4z M3.4,28.1l37,21.3l37-21.3v-2.9l-37-21.3l-37,21.3
		V28.1z M79,29.1L79,29.1L79,29.1z"/>
	<g>
		<polygon class="st1" points="3.3,23.3 44.1,25.2 80.9,3.9 40.3,1.9 		"/>
		<path class="st0" d="M44.1,26.9C44,26.9,44,26.9,44.1,26.9L3.2,25c-0.7,0-1.4-0.6-1.6-1.3c-0.2-0.7,0.1-1.5,0.8-1.8l37-21.3
			c0.3-0.2,0.6-0.2,0.9-0.2L81,2.2c0.7,0,1.4,0.6,1.5,1.3c0.2,0.7-0.1,1.5-0.8,1.8L44.9,26.7C44.6,26.8,44.3,26.9,44.1,26.9z
			 M9.1,21.9l34.5,1.6L75.1,5.3L40.7,3.6L9.1,21.9z"/>
	</g>
	<path class="st0" d="M40.2,46.3c-0.3,0-0.6-0.1-0.8-0.2L2.5,24.7c-0.8-0.5-1.1-1.5-0.6-2.3c0.5-0.8,1.5-1.1,2.3-0.6l36,20.9
		l36-20.9c0.8-0.5,1.8-0.2,2.3,0.6c0.5,0.8,0.2,1.8-0.6,2.3L41,46.1C40.8,46.2,40.5,46.3,40.2,46.3z"/>
	<path class="st0" d="M18.9,21.2c-0.7,0-1.4-0.5-1.6-1.2c-0.2-0.9,0.3-1.8,1.2-2.1L60.3,6.2c0.9-0.2,1.8,0.3,2.1,1.2
		c0.2,0.9-0.3,1.8-1.2,2.1L19.3,21.2C19.2,21.2,19,21.2,18.9,21.2z"/>
	<path class="st0" d="M42.3,22.1c-1.2,0-2.3-0.9-2.5-2.2L38.2,8.2c-0.2-1.4,0.8-2.7,2.1-2.8c1.4-0.2,2.7,0.8,2.8,2.1l1.7,11.7
		c0.2,1.4-0.8,2.7-2.1,2.8C42.6,22.1,42.5,22.1,42.3,22.1z"/>
	<path class="st0" d="M40.2,35.8L19.7,23.2c-0.8-0.5-1.8-0.2-2.3,0.5c-0.5,0.8-0.2,1.8,0.5,2.3l19.1,11.8
		C38.2,37.1,39.2,36.5,40.2,35.8z"/>
	<path class="st0" d="M45.1,32.3l-15.3-9.2c-0.8-0.5-1.8-0.2-2.3,0.6c-0.5,0.8-0.2,1.8,0.6,2.3l14,8.4C43.1,33.7,44.1,33,45.1,32.3z
		"/>
	<path class="st0" d="M41.5,27.7l5.6,3.4c0.5-0.3,1-0.6,1.5-0.9c0.6-0.4,1.2-0.7,1.8-1l-7.2-4.3c-0.8-0.5-1.8-0.2-2.3,0.6
		C40.4,26.2,40.7,27.2,41.5,27.7z"/>
	<path class="st0" d="M52.5,27.9c1.1-0.6,2.2-1.3,3.4-1.9l-7.7-4.6c-0.1,0-0.2-0.1-0.3-0.1c-0.1,0.3-0.3,0.5-0.6,0.7
		c-0.5,0.4-1.1,0.7-1.6,1c0.1,0.5,0.3,1,0.8,1.3L52.5,27.9z"/>
	<path class="st0" d="M58.1,24.9c1.2-0.6,2.3-1.2,3.5-1.8l-7.4-4.4c-0.7,1.1-1.6,1.9-2.8,2.2c0.1,0,0.1,0.1,0.2,0.1L58.1,24.9z"/>
</g>
</svg>
